<?xml version="1.0" encoding="utf-8" standalone="no"?>
<!DOCTYPE svg PUBLIC "-//W3C//DTD SVG 1.1//EN"
  "http://www.w3.org/Graphics/SVG/1.1/DTD/svg11.dtd">
<svg xmlns:xlink="http://www.w3.org/1999/xlink" width="460.8pt" height="345.6pt" viewBox="0 0 460.8 345.6" xmlns="http://www.w3.org/2000/svg" version="1.1">
 <metadata>
  <rdf:RDF xmlns:dc="http://purl.org/dc/elements/1.1/" xmlns:cc="http://creativecommons.org/ns#" xmlns:rdf="http://www.w3.org/1999/02/22-rdf-syntax-ns#">
   <cc:Work>
    <dc:type rdf:resource="http://purl.org/dc/dcmitype/StillImage"/>
    <dc:date>2024-12-16T21:16:52.665429</dc:date>
    <dc:format>image/svg+xml</dc:format>
    <dc:creator>
     <cc:Agent>
      <dc:title>Matplotlib v3.9.2, https://matplotlib.org/</dc:title>
     </cc:Agent>
    </dc:creator>
   </cc:Work>
  </rdf:RDF>
 </metadata>
 <defs>
  <style type="text/css">*{stroke-linejoin: round; stroke-linecap: butt}</style>
 </defs>
 <g id="figure_1">
  <g id="patch_1">
   <path d="M 0 345.6 
L 460.8 345.6 
L 460.8 0 
L 0 0 
z
" style="fill: #ffffff"/>
  </g>
  <g id="axes_1">
   <g id="patch_2">
    <path d="M 57.6 307.584 
L 414.72 307.584 
L 414.72 41.472 
L 57.6 41.472 
z
" style="fill: #ffffff"/>
   </g>
   <g id="matplotlib.axis_1">
    <g id="xtick_1">
     <g id="line2d_1">
      <defs>
       <path id="m789bc3162a" d="M 0 0 
L 0 3.5 
" style="stroke: #000000; stroke-width: 0.8"/>
      </defs>
      <g>
       <use xlink:href="#m789bc3162a" x="110.69216" y="307.584" style="stroke: #000000; stroke-width: 0.8"/>
      </g>
     </g>
     <g id="text_1">
      <!-- $\mathdefault{10^{1}}$ -->
      <g transform="translate(101.89216 322.182437) scale(0.1 -0.1)">
       <defs>
        <path id="DejaVuSans-31" d="M 794 531 
L 1825 531 
L 1825 4091 
L 703 3866 
L 703 4441 
L 1819 4666 
L 2450 4666 
L 2450 531 
L 3481 531 
L 3481 0 
L 794 0 
L 794 531 
z
" transform="scale(0.015625)"/>
        <path id="DejaVuSans-30" d="M 2034 4250 
Q 1547 4250 1301 3770 
Q 1056 3291 1056 2328 
Q 1056 1369 1301 889 
Q 1547 409 2034 409 
Q 2525 409 2770 889 
Q 3016 1369 3016 2328 
Q 3016 3291 2770 3770 
Q 2525 4250 2034 4250 
z
M 2034 4750 
Q 2819 4750 3233 4129 
Q 3647 3509 3647 2328 
Q 3647 1150 3233 529 
Q 2819 -91 2034 -91 
Q 1250 -91 836 529 
Q 422 1150 422 2328 
Q 422 3509 836 4129 
Q 1250 4750 2034 4750 
z
" transform="scale(0.015625)"/>
       </defs>
       <use xlink:href="#DejaVuSans-31" transform="translate(0 0.684375)"/>
       <use xlink:href="#DejaVuSans-30" transform="translate(63.623047 0.684375)"/>
       <use xlink:href="#DejaVuSans-31" transform="translate(128.203125 38.965625) scale(0.7)"/>
      </g>
     </g>
    </g>
    <g id="xtick_2">
     <g id="line2d_2">
      <g>
       <use xlink:href="#m789bc3162a" x="182.640938" y="307.584" style="stroke: #000000; stroke-width: 0.8"/>
      </g>
     </g>
     <g id="text_2">
      <!-- $\mathdefault{10^{2}}$ -->
      <g transform="translate(173.840938 322.182437) scale(0.1 -0.1)">
       <defs>
        <path id="DejaVuSans-32" d="M 1228 531 
L 3431 531 
L 3431 0 
L 469 0 
L 469 531 
Q 828 903 1448 1529 
Q 2069 2156 2228 2338 
Q 2531 2678 2651 2914 
Q 2772 3150 2772 3378 
Q 2772 3750 2511 3984 
Q 2250 4219 1831 4219 
Q 1534 4219 1204 4116 
Q 875 4013 500 3803 
L 500 4441 
Q 881 4594 1212 4672 
Q 1544 4750 1819 4750 
Q 2544 4750 2975 4387 
Q 3406 4025 3406 3419 
Q 3406 3131 3298 2873 
Q 3191 2616 2906 2266 
Q 2828 2175 2409 1742 
Q 1991 1309 1228 531 
z
" transform="scale(0.015625)"/>
       </defs>
       <use xlink:href="#DejaVuSans-31" transform="translate(0 0.765625)"/>
       <use xlink:href="#DejaVuSans-30" transform="translate(63.623047 0.765625)"/>
       <use xlink:href="#DejaVuSans-32" transform="translate(128.203125 39.046875) scale(0.7)"/>
      </g>
     </g>
    </g>
    <g id="xtick_3">
     <g id="line2d_3">
      <g>
       <use xlink:href="#m789bc3162a" x="254.589716" y="307.584" style="stroke: #000000; stroke-width: 0.8"/>
      </g>
     </g>
     <g id="text_3">
      <!-- $\mathdefault{10^{3}}$ -->
      <g transform="translate(245.789716 322.182437) scale(0.1 -0.1)">
       <defs>
        <path id="DejaVuSans-33" d="M 2597 2516 
Q 3050 2419 3304 2112 
Q 3559 1806 3559 1356 
Q 3559 666 3084 287 
Q 2609 -91 1734 -91 
Q 1441 -91 1130 -33 
Q 819 25 488 141 
L 488 750 
Q 750 597 1062 519 
Q 1375 441 1716 441 
Q 2309 441 2620 675 
Q 2931 909 2931 1356 
Q 2931 1769 2642 2001 
Q 2353 2234 1838 2234 
L 1294 2234 
L 1294 2753 
L 1863 2753 
Q 2328 2753 2575 2939 
Q 2822 3125 2822 3475 
Q 2822 3834 2567 4026 
Q 2313 4219 1838 4219 
Q 1578 4219 1281 4162 
Q 984 4106 628 3988 
L 628 4550 
Q 988 4650 1302 4700 
Q 1616 4750 1894 4750 
Q 2613 4750 3031 4423 
Q 3450 4097 3450 3541 
Q 3450 3153 3228 2886 
Q 3006 2619 2597 2516 
z
" transform="scale(0.015625)"/>
       </defs>
       <use xlink:href="#DejaVuSans-31" transform="translate(0 0.765625)"/>
       <use xlink:href="#DejaVuSans-30" transform="translate(63.623047 0.765625)"/>
       <use xlink:href="#DejaVuSans-33" transform="translate(128.203125 39.046875) scale(0.7)"/>
      </g>
     </g>
    </g>
    <g id="xtick_4">
     <g id="line2d_4">
      <g>
       <use xlink:href="#m789bc3162a" x="326.538495" y="307.584" style="stroke: #000000; stroke-width: 0.8"/>
      </g>
     </g>
     <g id="text_4">
      <!-- $\mathdefault{10^{4}}$ -->
      <g transform="translate(317.738495 322.182437) scale(0.1 -0.1)">
       <defs>
        <path id="DejaVuSans-34" d="M 2419 4116 
L 825 1625 
L 2419 1625 
L 2419 4116 
z
M 2253 4666 
L 3047 4666 
L 3047 1625 
L 3713 1625 
L 3713 1100 
L 3047 1100 
L 3047 0 
L 2419 0 
L 2419 1100 
L 313 1100 
L 313 1709 
L 2253 4666 
z
" transform="scale(0.015625)"/>
       </defs>
       <use xlink:href="#DejaVuSans-31" transform="translate(0 0.684375)"/>
       <use xlink:href="#DejaVuSans-30" transform="translate(63.623047 0.684375)"/>
       <use xlink:href="#DejaVuSans-34" transform="translate(128.203125 38.965625) scale(0.7)"/>
      </g>
     </g>
    </g>
    <g id="xtick_5">
     <g id="line2d_5">
      <g>
       <use xlink:href="#m789bc3162a" x="398.487273" y="307.584" style="stroke: #000000; stroke-width: 0.8"/>
      </g>
     </g>
     <g id="text_5">
      <!-- $\mathdefault{10^{5}}$ -->
      <g transform="translate(389.687273 322.182437) scale(0.1 -0.1)">
       <defs>
        <path id="DejaVuSans-35" d="M 691 4666 
L 3169 4666 
L 3169 4134 
L 1269 4134 
L 1269 2991 
Q 1406 3038 1543 3061 
Q 1681 3084 1819 3084 
Q 2600 3084 3056 2656 
Q 3513 2228 3513 1497 
Q 3513 744 3044 326 
Q 2575 -91 1722 -91 
Q 1428 -91 1123 -41 
Q 819 9 494 109 
L 494 744 
Q 775 591 1075 516 
Q 1375 441 1709 441 
Q 2250 441 2565 725 
Q 2881 1009 2881 1497 
Q 2881 1984 2565 2268 
Q 2250 2553 1709 2553 
Q 1456 2553 1204 2497 
Q 953 2441 691 2322 
L 691 4666 
z
" transform="scale(0.015625)"/>
       </defs>
       <use xlink:href="#DejaVuSans-31" transform="translate(0 0.684375)"/>
       <use xlink:href="#DejaVuSans-30" transform="translate(63.623047 0.684375)"/>
       <use xlink:href="#DejaVuSans-35" transform="translate(128.203125 38.965625) scale(0.7)"/>
      </g>
     </g>
    </g>
    <g id="xtick_6">
     <g id="line2d_6">
      <defs>
       <path id="mefe7340ad5" d="M 0 0 
L 0 2 
" style="stroke: #000000; stroke-width: 0.6"/>
      </defs>
      <g>
       <use xlink:href="#mefe7340ad5" x="60.402122" y="307.584" style="stroke: #000000; stroke-width: 0.6"/>
      </g>
     </g>
    </g>
    <g id="xtick_7">
     <g id="line2d_7">
      <g>
       <use xlink:href="#mefe7340ad5" x="73.071673" y="307.584" style="stroke: #000000; stroke-width: 0.6"/>
      </g>
     </g>
    </g>
    <g id="xtick_8">
     <g id="line2d_8">
      <g>
       <use xlink:href="#mefe7340ad5" x="82.060863" y="307.584" style="stroke: #000000; stroke-width: 0.6"/>
      </g>
     </g>
    </g>
    <g id="xtick_9">
     <g id="line2d_9">
      <g>
       <use xlink:href="#mefe7340ad5" x="89.03342" y="307.584" style="stroke: #000000; stroke-width: 0.6"/>
      </g>
     </g>
    </g>
    <g id="xtick_10">
     <g id="line2d_10">
      <g>
       <use xlink:href="#mefe7340ad5" x="94.730413" y="307.584" style="stroke: #000000; stroke-width: 0.6"/>
      </g>
     </g>
    </g>
    <g id="xtick_11">
     <g id="line2d_11">
      <g>
       <use xlink:href="#mefe7340ad5" x="99.547153" y="307.584" style="stroke: #000000; stroke-width: 0.6"/>
      </g>
     </g>
    </g>
    <g id="xtick_12">
     <g id="line2d_12">
      <g>
       <use xlink:href="#mefe7340ad5" x="103.719603" y="307.584" style="stroke: #000000; stroke-width: 0.6"/>
      </g>
     </g>
    </g>
    <g id="xtick_13">
     <g id="line2d_13">
      <g>
       <use xlink:href="#mefe7340ad5" x="107.399964" y="307.584" style="stroke: #000000; stroke-width: 0.6"/>
      </g>
     </g>
    </g>
    <g id="xtick_14">
     <g id="line2d_14">
      <g>
       <use xlink:href="#mefe7340ad5" x="132.3509" y="307.584" style="stroke: #000000; stroke-width: 0.6"/>
      </g>
     </g>
    </g>
    <g id="xtick_15">
     <g id="line2d_15">
      <g>
       <use xlink:href="#mefe7340ad5" x="145.020451" y="307.584" style="stroke: #000000; stroke-width: 0.6"/>
      </g>
     </g>
    </g>
    <g id="xtick_16">
     <g id="line2d_16">
      <g>
       <use xlink:href="#mefe7340ad5" x="154.009641" y="307.584" style="stroke: #000000; stroke-width: 0.6"/>
      </g>
     </g>
    </g>
    <g id="xtick_17">
     <g id="line2d_17">
      <g>
       <use xlink:href="#mefe7340ad5" x="160.982198" y="307.584" style="stroke: #000000; stroke-width: 0.6"/>
      </g>
     </g>
    </g>
    <g id="xtick_18">
     <g id="line2d_18">
      <g>
       <use xlink:href="#mefe7340ad5" x="166.679192" y="307.584" style="stroke: #000000; stroke-width: 0.6"/>
      </g>
     </g>
    </g>
    <g id="xtick_19">
     <g id="line2d_19">
      <g>
       <use xlink:href="#mefe7340ad5" x="171.495931" y="307.584" style="stroke: #000000; stroke-width: 0.6"/>
      </g>
     </g>
    </g>
    <g id="xtick_20">
     <g id="line2d_20">
      <g>
       <use xlink:href="#mefe7340ad5" x="175.668381" y="307.584" style="stroke: #000000; stroke-width: 0.6"/>
      </g>
     </g>
    </g>
    <g id="xtick_21">
     <g id="line2d_21">
      <g>
       <use xlink:href="#mefe7340ad5" x="179.348743" y="307.584" style="stroke: #000000; stroke-width: 0.6"/>
      </g>
     </g>
    </g>
    <g id="xtick_22">
     <g id="line2d_22">
      <g>
       <use xlink:href="#mefe7340ad5" x="204.299679" y="307.584" style="stroke: #000000; stroke-width: 0.6"/>
      </g>
     </g>
    </g>
    <g id="xtick_23">
     <g id="line2d_23">
      <g>
       <use xlink:href="#mefe7340ad5" x="216.969229" y="307.584" style="stroke: #000000; stroke-width: 0.6"/>
      </g>
     </g>
    </g>
    <g id="xtick_24">
     <g id="line2d_24">
      <g>
       <use xlink:href="#mefe7340ad5" x="225.958419" y="307.584" style="stroke: #000000; stroke-width: 0.6"/>
      </g>
     </g>
    </g>
    <g id="xtick_25">
     <g id="line2d_25">
      <g>
       <use xlink:href="#mefe7340ad5" x="232.930976" y="307.584" style="stroke: #000000; stroke-width: 0.6"/>
      </g>
     </g>
    </g>
    <g id="xtick_26">
     <g id="line2d_26">
      <g>
       <use xlink:href="#mefe7340ad5" x="238.62797" y="307.584" style="stroke: #000000; stroke-width: 0.6"/>
      </g>
     </g>
    </g>
    <g id="xtick_27">
     <g id="line2d_27">
      <g>
       <use xlink:href="#mefe7340ad5" x="243.44471" y="307.584" style="stroke: #000000; stroke-width: 0.6"/>
      </g>
     </g>
    </g>
    <g id="xtick_28">
     <g id="line2d_28">
      <g>
       <use xlink:href="#mefe7340ad5" x="247.617159" y="307.584" style="stroke: #000000; stroke-width: 0.6"/>
      </g>
     </g>
    </g>
    <g id="xtick_29">
     <g id="line2d_29">
      <g>
       <use xlink:href="#mefe7340ad5" x="251.297521" y="307.584" style="stroke: #000000; stroke-width: 0.6"/>
      </g>
     </g>
    </g>
    <g id="xtick_30">
     <g id="line2d_30">
      <g>
       <use xlink:href="#mefe7340ad5" x="276.248457" y="307.584" style="stroke: #000000; stroke-width: 0.6"/>
      </g>
     </g>
    </g>
    <g id="xtick_31">
     <g id="line2d_31">
      <g>
       <use xlink:href="#mefe7340ad5" x="288.918008" y="307.584" style="stroke: #000000; stroke-width: 0.6"/>
      </g>
     </g>
    </g>
    <g id="xtick_32">
     <g id="line2d_32">
      <g>
       <use xlink:href="#mefe7340ad5" x="297.907197" y="307.584" style="stroke: #000000; stroke-width: 0.6"/>
      </g>
     </g>
    </g>
    <g id="xtick_33">
     <g id="line2d_33">
      <g>
       <use xlink:href="#mefe7340ad5" x="304.879754" y="307.584" style="stroke: #000000; stroke-width: 0.6"/>
      </g>
     </g>
    </g>
    <g id="xtick_34">
     <g id="line2d_34">
      <g>
       <use xlink:href="#mefe7340ad5" x="310.576748" y="307.584" style="stroke: #000000; stroke-width: 0.6"/>
      </g>
     </g>
    </g>
    <g id="xtick_35">
     <g id="line2d_35">
      <g>
       <use xlink:href="#mefe7340ad5" x="315.393488" y="307.584" style="stroke: #000000; stroke-width: 0.6"/>
      </g>
     </g>
    </g>
    <g id="xtick_36">
     <g id="line2d_36">
      <g>
       <use xlink:href="#mefe7340ad5" x="319.565938" y="307.584" style="stroke: #000000; stroke-width: 0.6"/>
      </g>
     </g>
    </g>
    <g id="xtick_37">
     <g id="line2d_37">
      <g>
       <use xlink:href="#mefe7340ad5" x="323.246299" y="307.584" style="stroke: #000000; stroke-width: 0.6"/>
      </g>
     </g>
    </g>
    <g id="xtick_38">
     <g id="line2d_38">
      <g>
       <use xlink:href="#mefe7340ad5" x="348.197235" y="307.584" style="stroke: #000000; stroke-width: 0.6"/>
      </g>
     </g>
    </g>
    <g id="xtick_39">
     <g id="line2d_39">
      <g>
       <use xlink:href="#mefe7340ad5" x="360.866786" y="307.584" style="stroke: #000000; stroke-width: 0.6"/>
      </g>
     </g>
    </g>
    <g id="xtick_40">
     <g id="line2d_40">
      <g>
       <use xlink:href="#mefe7340ad5" x="369.855975" y="307.584" style="stroke: #000000; stroke-width: 0.6"/>
      </g>
     </g>
    </g>
    <g id="xtick_41">
     <g id="line2d_41">
      <g>
       <use xlink:href="#mefe7340ad5" x="376.828532" y="307.584" style="stroke: #000000; stroke-width: 0.6"/>
      </g>
     </g>
    </g>
    <g id="xtick_42">
     <g id="line2d_42">
      <g>
       <use xlink:href="#mefe7340ad5" x="382.525526" y="307.584" style="stroke: #000000; stroke-width: 0.6"/>
      </g>
     </g>
    </g>
    <g id="xtick_43">
     <g id="line2d_43">
      <g>
       <use xlink:href="#mefe7340ad5" x="387.342266" y="307.584" style="stroke: #000000; stroke-width: 0.6"/>
      </g>
     </g>
    </g>
    <g id="xtick_44">
     <g id="line2d_44">
      <g>
       <use xlink:href="#mefe7340ad5" x="391.514716" y="307.584" style="stroke: #000000; stroke-width: 0.6"/>
      </g>
     </g>
    </g>
    <g id="xtick_45">
     <g id="line2d_45">
      <g>
       <use xlink:href="#mefe7340ad5" x="395.195077" y="307.584" style="stroke: #000000; stroke-width: 0.6"/>
      </g>
     </g>
    </g>
    <g id="text_6">
     <!-- Frequency [rad/s] -->
     <g transform="translate(192.256875 335.860562) scale(0.1 -0.1)">
      <defs>
       <path id="DejaVuSans-46" d="M 628 4666 
L 3309 4666 
L 3309 4134 
L 1259 4134 
L 1259 2759 
L 3109 2759 
L 3109 2228 
L 1259 2228 
L 1259 0 
L 628 0 
L 628 4666 
z
" transform="scale(0.015625)"/>
       <path id="DejaVuSans-72" d="M 2631 2963 
Q 2534 3019 2420 3045 
Q 2306 3072 2169 3072 
Q 1681 3072 1420 2755 
Q 1159 2438 1159 1844 
L 1159 0 
L 581 0 
L 581 3500 
L 1159 3500 
L 1159 2956 
Q 1341 3275 1631 3429 
Q 1922 3584 2338 3584 
Q 2397 3584 2469 3576 
Q 2541 3569 2628 3553 
L 2631 2963 
z
" transform="scale(0.015625)"/>
       <path id="DejaVuSans-65" d="M 3597 1894 
L 3597 1613 
L 953 1613 
Q 991 1019 1311 708 
Q 1631 397 2203 397 
Q 2534 397 2845 478 
Q 3156 559 3463 722 
L 3463 178 
Q 3153 47 2828 -22 
Q 2503 -91 2169 -91 
Q 1331 -91 842 396 
Q 353 884 353 1716 
Q 353 2575 817 3079 
Q 1281 3584 2069 3584 
Q 2775 3584 3186 3129 
Q 3597 2675 3597 1894 
z
M 3022 2063 
Q 3016 2534 2758 2815 
Q 2500 3097 2075 3097 
Q 1594 3097 1305 2825 
Q 1016 2553 972 2059 
L 3022 2063 
z
" transform="scale(0.015625)"/>
       <path id="DejaVuSans-71" d="M 947 1747 
Q 947 1113 1208 752 
Q 1469 391 1925 391 
Q 2381 391 2643 752 
Q 2906 1113 2906 1747 
Q 2906 2381 2643 2742 
Q 2381 3103 1925 3103 
Q 1469 3103 1208 2742 
Q 947 2381 947 1747 
z
M 2906 525 
Q 2725 213 2448 61 
Q 2172 -91 1784 -91 
Q 1150 -91 751 415 
Q 353 922 353 1747 
Q 353 2572 751 3078 
Q 1150 3584 1784 3584 
Q 2172 3584 2448 3432 
Q 2725 3281 2906 2969 
L 2906 3500 
L 3481 3500 
L 3481 -1331 
L 2906 -1331 
L 2906 525 
z
" transform="scale(0.015625)"/>
       <path id="DejaVuSans-75" d="M 544 1381 
L 544 3500 
L 1119 3500 
L 1119 1403 
Q 1119 906 1312 657 
Q 1506 409 1894 409 
Q 2359 409 2629 706 
Q 2900 1003 2900 1516 
L 2900 3500 
L 3475 3500 
L 3475 0 
L 2900 0 
L 2900 538 
Q 2691 219 2414 64 
Q 2138 -91 1772 -91 
Q 1169 -91 856 284 
Q 544 659 544 1381 
z
M 1991 3584 
L 1991 3584 
z
" transform="scale(0.015625)"/>
       <path id="DejaVuSans-6e" d="M 3513 2113 
L 3513 0 
L 2938 0 
L 2938 2094 
Q 2938 2591 2744 2837 
Q 2550 3084 2163 3084 
Q 1697 3084 1428 2787 
Q 1159 2491 1159 1978 
L 1159 0 
L 581 0 
L 581 3500 
L 1159 3500 
L 1159 2956 
Q 1366 3272 1645 3428 
Q 1925 3584 2291 3584 
Q 2894 3584 3203 3211 
Q 3513 2838 3513 2113 
z
" transform="scale(0.015625)"/>
       <path id="DejaVuSans-63" d="M 3122 3366 
L 3122 2828 
Q 2878 2963 2633 3030 
Q 2388 3097 2138 3097 
Q 1578 3097 1268 2742 
Q 959 2388 959 1747 
Q 959 1106 1268 751 
Q 1578 397 2138 397 
Q 2388 397 2633 464 
Q 2878 531 3122 666 
L 3122 134 
Q 2881 22 2623 -34 
Q 2366 -91 2075 -91 
Q 1284 -91 818 406 
Q 353 903 353 1747 
Q 353 2603 823 3093 
Q 1294 3584 2113 3584 
Q 2378 3584 2631 3529 
Q 2884 3475 3122 3366 
z
" transform="scale(0.015625)"/>
       <path id="DejaVuSans-79" d="M 2059 -325 
Q 1816 -950 1584 -1140 
Q 1353 -1331 966 -1331 
L 506 -1331 
L 506 -850 
L 844 -850 
Q 1081 -850 1212 -737 
Q 1344 -625 1503 -206 
L 1606 56 
L 191 3500 
L 800 3500 
L 1894 763 
L 2988 3500 
L 3597 3500 
L 2059 -325 
z
" transform="scale(0.015625)"/>
       <path id="DejaVuSans-20" transform="scale(0.015625)"/>
       <path id="DejaVuSans-5b" d="M 550 4863 
L 1875 4863 
L 1875 4416 
L 1125 4416 
L 1125 -397 
L 1875 -397 
L 1875 -844 
L 550 -844 
L 550 4863 
z
" transform="scale(0.015625)"/>
       <path id="DejaVuSans-61" d="M 2194 1759 
Q 1497 1759 1228 1600 
Q 959 1441 959 1056 
Q 959 750 1161 570 
Q 1363 391 1709 391 
Q 2188 391 2477 730 
Q 2766 1069 2766 1631 
L 2766 1759 
L 2194 1759 
z
M 3341 1997 
L 3341 0 
L 2766 0 
L 2766 531 
Q 2569 213 2275 61 
Q 1981 -91 1556 -91 
Q 1019 -91 701 211 
Q 384 513 384 1019 
Q 384 1609 779 1909 
Q 1175 2209 1959 2209 
L 2766 2209 
L 2766 2266 
Q 2766 2663 2505 2880 
Q 2244 3097 1772 3097 
Q 1472 3097 1187 3025 
Q 903 2953 641 2809 
L 641 3341 
Q 956 3463 1253 3523 
Q 1550 3584 1831 3584 
Q 2591 3584 2966 3190 
Q 3341 2797 3341 1997 
z
" transform="scale(0.015625)"/>
       <path id="DejaVuSans-64" d="M 2906 2969 
L 2906 4863 
L 3481 4863 
L 3481 0 
L 2906 0 
L 2906 525 
Q 2725 213 2448 61 
Q 2172 -91 1784 -91 
Q 1150 -91 751 415 
Q 353 922 353 1747 
Q 353 2572 751 3078 
Q 1150 3584 1784 3584 
Q 2172 3584 2448 3432 
Q 2725 3281 2906 2969 
z
M 947 1747 
Q 947 1113 1208 752 
Q 1469 391 1925 391 
Q 2381 391 2643 752 
Q 2906 1113 2906 1747 
Q 2906 2381 2643 2742 
Q 2381 3103 1925 3103 
Q 1469 3103 1208 2742 
Q 947 2381 947 1747 
z
" transform="scale(0.015625)"/>
       <path id="DejaVuSans-2f" d="M 1625 4666 
L 2156 4666 
L 531 -594 
L 0 -594 
L 1625 4666 
z
" transform="scale(0.015625)"/>
       <path id="DejaVuSans-73" d="M 2834 3397 
L 2834 2853 
Q 2591 2978 2328 3040 
Q 2066 3103 1784 3103 
Q 1356 3103 1142 2972 
Q 928 2841 928 2578 
Q 928 2378 1081 2264 
Q 1234 2150 1697 2047 
L 1894 2003 
Q 2506 1872 2764 1633 
Q 3022 1394 3022 966 
Q 3022 478 2636 193 
Q 2250 -91 1575 -91 
Q 1294 -91 989 -36 
Q 684 19 347 128 
L 347 722 
Q 666 556 975 473 
Q 1284 391 1588 391 
Q 1994 391 2212 530 
Q 2431 669 2431 922 
Q 2431 1156 2273 1281 
Q 2116 1406 1581 1522 
L 1381 1569 
Q 847 1681 609 1914 
Q 372 2147 372 2553 
Q 372 3047 722 3315 
Q 1072 3584 1716 3584 
Q 2034 3584 2315 3537 
Q 2597 3491 2834 3397 
z
" transform="scale(0.015625)"/>
       <path id="DejaVuSans-5d" d="M 1947 4863 
L 1947 -844 
L 622 -844 
L 622 -397 
L 1369 -397 
L 1369 4416 
L 622 4416 
L 622 4863 
L 1947 4863 
z
" transform="scale(0.015625)"/>
      </defs>
      <use xlink:href="#DejaVuSans-46"/>
      <use xlink:href="#DejaVuSans-72" x="50.269531"/>
      <use xlink:href="#DejaVuSans-65" x="89.132812"/>
      <use xlink:href="#DejaVuSans-71" x="150.65625"/>
      <use xlink:href="#DejaVuSans-75" x="214.132812"/>
      <use xlink:href="#DejaVuSans-65" x="277.511719"/>
      <use xlink:href="#DejaVuSans-6e" x="339.035156"/>
      <use xlink:href="#DejaVuSans-63" x="402.414062"/>
      <use xlink:href="#DejaVuSans-79" x="457.394531"/>
      <use xlink:href="#DejaVuSans-20" x="516.574219"/>
      <use xlink:href="#DejaVuSans-5b" x="548.361328"/>
      <use xlink:href="#DejaVuSans-72" x="587.375"/>
      <use xlink:href="#DejaVuSans-61" x="628.488281"/>
      <use xlink:href="#DejaVuSans-64" x="689.767578"/>
      <use xlink:href="#DejaVuSans-2f" x="753.244141"/>
      <use xlink:href="#DejaVuSans-73" x="786.935547"/>
      <use xlink:href="#DejaVuSans-5d" x="839.035156"/>
     </g>
    </g>
   </g>
   <g id="matplotlib.axis_2">
    <g id="ytick_1">
     <g id="line2d_46">
      <defs>
       <path id="m76462fe33c" d="M 0 0 
L -3.5 0 
" style="stroke: #000000; stroke-width: 0.8"/>
      </defs>
      <g>
       <use xlink:href="#m76462fe33c" x="57.6" y="286.427471" style="stroke: #000000; stroke-width: 0.8"/>
      </g>
     </g>
     <g id="text_7">
      <!-- −80 -->
      <g transform="translate(29.495313 290.22669) scale(0.1 -0.1)">
       <defs>
        <path id="DejaVuSans-2212" d="M 678 2272 
L 4684 2272 
L 4684 1741 
L 678 1741 
L 678 2272 
z
" transform="scale(0.015625)"/>
        <path id="DejaVuSans-38" d="M 2034 2216 
Q 1584 2216 1326 1975 
Q 1069 1734 1069 1313 
Q 1069 891 1326 650 
Q 1584 409 2034 409 
Q 2484 409 2743 651 
Q 3003 894 3003 1313 
Q 3003 1734 2745 1975 
Q 2488 2216 2034 2216 
z
M 1403 2484 
Q 997 2584 770 2862 
Q 544 3141 544 3541 
Q 544 4100 942 4425 
Q 1341 4750 2034 4750 
Q 2731 4750 3128 4425 
Q 3525 4100 3525 3541 
Q 3525 3141 3298 2862 
Q 3072 2584 2669 2484 
Q 3125 2378 3379 2068 
Q 3634 1759 3634 1313 
Q 3634 634 3220 271 
Q 2806 -91 2034 -91 
Q 1263 -91 848 271 
Q 434 634 434 1313 
Q 434 1759 690 2068 
Q 947 2378 1403 2484 
z
M 1172 3481 
Q 1172 3119 1398 2916 
Q 1625 2713 2034 2713 
Q 2441 2713 2670 2916 
Q 2900 3119 2900 3481 
Q 2900 3844 2670 4047 
Q 2441 4250 2034 4250 
Q 1625 4250 1398 4047 
Q 1172 3844 1172 3481 
z
" transform="scale(0.015625)"/>
       </defs>
       <use xlink:href="#DejaVuSans-2212"/>
       <use xlink:href="#DejaVuSans-38" x="83.789062"/>
       <use xlink:href="#DejaVuSans-30" x="147.412109"/>
      </g>
     </g>
    </g>
    <g id="ytick_2">
     <g id="line2d_47">
      <g>
       <use xlink:href="#m76462fe33c" x="57.6" y="232.162231" style="stroke: #000000; stroke-width: 0.8"/>
      </g>
     </g>
     <g id="text_8">
      <!-- −60 -->
      <g transform="translate(29.495313 235.96145) scale(0.1 -0.1)">
       <defs>
        <path id="DejaVuSans-36" d="M 2113 2584 
Q 1688 2584 1439 2293 
Q 1191 2003 1191 1497 
Q 1191 994 1439 701 
Q 1688 409 2113 409 
Q 2538 409 2786 701 
Q 3034 994 3034 1497 
Q 3034 2003 2786 2293 
Q 2538 2584 2113 2584 
z
M 3366 4563 
L 3366 3988 
Q 3128 4100 2886 4159 
Q 2644 4219 2406 4219 
Q 1781 4219 1451 3797 
Q 1122 3375 1075 2522 
Q 1259 2794 1537 2939 
Q 1816 3084 2150 3084 
Q 2853 3084 3261 2657 
Q 3669 2231 3669 1497 
Q 3669 778 3244 343 
Q 2819 -91 2113 -91 
Q 1303 -91 875 529 
Q 447 1150 447 2328 
Q 447 3434 972 4092 
Q 1497 4750 2381 4750 
Q 2619 4750 2861 4703 
Q 3103 4656 3366 4563 
z
" transform="scale(0.015625)"/>
       </defs>
       <use xlink:href="#DejaVuSans-2212"/>
       <use xlink:href="#DejaVuSans-36" x="83.789062"/>
       <use xlink:href="#DejaVuSans-30" x="147.412109"/>
      </g>
     </g>
    </g>
    <g id="ytick_3">
     <g id="line2d_48">
      <g>
       <use xlink:href="#m76462fe33c" x="57.6" y="177.896991" style="stroke: #000000; stroke-width: 0.8"/>
      </g>
     </g>
     <g id="text_9">
      <!-- −40 -->
      <g transform="translate(29.495313 181.696209) scale(0.1 -0.1)">
       <use xlink:href="#DejaVuSans-2212"/>
       <use xlink:href="#DejaVuSans-34" x="83.789062"/>
       <use xlink:href="#DejaVuSans-30" x="147.412109"/>
      </g>
     </g>
    </g>
    <g id="ytick_4">
     <g id="line2d_49">
      <g>
       <use xlink:href="#m76462fe33c" x="57.6" y="123.63175" style="stroke: #000000; stroke-width: 0.8"/>
      </g>
     </g>
     <g id="text_10">
      <!-- −20 -->
      <g transform="translate(29.495313 127.430969) scale(0.1 -0.1)">
       <use xlink:href="#DejaVuSans-2212"/>
       <use xlink:href="#DejaVuSans-32" x="83.789062"/>
       <use xlink:href="#DejaVuSans-30" x="147.412109"/>
      </g>
     </g>
    </g>
    <g id="ytick_5">
     <g id="line2d_50">
      <g>
       <use xlink:href="#m76462fe33c" x="57.6" y="69.36651" style="stroke: #000000; stroke-width: 0.8"/>
      </g>
     </g>
     <g id="text_11">
      <!-- 0 -->
      <g transform="translate(44.2375 73.165729) scale(0.1 -0.1)">
       <use xlink:href="#DejaVuSans-30"/>
      </g>
     </g>
    </g>
    <g id="text_12">
     <!-- Magnitude [dB] -->
     <g transform="translate(23.415625 213.113156) rotate(-90) scale(0.1 -0.1)">
      <defs>
       <path id="DejaVuSans-4d" d="M 628 4666 
L 1569 4666 
L 2759 1491 
L 3956 4666 
L 4897 4666 
L 4897 0 
L 4281 0 
L 4281 4097 
L 3078 897 
L 2444 897 
L 1241 4097 
L 1241 0 
L 628 0 
L 628 4666 
z
" transform="scale(0.015625)"/>
       <path id="DejaVuSans-67" d="M 2906 1791 
Q 2906 2416 2648 2759 
Q 2391 3103 1925 3103 
Q 1463 3103 1205 2759 
Q 947 2416 947 1791 
Q 947 1169 1205 825 
Q 1463 481 1925 481 
Q 2391 481 2648 825 
Q 2906 1169 2906 1791 
z
M 3481 434 
Q 3481 -459 3084 -895 
Q 2688 -1331 1869 -1331 
Q 1566 -1331 1297 -1286 
Q 1028 -1241 775 -1147 
L 775 -588 
Q 1028 -725 1275 -790 
Q 1522 -856 1778 -856 
Q 2344 -856 2625 -561 
Q 2906 -266 2906 331 
L 2906 616 
Q 2728 306 2450 153 
Q 2172 0 1784 0 
Q 1141 0 747 490 
Q 353 981 353 1791 
Q 353 2603 747 3093 
Q 1141 3584 1784 3584 
Q 2172 3584 2450 3431 
Q 2728 3278 2906 2969 
L 2906 3500 
L 3481 3500 
L 3481 434 
z
" transform="scale(0.015625)"/>
       <path id="DejaVuSans-69" d="M 603 3500 
L 1178 3500 
L 1178 0 
L 603 0 
L 603 3500 
z
M 603 4863 
L 1178 4863 
L 1178 4134 
L 603 4134 
L 603 4863 
z
" transform="scale(0.015625)"/>
       <path id="DejaVuSans-74" d="M 1172 4494 
L 1172 3500 
L 2356 3500 
L 2356 3053 
L 1172 3053 
L 1172 1153 
Q 1172 725 1289 603 
Q 1406 481 1766 481 
L 2356 481 
L 2356 0 
L 1766 0 
Q 1100 0 847 248 
Q 594 497 594 1153 
L 594 3053 
L 172 3053 
L 172 3500 
L 594 3500 
L 594 4494 
L 1172 4494 
z
" transform="scale(0.015625)"/>
       <path id="DejaVuSans-42" d="M 1259 2228 
L 1259 519 
L 2272 519 
Q 2781 519 3026 730 
Q 3272 941 3272 1375 
Q 3272 1813 3026 2020 
Q 2781 2228 2272 2228 
L 1259 2228 
z
M 1259 4147 
L 1259 2741 
L 2194 2741 
Q 2656 2741 2882 2914 
Q 3109 3088 3109 3444 
Q 3109 3797 2882 3972 
Q 2656 4147 2194 4147 
L 1259 4147 
z
M 628 4666 
L 2241 4666 
Q 2963 4666 3353 4366 
Q 3744 4066 3744 3513 
Q 3744 3084 3544 2831 
Q 3344 2578 2956 2516 
Q 3422 2416 3680 2098 
Q 3938 1781 3938 1306 
Q 3938 681 3513 340 
Q 3088 0 2303 0 
L 628 0 
L 628 4666 
z
" transform="scale(0.015625)"/>
      </defs>
      <use xlink:href="#DejaVuSans-4d"/>
      <use xlink:href="#DejaVuSans-61" x="86.279297"/>
      <use xlink:href="#DejaVuSans-67" x="147.558594"/>
      <use xlink:href="#DejaVuSans-6e" x="211.035156"/>
      <use xlink:href="#DejaVuSans-69" x="274.414062"/>
      <use xlink:href="#DejaVuSans-74" x="302.197266"/>
      <use xlink:href="#DejaVuSans-75" x="341.40625"/>
      <use xlink:href="#DejaVuSans-64" x="404.785156"/>
      <use xlink:href="#DejaVuSans-65" x="468.261719"/>
      <use xlink:href="#DejaVuSans-20" x="529.785156"/>
      <use xlink:href="#DejaVuSans-5b" x="561.572266"/>
      <use xlink:href="#DejaVuSans-64" x="600.585938"/>
      <use xlink:href="#DejaVuSans-42" x="664.0625"/>
      <use xlink:href="#DejaVuSans-5d" x="732.666016"/>
     </g>
    </g>
   </g>
   <g id="line2d_51">
    <path d="M 73.832727 53.568 
L 95.491468 69.239349 
L 108.161019 81.741863 
L 117.150208 106.825591 
L 124.122765 100.776657 
L 129.819759 107.516723 
L 134.636499 96.146948 
L 138.808948 111.410956 
L 142.598592 94.021451 
L 146.173147 124.792331 
L 149.555561 147.652554 
L 152.765321 170.107309 
L 155.819105 129.191206 
L 158.7313 178.228504 
L 161.514398 182.78355 
L 164.179313 175.307302 
L 166.735638 209.048248 
L 169.191847 195.362114 
L 171.555463 197.102331 
L 173.833192 212.415156 
L 176.031041 214.287203 
L 178.15441 184.987147 
L 180.208168 219.688374 
L 182.196726 211.399257 
L 184.124087 217.194075 
L 185.993899 246.416993 
L 187.809491 248.397337 
L 189.573916 234.005827 
L 191.289972 233.106504 
L 192.960237 240.241794 
L 194.587088 236.395817 
L 196.172721 259.938527 
L 197.71917 235.926267 
L 199.228324 235.486985 
L 200.701936 232.650587 
L 202.14164 234.197797 
L 203.548959 234.084936 
L 204.925318 234.494048 
L 206.272047 231.795013 
L 207.590394 236.08368 
L 208.88153 233.101946 
L 210.146554 233.138916 
L 211.386501 230.696282 
L 213.795004 245.173112 
L 214.965345 235.43408 
L 216.114187 228.054004 
L 217.242306 206.805178 
L 218.350435 193.084111 
L 219.439271 181.181899 
L 220.509472 172.7619 
L 221.561666 160.405535 
L 222.596449 167.512205 
L 223.614386 170.057084 
L 224.616017 155.608429 
L 225.601856 156.470243 
L 226.572393 175.487872 
L 227.528096 175.47733 
L 228.469411 181.620124 
L 229.396764 185.400169 
L 230.310564 189.889402 
L 231.211201 193.251411 
L 232.099048 197.040414 
L 232.974463 201.646318 
L 233.83779 207.399779 
L 234.689358 207.478639 
L 235.529483 206.851669 
L 237.176603 233.310093 
L 237.984171 218.952283 
L 238.78144 214.973459 
L 239.568669 213.706175 
L 240.346109 212.919904 
L 241.113998 213.35485 
L 241.87257 214.5546 
L 242.622048 214.946905 
L 243.362646 215.698678 
L 244.094573 216.075932 
L 244.81803 215.092912 
L 245.533209 216.441142 
L 246.240299 216.820454 
L 246.939481 216.75341 
L 247.630928 217.062355 
L 248.991293 216.46385 
L 249.660532 218.059186 
L 250.322682 218.230266 
L 250.977892 218.114145 
L 251.626305 218.597751 
L 252.268061 217.641898 
L 252.903295 218.631895 
L 254.154719 218.981215 
L 254.771159 219.594676 
L 255.38158 219.266045 
L 255.986097 219.480309 
L 256.584824 220.455217 
L 257.17787 220.30025 
L 257.765342 220.599395 
L 258.923977 220.551627 
L 259.495339 220.964141 
L 260.061525 221.143593 
L 260.622629 220.70889 
L 261.178741 220.460732 
L 261.729948 221.134545 
L 262.276337 221.076725 
L 262.817991 221.395355 
L 263.354992 220.886468 
L 263.887418 221.266924 
L 264.415347 220.902785 
L 264.938855 221.067307 
L 265.972896 221.11249 
L 266.483572 221.539092 
L 266.990109 222.299208 
L 267.492574 222.252799 
L 267.991031 221.803471 
L 268.761391 222.103876 
L 269.245849 224.082115 
L 269.722911 225.353265 
L 270.192799 225.957291 
L 270.655726 226.941786 
L 271.111894 224.961662 
L 271.561498 225.352965 
L 272.004725 225.99922 
L 272.441752 229.501299 
L 272.872752 231.431482 
L 273.717315 246.37815 
L 274.131188 265.543859 
L 274.539651 274.044148 
L 274.942843 266.951734 
L 275.340899 247.96154 
L 275.733948 238.615403 
L 276.122114 237.000424 
L 276.884272 229.908554 
L 277.258492 227.332105 
L 277.628283 229.032365 
L 277.993748 227.328312 
L 278.354989 226.686479 
L 278.712101 225.221362 
L 280.101083 224.51001 
L 280.438891 224.094139 
L 280.773087 224.418616 
L 281.103745 224.073617 
L 281.430942 223.975033 
L 281.754747 223.689242 
L 282.075232 223.730223 
L 282.706505 224.08874 
L 283.630127 224.349775 
L 283.932033 223.985877 
L 284.231049 224.136171 
L 284.527231 224.073209 
L 284.820632 224.493205 
L 285.399296 224.241699 
L 285.684658 224.553847 
L 285.967438 225.345594 
L 286.247681 224.692697 
L 286.525434 225.233085 
L 286.800739 224.732847 
L 287.07364 224.782534 
L 287.344178 225.460065 
L 287.612394 225.055197 
L 287.878327 225.620004 
L 288.142016 225.523783 
L 288.662811 226.725727 
L 288.919989 225.400615 
L 289.175068 225.744932 
L 289.428081 225.677878 
L 290.420131 227.672561 
L 290.663299 228.447606 
L 291.85154 237.363324 
L 292.08386 236.189101 
L 292.314466 235.764932 
L 292.770634 231.587543 
L 293.442638 228.963067 
L 293.663465 228.206314 
L 293.882743 226.880006 
L 294.531492 225.528744 
L 294.744783 225.886977 
L 294.956627 225.796442 
L 295.167045 226.345951 
L 295.376056 225.626363 
L 295.789929 226.420069 
L 295.994828 226.540513 
L 296.198392 227.369529 
L 296.400638 227.421138 
L 296.601584 228.171456 
L 296.801245 227.767858 
L 296.99964 229.296778 
L 297.196782 229.555427 
L 297.392688 229.453261 
L 297.587374 230.262477 
L 297.780854 230.567524 
L 297.973144 229.299772 
L 298.164257 228.823633 
L 298.543013 224.667917 
L 299.287023 212.301176 
L 299.833631 207.567364 
L 300.370841 204.849459 
L 300.723918 204.565412 
L 301.07305 205.10843 
L 301.246163 205.676772 
L 301.58954 206.07849 
L 301.929184 206.644662 
L 302.097632 206.919206 
L 302.265176 206.757869 
L 302.597594 207.579695 
L 303.252004 208.193489 
L 303.733972 208.664019 
L 303.89299 208.443377 
L 304.051203 208.50745 
L 304.365245 208.249488 
L 304.676163 207.733584 
L 304.830469 208.243103 
L 304.984017 208.207275 
L 305.288868 207.569547 
L 305.440185 207.639258 
L 305.590773 207.466841 
L 305.740639 207.63673 
L 305.889789 208.158475 
L 306.038231 207.950059 
L 306.625046 211.069272 
L 306.914372 209.890265 
L 307.343398 207.521493 
L 307.485108 207.483947 
L 307.626178 207.085116 
L 307.766614 207.333691 
L 307.906422 206.724196 
L 308.045607 207.284946 
L 308.184174 207.187318 
L 308.32213 207.815074 
L 308.45948 207.61524 
L 308.596228 207.639753 
L 308.867943 208.122242 
L 309.137315 207.830881 
L 309.271135 208.31747 
L 309.404384 207.75211 
L 309.66919 208.394795 
L 309.931771 207.830251 
L 310.062239 208.320182 
L 310.450405 207.524376 
L 310.57873 207.860154 
L 310.706529 207.843389 
L 310.960571 207.423991 
L 311.086821 207.749594 
L 311.212564 207.514928 
L 311.337802 207.66803 
L 311.462541 207.284681 
L 311.586783 207.331823 
L 311.833796 207.163361 
L 311.956574 207.319152 
L 312.078872 206.936295 
L 312.32204 207.324122 
L 312.442918 206.586204 
L 312.56333 206.780658 
L 312.921808 204.581735 
L 313.040392 204.954504 
L 313.742601 212.250022 
L 313.973207 211.421001 
L 314.202123 210.255478 
L 314.542384 209.667458 
L 314.767183 209.971481 
L 314.878979 210.586056 
L 315.101378 213.433215 
L 315.432037 220.112657 
L 315.650548 214.55278 
L 315.975476 205.578065 
L 316.083039 204.341059 
L 316.190232 204.858891 
L 316.29706 204.735684 
L 316.509625 204.992515 
L 316.720754 206.738082 
L 316.825786 206.281096 
L 317.034796 207.339026 
L 317.242418 206.817486 
L 317.345714 206.954534 
L 317.448669 205.465329 
L 317.551287 206.69469 
L 317.653568 206.257397 
L 317.755516 202.17994 
L 317.857132 192.242654 
L 317.958419 192.434961 
L 318.260324 195.571582 
L 318.360314 195.622001 
L 318.855522 197.35636 
L 318.953629 197.592504 
L 319.051429 197.385376 
L 319.148923 197.672927 
L 319.439595 196.34863 
L 319.535887 195.940724 
L 319.631884 196.073197 
L 319.727587 196.727417 
L 319.822998 196.387419 
L 320.012949 197.333152 
L 320.201753 197.443809 
L 320.295729 196.918016 
L 320.389423 197.523826 
L 320.482837 197.476496 
L 320.668832 197.122645 
L 320.761415 197.164684 
L 320.853725 196.925336 
L 321.037531 197.033602 
L 321.220263 196.441569 
L 321.311229 196.369115 
L 321.492371 195.515879 
L 321.58255 195.56357 
L 322.644872 192.660014 
L 322.818467 192.701911 
L 322.904904 193.255318 
L 323.077064 183.396719 
L 323.162789 186.615163 
L 323.333538 187.47823 
L 323.672262 186.689078 
L 323.756372 186.56068 
L 324.007353 185.845202 
L 324.090567 185.590469 
L 324.173561 185.80497 
L 324.338889 187.425039 
L 324.748422 196.765861 
L 324.991591 207.745435 
L 325.312899 193.137488 
L 325.55173 191.241154 
L 325.630937 191.309516 
L 325.78875 193.157508 
L 325.867359 191.506632 
L 326.102006 160.525718 
L 326.179831 162.530336 
L 326.489209 170.583224 
L 326.947608 175.680123 
L 328.788362 193.519938 
L 328.859783 193.617936 
L 329.073074 195.597122 
L 329.143849 195.641676 
L 329.355215 196.693537 
L 329.704347 194.78028 
L 329.911969 192.714491 
L 330.186669 189.090475 
L 330.254969 189.047002 
L 330.458975 190.54752 
L 331.327931 215.81766 
L 331.393783 216.266102 
L 331.590512 215.04333 
L 331.655814 215.69086 
L 331.78601 213.254148 
L 331.850905 214.610223 
L 331.915665 214.063952 
L 331.980292 213.705209 
L 332.109145 216.052309 
L 332.173374 215.221876 
L 332.23747 215.451251 
L 332.301435 216.39121 
L 332.365269 215.708647 
L 332.808496 223.109723 
L 332.871304 227.41783 
L 332.933986 226.771801 
L 332.996543 225.413421 
L 333.430966 234.934394 
L 333.492536 231.175377 
L 333.553986 234.205991 
L 333.615314 232.980499 
L 333.798582 238.852889 
L 333.859433 236.841039 
L 333.920165 238.483866 
L 333.98078 239.671844 
L 334.041278 237.489808 
L 334.222071 244.615425 
L 334.401823 235.58057 
L 334.461512 236.159917 
L 334.521087 236.468317 
L 334.758257 227.194805 
L 334.817269 229.29512 
L 334.87617 229.239518 
L 335.052209 231.671332 
L 335.11067 230.011715 
L 335.169021 234.80537 
L 335.227263 231.844968 
L 335.285397 231.936041 
L 335.343423 230.679234 
L 335.459152 233.340162 
L 335.516857 231.474645 
L 335.631947 235.370361 
L 335.803791 233.572123 
L 335.860863 235.308824 
L 335.917831 235.026261 
L 335.974696 232.051282 
L 336.031457 236.134883 
L 336.088115 230.8787 
L 336.144671 235.668516 
L 336.257476 234.84175 
L 336.369875 238.769327 
L 336.425923 235.750151 
L 336.481871 236.169088 
L 336.593468 238.39996 
L 336.649117 261.534147 
L 336.815472 233.512444 
L 336.870727 235.016214 
L 336.925885 231.472467 
L 336.980946 235.196955 
L 337.03591 233.253724 
L 337.145548 231.18686 
L 337.254804 233.391553 
L 337.363678 226.462706 
L 337.417973 227.434303 
L 337.580296 225.907885 
L 337.634216 225.943922 
L 337.688044 224.230569 
L 337.795422 226.766778 
L 337.9558 225.529564 
L 338.009077 228.233062 
L 338.062263 224.721123 
L 338.115359 226.766304 
L 338.326845 235.68761 
L 338.379494 230.932892 
L 338.432054 232.246139 
L 338.484526 237.111341 
L 338.53691 231.67469 
L 338.589206 230.824451 
L 338.641415 236.283299 
L 338.693537 232.990615 
L 338.745571 230.466238 
L 338.79752 232.337795 
L 338.849382 231.036382 
L 338.901158 234.745409 
L 338.952849 230.78924 
L 339.004454 230.58704 
L 339.055974 231.025765 
L 339.10741 229.806027 
L 339.15876 233.26735 
L 339.26121 225.230097 
L 339.312308 226.783066 
L 339.414256 225.535211 
L 339.465106 221.400945 
L 339.515872 223.904492 
L 339.66768 219.2565 
L 339.718119 220.233157 
L 339.919064 218.626616 
L 339.9691 218.4227 
L 340.06893 215.745347 
L 340.118726 217.560264 
L 340.168443 215.432297 
L 340.415847 210.380694 
L 340.465094 211.297037 
L 340.807663 219.802312 
L 340.856297 219.109985 
L 341.050077 226.878164 
L 341.098335 225.560514 
L 341.242663 239.085818 
L 341.338513 223.390589 
L 341.386327 225.384687 
L 341.434069 225.371099 
L 341.481738 229.923971 
L 341.529334 225.698543 
L 341.576858 226.954737 
L 341.62431 231.522682 
L 341.67169 229.528433 
L 341.718998 228.724012 
L 341.954469 246.625332 
L 342.001352 257.024048 
L 342.048164 243.401638 
L 342.094905 244.787321 
L 342.141578 249.734309 
L 342.18818 246.861097 
L 342.234713 241.533232 
L 342.281177 244.844539 
L 342.420156 250.063909 
L 342.512466 251.972769 
L 342.558519 235.846397 
L 342.650422 238.015129 
L 342.696272 229.72668 
L 342.787771 232.03739 
L 342.924519 222.567214 
L 342.96997 225.693595 
L 343.015354 217.208122 
L 343.105925 217.626131 
L 343.151112 218.017922 
L 343.196234 220.390997 
L 343.376073 213.986429 
L 343.465606 218.798153 
L 343.510276 218.023866 
L 343.554883 214.744789 
L 343.643906 215.618461 
L 343.688322 215.996458 
L 343.732675 215.396 
L 343.776966 215.821907 
L 343.821194 216.019622 
L 343.909462 212.558024 
L 343.953503 216.184807 
L 344.041399 215.945357 
L 344.085254 214.193544 
L 344.129048 215.359614 
L 344.172781 215.639628 
L 344.216452 212.976867 
L 344.260063 218.961067 
L 344.303613 212.80443 
L 344.347102 216.418307 
L 344.39053 215.447743 
L 344.433899 215.718991 
L 344.606773 220.726185 
L 344.649843 219.748192 
L 344.692853 217.702291 
L 344.735804 220.321168 
L 344.907021 225.710086 
L 345.03482 250.389422 
L 345.077304 250.009624 
L 345.119731 295.488 
L 345.162099 256.199985 
L 345.204411 239.167612 
L 345.246665 249.554125 
L 345.288862 251.142075 
L 345.457083 223.937432 
L 345.498997 225.304921 
L 345.666094 216.894149 
L 345.707728 223.148465 
L 345.749308 217.146126 
L 345.790832 217.843385 
L 345.873715 226.321074 
L 345.915075 219.079969 
L 345.956379 223.072235 
L 346.038825 230.008485 
L 346.079967 228.813886 
L 346.284865 213.861991 
L 346.36645 214.27619 
L 346.407163 206.570336 
L 346.447823 209.895559 
L 346.528984 209.421322 
L 346.609934 208.018954 
L 346.771209 215.347868 
L 346.811398 210.671318 
L 346.891622 213.067397 
L 347.011572 216.970463 
L 347.051453 215.484664 
L 347.091283 220.65554 
L 347.131063 215.226189 
L 347.170792 213.737573 
L 347.210471 219.457423 
L 347.289677 218.507227 
L 347.329205 213.062579 
L 347.368684 213.442033 
L 347.526099 218.844539 
L 347.56533 213.634439 
L 347.643643 214.354015 
L 347.682726 215.221222 
L 347.760746 211.808591 
L 347.799683 217.054196 
L 347.838571 210.499737 
L 347.877412 213.581374 
L 347.916204 214.423841 
L 348.032292 209.650178 
L 348.109445 208.439672 
L 348.14795 214.468905 
L 348.263182 206.247324 
L 348.301498 213.147867 
L 348.37799 211.296729 
L 348.416166 210.989974 
L 348.530414 214.721981 
L 348.606349 209.843789 
L 348.644247 209.886932 
L 348.682099 212.524093 
L 348.719905 209.786398 
L 348.757666 212.323967 
L 348.795381 209.688915 
L 348.833051 211.729991 
L 348.945788 216.346719 
L 348.908254 210.925122 
L 348.983277 215.019638 
L 349.020721 214.140407 
L 349.05812 218.817429 
L 349.095474 212.885332 
L 349.170049 208.85611 
L 349.244447 210.453444 
L 349.281579 217.75077 
L 349.318668 210.298144 
L 349.392713 209.270691 
L 349.429669 209.420333 
L 349.466583 211.392065 
L 349.503452 208.435999 
L 349.540278 209.797281 
L 349.6138 205.650772 
L 349.650497 207.846462 
L 349.68715 207.747207 
L 349.723761 203.495578 
L 349.760328 208.294152 
L 349.869775 210.283754 
L 349.906172 215.044571 
L 349.942527 205.158971 
L 350.01511 207.286909 
L 350.087524 216.134719 
L 350.123669 209.240028 
L 350.159772 213.253045 
L 350.231852 211.701454 
L 350.26783 208.998616 
L 350.303767 213.845399 
L 350.375517 210.716414 
L 350.41133 217.458244 
L 350.482833 214.493537 
L 350.518524 211.428266 
L 350.554173 214.722682 
L 350.589782 215.49118 
L 350.731814 209.190707 
L 350.837916 218.160858 
L 350.873204 210.720977 
L 350.943659 210.982336 
L 350.978827 218.132653 
L 351.049045 211.447744 
L 351.084095 211.165523 
L 351.154077 207.072442 
L 351.189009 210.508093 
L 351.223903 210.43116 
L 351.363087 213.544748 
L 351.397787 213.567517 
L 351.432448 213.998302 
L 351.467071 213.721589 
L 351.501655 210.895992 
L 351.605179 219.019043 
L 351.639611 218.519758 
L 351.674005 218.833599 
L 351.708361 215.361103 
L 351.776961 215.629667 
L 351.811204 224.339858 
L 351.879578 217.936513 
L 351.947803 216.997502 
L 351.981859 219.849351 
L 352.015879 214.704138 
L 352.049861 212.931961 
L 352.083807 221.62386 
L 352.185423 221.376033 
L 352.219222 220.640155 
L 352.252984 224.381291 
L 352.28671 213.883001 
L 352.3204 220.436148 
L 352.354053 227.788609 
L 352.38767 217.408267 
L 352.488304 212.647125 
L 352.521777 216.2481 
L 352.588615 212.455339 
L 352.621981 214.483456 
L 352.655311 208.406745 
L 352.688606 214.489549 
L 352.721865 210.717473 
L 352.755089 210.677105 
L 352.788277 209.240149 
L 352.854549 210.225305 
L 352.887632 212.267797 
L 352.92068 204.956669 
L 352.953693 208.157361 
L 352.986671 216.165886 
L 353.052524 212.792786 
L 353.183814 206.310104 
L 353.249252 205.082182 
L 353.314554 209.955183 
L 353.412252 203.264728 
L 353.44475 203.720164 
L 353.509645 205.20036 
L 353.542042 204.522758 
L 353.639032 201.604654 
L 353.671295 203.16727 
L 353.703525 209.054428 
L 353.767886 203.177446 
L 353.928209 208.727116 
L 353.960175 203.02864 
L 354.02401 206.341572 
L 354.087714 205.294829 
L 354.278052 214.139333 
L 354.341241 216.630022 
L 354.404302 204.531877 
L 354.467237 210.877316 
L 354.498656 206.125067 
L 354.530045 205.421801 
L 354.561401 201.369553 
L 354.592727 205.720944 
L 354.655283 202.052841 
L 354.686514 205.950637 
L 354.717715 197.139812 
L 354.780022 188.186955 
L 354.842205 180.365812 
L 354.904264 184.562312 
L 355.120507 190.914822 
L 355.151277 189.942087 
L 355.212726 191.393883 
L 355.274055 191.257583 
L 355.304674 193.937206 
L 355.335263 190.594491 
L 355.335263 190.594491 
" clip-path="url(#p5ada234e27)" style="fill: none; stroke: #1f77b4; stroke-width: 1.5; stroke-linecap: square"/>
   </g>
   <g id="line2d_52">
    <path d="M 110.69216 206.365761 
L 129.705651 206.590564 
L 141.228979 206.938623 
L 149.295308 207.388977 
L 155.633139 207.947096 
L 161.106719 208.648787 
L 165.71605 209.463457 
L 169.749215 210.403623 
L 173.206213 211.42972 
L 176.375129 212.59764 
L 179.255961 213.895605 
L 181.848709 215.302381 
L 184.153375 216.78632 
L 186.45804 218.540808 
L 188.474623 220.349498 
L 190.491205 222.47627 
L 192.219704 224.614832 
L 193.948204 227.120013 
L 195.38862 229.557347 
L 196.829036 232.389955 
L 198.269452 235.703471 
L 199.709868 239.567271 
L 202.878783 248.709076 
L 203.454949 249.649562 
L 203.743032 249.885503 
L 204.031115 249.936112 
L 204.319199 249.787763 
L 204.607282 249.436004 
L 205.183448 248.152843 
L 205.759615 246.22371 
L 206.911947 241.218127 
L 210.945112 222.529377 
L 217.282942 194.802292 
L 218.723358 187.08629 
L 219.875691 179.804687 
L 221.028024 170.931475 
L 222.180357 159.867041 
L 223.044606 151.600163 
L 223.33269 149.989003 
L 223.620773 149.523791 
L 223.908856 150.259825 
L 224.485022 154.145606 
L 225.925438 165.616342 
L 226.789688 170.911719 
L 227.942021 176.377756 
L 229.094353 180.584831 
L 230.246686 183.933183 
L 231.399019 186.668432 
L 232.839435 189.459062 
L 234.279851 191.731438 
L 235.720267 193.613374 
L 237.448766 195.47689 
L 239.177265 197.006389 
L 241.193848 198.464462 
L 243.21043 199.648193 
L 245.515096 200.739785 
L 248.107844 201.709398 
L 250.988676 202.540691 
L 254.157592 203.227534 
L 257.902673 203.807451 
L 262.223921 204.241767 
L 267.121335 204.500833 
L 272.306833 204.553179 
L 277.49233 204.392718 
L 282.389745 204.030452 
L 286.999076 203.463473 
L 291.032241 202.736635 
L 294.489239 201.889928 
L 297.658154 200.878107 
L 300.538986 199.706514 
L 303.131735 198.390427 
L 305.4364 196.958022 
L 307.452983 195.452479 
L 309.469565 193.655739 
L 311.198064 191.83089 
L 312.926564 189.681777 
L 314.655063 187.13019 
L 316.095479 184.620045 
L 317.535895 181.670936 
L 318.976311 178.164711 
L 320.128643 174.84889 
L 321.280976 170.956646 
L 322.433309 166.349218 
L 323.585642 160.917512 
L 325.602224 150.801536 
L 326.178391 149.148554 
L 326.466474 148.848941 
L 326.754557 148.95023 
L 327.04264 149.442293 
L 327.618807 151.388987 
L 328.483056 155.637573 
L 330.211555 164.421144 
L 331.363888 169.334576 
L 332.804304 174.415181 
L 334.24472 178.567914 
L 335.685136 182.016679 
L 337.125552 184.922259 
L 338.854051 187.850574 
L 340.58255 190.299745 
L 342.31105 192.368849 
L 344.327632 194.398393 
L 346.344214 196.094712 
L 348.360797 197.521933 
L 350.665462 198.886124 
L 353.258211 200.147136 
L 356.139043 201.279286 
L 359.307958 202.269705 
L 362.764956 203.115969 
L 366.798121 203.870518 
L 371.407452 204.507442 
L 377.169116 205.066026 
L 384.083113 205.50448 
L 393.301775 205.849506 
L 398.487273 205.96943 
L 398.487273 205.96943 
" clip-path="url(#p5ada234e27)" style="fill: none; stroke: #ff7f0e; stroke-width: 1.5; stroke-linecap: square"/>
   </g>
   <g id="patch_3">
    <path d="M 57.6 307.584 
L 57.6 41.472 
" style="fill: none; stroke: #000000; stroke-width: 0.8; stroke-linejoin: miter; stroke-linecap: square"/>
   </g>
   <g id="patch_4">
    <path d="M 414.72 307.584 
L 414.72 41.472 
" style="fill: none; stroke: #000000; stroke-width: 0.8; stroke-linejoin: miter; stroke-linecap: square"/>
   </g>
   <g id="patch_5">
    <path d="M 57.6 307.584 
L 414.72 307.584 
" style="fill: none; stroke: #000000; stroke-width: 0.8; stroke-linejoin: miter; stroke-linecap: square"/>
   </g>
   <g id="patch_6">
    <path d="M 57.6 41.472 
L 414.72 41.472 
" style="fill: none; stroke: #000000; stroke-width: 0.8; stroke-linejoin: miter; stroke-linecap: square"/>
   </g>
   <g id="text_13">
    <!-- Additive error -->
    <g transform="translate(195.18375 35.472) scale(0.12 -0.12)">
     <defs>
      <path id="DejaVuSans-41" d="M 2188 4044 
L 1331 1722 
L 3047 1722 
L 2188 4044 
z
M 1831 4666 
L 2547 4666 
L 4325 0 
L 3669 0 
L 3244 1197 
L 1141 1197 
L 716 0 
L 50 0 
L 1831 4666 
z
" transform="scale(0.015625)"/>
      <path id="DejaVuSans-76" d="M 191 3500 
L 800 3500 
L 1894 563 
L 2988 3500 
L 3597 3500 
L 2284 0 
L 1503 0 
L 191 3500 
z
" transform="scale(0.015625)"/>
      <path id="DejaVuSans-6f" d="M 1959 3097 
Q 1497 3097 1228 2736 
Q 959 2375 959 1747 
Q 959 1119 1226 758 
Q 1494 397 1959 397 
Q 2419 397 2687 759 
Q 2956 1122 2956 1747 
Q 2956 2369 2687 2733 
Q 2419 3097 1959 3097 
z
M 1959 3584 
Q 2709 3584 3137 3096 
Q 3566 2609 3566 1747 
Q 3566 888 3137 398 
Q 2709 -91 1959 -91 
Q 1206 -91 779 398 
Q 353 888 353 1747 
Q 353 2609 779 3096 
Q 1206 3584 1959 3584 
z
" transform="scale(0.015625)"/>
     </defs>
     <use xlink:href="#DejaVuSans-41"/>
     <use xlink:href="#DejaVuSans-64" x="66.658203"/>
     <use xlink:href="#DejaVuSans-64" x="130.134766"/>
     <use xlink:href="#DejaVuSans-69" x="193.611328"/>
     <use xlink:href="#DejaVuSans-74" x="221.394531"/>
     <use xlink:href="#DejaVuSans-69" x="260.603516"/>
     <use xlink:href="#DejaVuSans-76" x="288.386719"/>
     <use xlink:href="#DejaVuSans-65" x="347.566406"/>
     <use xlink:href="#DejaVuSans-20" x="409.089844"/>
     <use xlink:href="#DejaVuSans-65" x="440.876953"/>
     <use xlink:href="#DejaVuSans-72" x="502.400391"/>
     <use xlink:href="#DejaVuSans-72" x="541.763672"/>
     <use xlink:href="#DejaVuSans-6f" x="580.626953"/>
     <use xlink:href="#DejaVuSans-72" x="641.808594"/>
    </g>
   </g>
   <g id="legend_1">
    <g id="patch_7">
     <path d="M 343.829375 78.82825 
L 407.72 78.82825 
Q 409.72 78.82825 409.72 76.82825 
L 409.72 48.472 
Q 409.72 46.472 407.72 46.472 
L 343.829375 46.472 
Q 341.829375 46.472 341.829375 48.472 
L 341.829375 76.82825 
Q 341.829375 78.82825 343.829375 78.82825 
z
" style="fill: #ffffff; opacity: 0.8; stroke: #cccccc; stroke-linejoin: miter"/>
    </g>
    <g id="line2d_53">
     <path d="M 345.829375 54.570437 
L 355.829375 54.570437 
L 365.829375 54.570437 
" style="fill: none; stroke: #1f77b4; stroke-width: 1.5; stroke-linecap: square"/>
    </g>
    <g id="text_14">
     <!-- Error -->
     <g transform="translate(373.829375 58.070437) scale(0.1 -0.1)">
      <defs>
       <path id="DejaVuSans-45" d="M 628 4666 
L 3578 4666 
L 3578 4134 
L 1259 4134 
L 1259 2753 
L 3481 2753 
L 3481 2222 
L 1259 2222 
L 1259 531 
L 3634 531 
L 3634 0 
L 628 0 
L 628 4666 
z
" transform="scale(0.015625)"/>
      </defs>
      <use xlink:href="#DejaVuSans-45"/>
      <use xlink:href="#DejaVuSans-72" x="63.183594"/>
      <use xlink:href="#DejaVuSans-72" x="102.546875"/>
      <use xlink:href="#DejaVuSans-6f" x="141.410156"/>
      <use xlink:href="#DejaVuSans-72" x="202.591797"/>
     </g>
    </g>
    <g id="line2d_54">
     <path d="M 345.829375 69.248562 
L 355.829375 69.248562 
L 365.829375 69.248562 
" style="fill: none; stroke: #ff7f0e; stroke-width: 1.5; stroke-linecap: square"/>
    </g>
    <g id="text_15">
     <!-- W add -->
     <g transform="translate(373.829375 72.748562) scale(0.1 -0.1)">
      <defs>
       <path id="DejaVuSans-57" d="M 213 4666 
L 850 4666 
L 1831 722 
L 2809 4666 
L 3519 4666 
L 4500 722 
L 5478 4666 
L 6119 4666 
L 4947 0 
L 4153 0 
L 3169 4050 
L 2175 0 
L 1381 0 
L 213 4666 
z
" transform="scale(0.015625)"/>
      </defs>
      <use xlink:href="#DejaVuSans-57"/>
      <use xlink:href="#DejaVuSans-20" x="98.876953"/>
      <use xlink:href="#DejaVuSans-61" x="130.664062"/>
      <use xlink:href="#DejaVuSans-64" x="191.943359"/>
      <use xlink:href="#DejaVuSans-64" x="255.419922"/>
     </g>
    </g>
   </g>
  </g>
 </g>
 <defs>
  <clipPath id="p5ada234e27">
   <rect x="57.6" y="41.472" width="357.12" height="266.112"/>
  </clipPath>
 </defs>
</svg>
