<?xml version="1.0" encoding="utf-8" standalone="no"?>
<!DOCTYPE svg PUBLIC "-//W3C//DTD SVG 1.1//EN"
  "http://www.w3.org/Graphics/SVG/1.1/DTD/svg11.dtd">
<svg xmlns:xlink="http://www.w3.org/1999/xlink" width="460.8pt" height="345.6pt" viewBox="0 0 460.8 345.6" xmlns="http://www.w3.org/2000/svg" version="1.1">
 <metadata>
  <rdf:RDF xmlns:dc="http://purl.org/dc/elements/1.1/" xmlns:cc="http://creativecommons.org/ns#" xmlns:rdf="http://www.w3.org/1999/02/22-rdf-syntax-ns#">
   <cc:Work>
    <dc:type rdf:resource="http://purl.org/dc/dcmitype/StillImage"/>
    <dc:date>2024-12-15T21:27:35.884010</dc:date>
    <dc:format>image/svg+xml</dc:format>
    <dc:creator>
     <cc:Agent>
      <dc:title>Matplotlib v3.9.2, https://matplotlib.org/</dc:title>
     </cc:Agent>
    </dc:creator>
   </cc:Work>
  </rdf:RDF>
 </metadata>
 <defs>
  <style type="text/css">*{stroke-linejoin: round; stroke-linecap: butt}</style>
 </defs>
 <g id="figure_1">
  <g id="patch_1">
   <path d="M 0 345.6 
L 460.8 345.6 
L 460.8 0 
L 0 0 
z
" style="fill: #ffffff"/>
  </g>
  <g id="axes_1">
   <g id="patch_2">
    <path d="M 54.2 154.678327 
L 442.285026 154.678327 
L 442.285026 22.32 
L 54.2 22.32 
z
" style="fill: #ffffff"/>
   </g>
   <g id="matplotlib.axis_1">
    <g id="xtick_1">
     <g id="line2d_1">
      <path d="M 54.2 154.678327 
L 54.2 22.32 
" clip-path="url(#p480e4e5f2a)" style="fill: none; stroke: #b0b0b0; stroke-width: 0.8; stroke-linecap: square"/>
     </g>
     <g id="line2d_2">
      <defs>
       <path id="m9d22580f8c" d="M 0 0 
L 0 3.5 
" style="stroke: #000000; stroke-width: 0.8"/>
      </defs>
      <g>
       <use xlink:href="#m9d22580f8c" x="54.2" y="154.678327" style="stroke: #000000; stroke-width: 0.8"/>
      </g>
     </g>
    </g>
    <g id="xtick_2">
     <g id="line2d_3">
      <path d="M 248.242513 154.678327 
L 248.242513 22.32 
" clip-path="url(#p480e4e5f2a)" style="fill: none; stroke: #b0b0b0; stroke-width: 0.8; stroke-linecap: square"/>
     </g>
     <g id="line2d_4">
      <g>
       <use xlink:href="#m9d22580f8c" x="248.242513" y="154.678327" style="stroke: #000000; stroke-width: 0.8"/>
      </g>
     </g>
    </g>
    <g id="xtick_3">
     <g id="line2d_5">
      <path d="M 442.285026 154.678327 
L 442.285026 22.32 
" clip-path="url(#p480e4e5f2a)" style="fill: none; stroke: #b0b0b0; stroke-width: 0.8; stroke-linecap: square"/>
     </g>
     <g id="line2d_6">
      <g>
       <use xlink:href="#m9d22580f8c" x="442.285026" y="154.678327" style="stroke: #000000; stroke-width: 0.8"/>
      </g>
     </g>
    </g>
    <g id="xtick_4">
     <g id="line2d_7">
      <path d="M 112.612617 154.678327 
L 112.612617 22.32 
" clip-path="url(#p480e4e5f2a)" style="fill: none; stroke: #b0b0b0; stroke-width: 0.8; stroke-linecap: square"/>
     </g>
     <g id="line2d_8">
      <defs>
       <path id="m21494441d5" d="M 0 0 
L 0 2 
" style="stroke: #000000; stroke-width: 0.6"/>
      </defs>
      <g>
       <use xlink:href="#m21494441d5" x="112.612617" y="154.678327" style="stroke: #000000; stroke-width: 0.6"/>
      </g>
     </g>
    </g>
    <g id="xtick_5">
     <g id="line2d_9">
      <path d="M 146.781807 154.678327 
L 146.781807 22.32 
" clip-path="url(#p480e4e5f2a)" style="fill: none; stroke: #b0b0b0; stroke-width: 0.8; stroke-linecap: square"/>
     </g>
     <g id="line2d_10">
      <g>
       <use xlink:href="#m21494441d5" x="146.781807" y="154.678327" style="stroke: #000000; stroke-width: 0.6"/>
      </g>
     </g>
    </g>
    <g id="xtick_6">
     <g id="line2d_11">
      <path d="M 171.025234 154.678327 
L 171.025234 22.32 
" clip-path="url(#p480e4e5f2a)" style="fill: none; stroke: #b0b0b0; stroke-width: 0.8; stroke-linecap: square"/>
     </g>
     <g id="line2d_12">
      <g>
       <use xlink:href="#m21494441d5" x="171.025234" y="154.678327" style="stroke: #000000; stroke-width: 0.6"/>
      </g>
     </g>
    </g>
    <g id="xtick_7">
     <g id="line2d_13">
      <path d="M 189.829896 154.678327 
L 189.829896 22.32 
" clip-path="url(#p480e4e5f2a)" style="fill: none; stroke: #b0b0b0; stroke-width: 0.8; stroke-linecap: square"/>
     </g>
     <g id="line2d_14">
      <g>
       <use xlink:href="#m21494441d5" x="189.829896" y="154.678327" style="stroke: #000000; stroke-width: 0.6"/>
      </g>
     </g>
    </g>
    <g id="xtick_8">
     <g id="line2d_15">
      <path d="M 205.194424 154.678327 
L 205.194424 22.32 
" clip-path="url(#p480e4e5f2a)" style="fill: none; stroke: #b0b0b0; stroke-width: 0.8; stroke-linecap: square"/>
     </g>
     <g id="line2d_16">
      <g>
       <use xlink:href="#m21494441d5" x="205.194424" y="154.678327" style="stroke: #000000; stroke-width: 0.6"/>
      </g>
     </g>
    </g>
    <g id="xtick_9">
     <g id="line2d_17">
      <path d="M 218.184947 154.678327 
L 218.184947 22.32 
" clip-path="url(#p480e4e5f2a)" style="fill: none; stroke: #b0b0b0; stroke-width: 0.8; stroke-linecap: square"/>
     </g>
     <g id="line2d_18">
      <g>
       <use xlink:href="#m21494441d5" x="218.184947" y="154.678327" style="stroke: #000000; stroke-width: 0.6"/>
      </g>
     </g>
    </g>
    <g id="xtick_10">
     <g id="line2d_19">
      <path d="M 229.437851 154.678327 
L 229.437851 22.32 
" clip-path="url(#p480e4e5f2a)" style="fill: none; stroke: #b0b0b0; stroke-width: 0.8; stroke-linecap: square"/>
     </g>
     <g id="line2d_20">
      <g>
       <use xlink:href="#m21494441d5" x="229.437851" y="154.678327" style="stroke: #000000; stroke-width: 0.6"/>
      </g>
     </g>
    </g>
    <g id="xtick_11">
     <g id="line2d_21">
      <path d="M 239.363615 154.678327 
L 239.363615 22.32 
" clip-path="url(#p480e4e5f2a)" style="fill: none; stroke: #b0b0b0; stroke-width: 0.8; stroke-linecap: square"/>
     </g>
     <g id="line2d_22">
      <g>
       <use xlink:href="#m21494441d5" x="239.363615" y="154.678327" style="stroke: #000000; stroke-width: 0.6"/>
      </g>
     </g>
    </g>
    <g id="xtick_12">
     <g id="line2d_23">
      <path d="M 306.65513 154.678327 
L 306.65513 22.32 
" clip-path="url(#p480e4e5f2a)" style="fill: none; stroke: #b0b0b0; stroke-width: 0.8; stroke-linecap: square"/>
     </g>
     <g id="line2d_24">
      <g>
       <use xlink:href="#m21494441d5" x="306.65513" y="154.678327" style="stroke: #000000; stroke-width: 0.6"/>
      </g>
     </g>
    </g>
    <g id="xtick_13">
     <g id="line2d_25">
      <path d="M 340.82432 154.678327 
L 340.82432 22.32 
" clip-path="url(#p480e4e5f2a)" style="fill: none; stroke: #b0b0b0; stroke-width: 0.8; stroke-linecap: square"/>
     </g>
     <g id="line2d_26">
      <g>
       <use xlink:href="#m21494441d5" x="340.82432" y="154.678327" style="stroke: #000000; stroke-width: 0.6"/>
      </g>
     </g>
    </g>
    <g id="xtick_14">
     <g id="line2d_27">
      <path d="M 365.067747 154.678327 
L 365.067747 22.32 
" clip-path="url(#p480e4e5f2a)" style="fill: none; stroke: #b0b0b0; stroke-width: 0.8; stroke-linecap: square"/>
     </g>
     <g id="line2d_28">
      <g>
       <use xlink:href="#m21494441d5" x="365.067747" y="154.678327" style="stroke: #000000; stroke-width: 0.6"/>
      </g>
     </g>
    </g>
    <g id="xtick_15">
     <g id="line2d_29">
      <path d="M 383.872409 154.678327 
L 383.872409 22.32 
" clip-path="url(#p480e4e5f2a)" style="fill: none; stroke: #b0b0b0; stroke-width: 0.8; stroke-linecap: square"/>
     </g>
     <g id="line2d_30">
      <g>
       <use xlink:href="#m21494441d5" x="383.872409" y="154.678327" style="stroke: #000000; stroke-width: 0.6"/>
      </g>
     </g>
    </g>
    <g id="xtick_16">
     <g id="line2d_31">
      <path d="M 399.236937 154.678327 
L 399.236937 22.32 
" clip-path="url(#p480e4e5f2a)" style="fill: none; stroke: #b0b0b0; stroke-width: 0.8; stroke-linecap: square"/>
     </g>
     <g id="line2d_32">
      <g>
       <use xlink:href="#m21494441d5" x="399.236937" y="154.678327" style="stroke: #000000; stroke-width: 0.6"/>
      </g>
     </g>
    </g>
    <g id="xtick_17">
     <g id="line2d_33">
      <path d="M 412.22746 154.678327 
L 412.22746 22.32 
" clip-path="url(#p480e4e5f2a)" style="fill: none; stroke: #b0b0b0; stroke-width: 0.8; stroke-linecap: square"/>
     </g>
     <g id="line2d_34">
      <g>
       <use xlink:href="#m21494441d5" x="412.22746" y="154.678327" style="stroke: #000000; stroke-width: 0.6"/>
      </g>
     </g>
    </g>
    <g id="xtick_18">
     <g id="line2d_35">
      <path d="M 423.480364 154.678327 
L 423.480364 22.32 
" clip-path="url(#p480e4e5f2a)" style="fill: none; stroke: #b0b0b0; stroke-width: 0.8; stroke-linecap: square"/>
     </g>
     <g id="line2d_36">
      <g>
       <use xlink:href="#m21494441d5" x="423.480364" y="154.678327" style="stroke: #000000; stroke-width: 0.6"/>
      </g>
     </g>
    </g>
    <g id="xtick_19">
     <g id="line2d_37">
      <path d="M 433.406128 154.678327 
L 433.406128 22.32 
" clip-path="url(#p480e4e5f2a)" style="fill: none; stroke: #b0b0b0; stroke-width: 0.8; stroke-linecap: square"/>
     </g>
     <g id="line2d_38">
      <g>
       <use xlink:href="#m21494441d5" x="433.406128" y="154.678327" style="stroke: #000000; stroke-width: 0.6"/>
      </g>
     </g>
    </g>
   </g>
   <g id="matplotlib.axis_2">
    <g id="ytick_1">
     <g id="line2d_39">
      <path d="M 54.2 104.165229 
L 442.285026 104.165229 
" clip-path="url(#p480e4e5f2a)" style="fill: none; stroke: #b0b0b0; stroke-width: 0.8; stroke-linecap: square"/>
     </g>
     <g id="line2d_40">
      <defs>
       <path id="m0e19bcdd2e" d="M 0 0 
L -3.5 0 
" style="stroke: #000000; stroke-width: 0.8"/>
      </defs>
      <g>
       <use xlink:href="#m0e19bcdd2e" x="54.2" y="104.165229" style="stroke: #000000; stroke-width: 0.8"/>
      </g>
     </g>
     <g id="text_1">
      <!-- $\mathdefault{10^{-1}}$ -->
      <g transform="translate(27.6245 107.329979) scale(0.0833 -0.0833)">
       <defs>
        <path id="DejaVuSans-31" d="M 794 531 
L 1825 531 
L 1825 4091 
L 703 3866 
L 703 4441 
L 1819 4666 
L 2450 4666 
L 2450 531 
L 3481 531 
L 3481 0 
L 794 0 
L 794 531 
z
" transform="scale(0.015625)"/>
        <path id="DejaVuSans-30" d="M 2034 4250 
Q 1547 4250 1301 3770 
Q 1056 3291 1056 2328 
Q 1056 1369 1301 889 
Q 1547 409 2034 409 
Q 2525 409 2770 889 
Q 3016 1369 3016 2328 
Q 3016 3291 2770 3770 
Q 2525 4250 2034 4250 
z
M 2034 4750 
Q 2819 4750 3233 4129 
Q 3647 3509 3647 2328 
Q 3647 1150 3233 529 
Q 2819 -91 2034 -91 
Q 1250 -91 836 529 
Q 422 1150 422 2328 
Q 422 3509 836 4129 
Q 1250 4750 2034 4750 
z
" transform="scale(0.015625)"/>
        <path id="DejaVuSans-2212" d="M 678 2272 
L 4684 2272 
L 4684 1741 
L 678 1741 
L 678 2272 
z
" transform="scale(0.015625)"/>
       </defs>
       <use xlink:href="#DejaVuSans-31" transform="translate(0 0.684375)"/>
       <use xlink:href="#DejaVuSans-30" transform="translate(63.623047 0.684375)"/>
       <use xlink:href="#DejaVuSans-2212" transform="translate(128.203125 38.965625) scale(0.7)"/>
       <use xlink:href="#DejaVuSans-31" transform="translate(186.855469 38.965625) scale(0.7)"/>
      </g>
     </g>
    </g>
    <g id="ytick_2">
     <g id="line2d_41">
      <path d="M 54.2 51.623867 
L 442.285026 51.623867 
" clip-path="url(#p480e4e5f2a)" style="fill: none; stroke: #b0b0b0; stroke-width: 0.8; stroke-linecap: square"/>
     </g>
     <g id="line2d_42">
      <g>
       <use xlink:href="#m0e19bcdd2e" x="54.2" y="51.623867" style="stroke: #000000; stroke-width: 0.8"/>
      </g>
     </g>
     <g id="text_2">
      <!-- $\mathdefault{10^{0}}$ -->
      <g transform="translate(32.5392 54.788616) scale(0.0833 -0.0833)">
       <use xlink:href="#DejaVuSans-31" transform="translate(0 0.765625)"/>
       <use xlink:href="#DejaVuSans-30" transform="translate(63.623047 0.765625)"/>
       <use xlink:href="#DejaVuSans-30" transform="translate(128.203125 39.046875) scale(0.7)"/>
      </g>
     </g>
    </g>
    <g id="ytick_3">
     <g id="line2d_43">
      <path d="M 54.2 140.890066 
L 442.285026 140.890066 
" clip-path="url(#p480e4e5f2a)" style="fill: none; stroke: #b0b0b0; stroke-width: 0.8; stroke-linecap: square"/>
     </g>
     <g id="line2d_44">
      <defs>
       <path id="m5108f21d33" d="M 0 0 
L -2 0 
" style="stroke: #000000; stroke-width: 0.6"/>
      </defs>
      <g>
       <use xlink:href="#m5108f21d33" x="54.2" y="140.890066" style="stroke: #000000; stroke-width: 0.6"/>
      </g>
     </g>
    </g>
    <g id="ytick_4">
     <g id="line2d_45">
      <path d="M 54.2 131.637991 
L 442.285026 131.637991 
" clip-path="url(#p480e4e5f2a)" style="fill: none; stroke: #b0b0b0; stroke-width: 0.8; stroke-linecap: square"/>
     </g>
     <g id="line2d_46">
      <g>
       <use xlink:href="#m5108f21d33" x="54.2" y="131.637991" style="stroke: #000000; stroke-width: 0.6"/>
      </g>
     </g>
    </g>
    <g id="ytick_5">
     <g id="line2d_47">
      <path d="M 54.2 125.07354 
L 442.285026 125.07354 
" clip-path="url(#p480e4e5f2a)" style="fill: none; stroke: #b0b0b0; stroke-width: 0.8; stroke-linecap: square"/>
     </g>
     <g id="line2d_48">
      <g>
       <use xlink:href="#m5108f21d33" x="54.2" y="125.07354" style="stroke: #000000; stroke-width: 0.6"/>
      </g>
     </g>
    </g>
    <g id="ytick_6">
     <g id="line2d_49">
      <path d="M 54.2 119.981756 
L 442.285026 119.981756 
" clip-path="url(#p480e4e5f2a)" style="fill: none; stroke: #b0b0b0; stroke-width: 0.8; stroke-linecap: square"/>
     </g>
     <g id="line2d_50">
      <g>
       <use xlink:href="#m5108f21d33" x="54.2" y="119.981756" style="stroke: #000000; stroke-width: 0.6"/>
      </g>
     </g>
    </g>
    <g id="ytick_7">
     <g id="line2d_51">
      <path d="M 54.2 115.821465 
L 442.285026 115.821465 
" clip-path="url(#p480e4e5f2a)" style="fill: none; stroke: #b0b0b0; stroke-width: 0.8; stroke-linecap: square"/>
     </g>
     <g id="line2d_52">
      <g>
       <use xlink:href="#m5108f21d33" x="54.2" y="115.821465" style="stroke: #000000; stroke-width: 0.6"/>
      </g>
     </g>
    </g>
    <g id="ytick_8">
     <g id="line2d_53">
      <path d="M 54.2 112.303989 
L 442.285026 112.303989 
" clip-path="url(#p480e4e5f2a)" style="fill: none; stroke: #b0b0b0; stroke-width: 0.8; stroke-linecap: square"/>
     </g>
     <g id="line2d_54">
      <g>
       <use xlink:href="#m5108f21d33" x="54.2" y="112.303989" style="stroke: #000000; stroke-width: 0.6"/>
      </g>
     </g>
    </g>
    <g id="ytick_9">
     <g id="line2d_55">
      <path d="M 54.2 109.257014 
L 442.285026 109.257014 
" clip-path="url(#p480e4e5f2a)" style="fill: none; stroke: #b0b0b0; stroke-width: 0.8; stroke-linecap: square"/>
     </g>
     <g id="line2d_56">
      <g>
       <use xlink:href="#m5108f21d33" x="54.2" y="109.257014" style="stroke: #000000; stroke-width: 0.6"/>
      </g>
     </g>
    </g>
    <g id="ytick_10">
     <g id="line2d_57">
      <path d="M 54.2 106.56939 
L 442.285026 106.56939 
" clip-path="url(#p480e4e5f2a)" style="fill: none; stroke: #b0b0b0; stroke-width: 0.8; stroke-linecap: square"/>
     </g>
     <g id="line2d_58">
      <g>
       <use xlink:href="#m5108f21d33" x="54.2" y="106.56939" style="stroke: #000000; stroke-width: 0.6"/>
      </g>
     </g>
    </g>
    <g id="ytick_11">
     <g id="line2d_59">
      <path d="M 54.2 88.348703 
L 442.285026 88.348703 
" clip-path="url(#p480e4e5f2a)" style="fill: none; stroke: #b0b0b0; stroke-width: 0.8; stroke-linecap: square"/>
     </g>
     <g id="line2d_60">
      <g>
       <use xlink:href="#m5108f21d33" x="54.2" y="88.348703" style="stroke: #000000; stroke-width: 0.6"/>
      </g>
     </g>
    </g>
    <g id="ytick_12">
     <g id="line2d_61">
      <path d="M 54.2 79.096629 
L 442.285026 79.096629 
" clip-path="url(#p480e4e5f2a)" style="fill: none; stroke: #b0b0b0; stroke-width: 0.8; stroke-linecap: square"/>
     </g>
     <g id="line2d_62">
      <g>
       <use xlink:href="#m5108f21d33" x="54.2" y="79.096629" style="stroke: #000000; stroke-width: 0.6"/>
      </g>
     </g>
    </g>
    <g id="ytick_13">
     <g id="line2d_63">
      <path d="M 54.2 72.532177 
L 442.285026 72.532177 
" clip-path="url(#p480e4e5f2a)" style="fill: none; stroke: #b0b0b0; stroke-width: 0.8; stroke-linecap: square"/>
     </g>
     <g id="line2d_64">
      <g>
       <use xlink:href="#m5108f21d33" x="54.2" y="72.532177" style="stroke: #000000; stroke-width: 0.6"/>
      </g>
     </g>
    </g>
    <g id="ytick_14">
     <g id="line2d_65">
      <path d="M 54.2 67.440393 
L 442.285026 67.440393 
" clip-path="url(#p480e4e5f2a)" style="fill: none; stroke: #b0b0b0; stroke-width: 0.8; stroke-linecap: square"/>
     </g>
     <g id="line2d_66">
      <g>
       <use xlink:href="#m5108f21d33" x="54.2" y="67.440393" style="stroke: #000000; stroke-width: 0.6"/>
      </g>
     </g>
    </g>
    <g id="ytick_15">
     <g id="line2d_67">
      <path d="M 54.2 63.280102 
L 442.285026 63.280102 
" clip-path="url(#p480e4e5f2a)" style="fill: none; stroke: #b0b0b0; stroke-width: 0.8; stroke-linecap: square"/>
     </g>
     <g id="line2d_68">
      <g>
       <use xlink:href="#m5108f21d33" x="54.2" y="63.280102" style="stroke: #000000; stroke-width: 0.6"/>
      </g>
     </g>
    </g>
    <g id="ytick_16">
     <g id="line2d_69">
      <path d="M 54.2 59.762627 
L 442.285026 59.762627 
" clip-path="url(#p480e4e5f2a)" style="fill: none; stroke: #b0b0b0; stroke-width: 0.8; stroke-linecap: square"/>
     </g>
     <g id="line2d_70">
      <g>
       <use xlink:href="#m5108f21d33" x="54.2" y="59.762627" style="stroke: #000000; stroke-width: 0.6"/>
      </g>
     </g>
    </g>
    <g id="ytick_17">
     <g id="line2d_71">
      <path d="M 54.2 56.715651 
L 442.285026 56.715651 
" clip-path="url(#p480e4e5f2a)" style="fill: none; stroke: #b0b0b0; stroke-width: 0.8; stroke-linecap: square"/>
     </g>
     <g id="line2d_72">
      <g>
       <use xlink:href="#m5108f21d33" x="54.2" y="56.715651" style="stroke: #000000; stroke-width: 0.6"/>
      </g>
     </g>
    </g>
    <g id="ytick_18">
     <g id="line2d_73">
      <path d="M 54.2 54.028028 
L 442.285026 54.028028 
" clip-path="url(#p480e4e5f2a)" style="fill: none; stroke: #b0b0b0; stroke-width: 0.8; stroke-linecap: square"/>
     </g>
     <g id="line2d_74">
      <g>
       <use xlink:href="#m5108f21d33" x="54.2" y="54.028028" style="stroke: #000000; stroke-width: 0.6"/>
      </g>
     </g>
    </g>
    <g id="ytick_19">
     <g id="line2d_75">
      <path d="M 54.2 35.807341 
L 442.285026 35.807341 
" clip-path="url(#p480e4e5f2a)" style="fill: none; stroke: #b0b0b0; stroke-width: 0.8; stroke-linecap: square"/>
     </g>
     <g id="line2d_76">
      <g>
       <use xlink:href="#m5108f21d33" x="54.2" y="35.807341" style="stroke: #000000; stroke-width: 0.6"/>
      </g>
     </g>
    </g>
    <g id="ytick_20">
     <g id="line2d_77">
      <path d="M 54.2 26.555266 
L 442.285026 26.555266 
" clip-path="url(#p480e4e5f2a)" style="fill: none; stroke: #b0b0b0; stroke-width: 0.8; stroke-linecap: square"/>
     </g>
     <g id="line2d_78">
      <g>
       <use xlink:href="#m5108f21d33" x="54.2" y="26.555266" style="stroke: #000000; stroke-width: 0.6"/>
      </g>
     </g>
    </g>
    <g id="text_3">
     <!-- Magnitude -->
     <g transform="translate(18.587453 110.565204) rotate(-90) scale(0.0833 -0.0833)">
      <defs>
       <path id="DejaVuSans-4d" d="M 628 4666 
L 1569 4666 
L 2759 1491 
L 3956 4666 
L 4897 4666 
L 4897 0 
L 4281 0 
L 4281 4097 
L 3078 897 
L 2444 897 
L 1241 4097 
L 1241 0 
L 628 0 
L 628 4666 
z
" transform="scale(0.015625)"/>
       <path id="DejaVuSans-61" d="M 2194 1759 
Q 1497 1759 1228 1600 
Q 959 1441 959 1056 
Q 959 750 1161 570 
Q 1363 391 1709 391 
Q 2188 391 2477 730 
Q 2766 1069 2766 1631 
L 2766 1759 
L 2194 1759 
z
M 3341 1997 
L 3341 0 
L 2766 0 
L 2766 531 
Q 2569 213 2275 61 
Q 1981 -91 1556 -91 
Q 1019 -91 701 211 
Q 384 513 384 1019 
Q 384 1609 779 1909 
Q 1175 2209 1959 2209 
L 2766 2209 
L 2766 2266 
Q 2766 2663 2505 2880 
Q 2244 3097 1772 3097 
Q 1472 3097 1187 3025 
Q 903 2953 641 2809 
L 641 3341 
Q 956 3463 1253 3523 
Q 1550 3584 1831 3584 
Q 2591 3584 2966 3190 
Q 3341 2797 3341 1997 
z
" transform="scale(0.015625)"/>
       <path id="DejaVuSans-67" d="M 2906 1791 
Q 2906 2416 2648 2759 
Q 2391 3103 1925 3103 
Q 1463 3103 1205 2759 
Q 947 2416 947 1791 
Q 947 1169 1205 825 
Q 1463 481 1925 481 
Q 2391 481 2648 825 
Q 2906 1169 2906 1791 
z
M 3481 434 
Q 3481 -459 3084 -895 
Q 2688 -1331 1869 -1331 
Q 1566 -1331 1297 -1286 
Q 1028 -1241 775 -1147 
L 775 -588 
Q 1028 -725 1275 -790 
Q 1522 -856 1778 -856 
Q 2344 -856 2625 -561 
Q 2906 -266 2906 331 
L 2906 616 
Q 2728 306 2450 153 
Q 2172 0 1784 0 
Q 1141 0 747 490 
Q 353 981 353 1791 
Q 353 2603 747 3093 
Q 1141 3584 1784 3584 
Q 2172 3584 2450 3431 
Q 2728 3278 2906 2969 
L 2906 3500 
L 3481 3500 
L 3481 434 
z
" transform="scale(0.015625)"/>
       <path id="DejaVuSans-6e" d="M 3513 2113 
L 3513 0 
L 2938 0 
L 2938 2094 
Q 2938 2591 2744 2837 
Q 2550 3084 2163 3084 
Q 1697 3084 1428 2787 
Q 1159 2491 1159 1978 
L 1159 0 
L 581 0 
L 581 3500 
L 1159 3500 
L 1159 2956 
Q 1366 3272 1645 3428 
Q 1925 3584 2291 3584 
Q 2894 3584 3203 3211 
Q 3513 2838 3513 2113 
z
" transform="scale(0.015625)"/>
       <path id="DejaVuSans-69" d="M 603 3500 
L 1178 3500 
L 1178 0 
L 603 0 
L 603 3500 
z
M 603 4863 
L 1178 4863 
L 1178 4134 
L 603 4134 
L 603 4863 
z
" transform="scale(0.015625)"/>
       <path id="DejaVuSans-74" d="M 1172 4494 
L 1172 3500 
L 2356 3500 
L 2356 3053 
L 1172 3053 
L 1172 1153 
Q 1172 725 1289 603 
Q 1406 481 1766 481 
L 2356 481 
L 2356 0 
L 1766 0 
Q 1100 0 847 248 
Q 594 497 594 1153 
L 594 3053 
L 172 3053 
L 172 3500 
L 594 3500 
L 594 4494 
L 1172 4494 
z
" transform="scale(0.015625)"/>
       <path id="DejaVuSans-75" d="M 544 1381 
L 544 3500 
L 1119 3500 
L 1119 1403 
Q 1119 906 1312 657 
Q 1506 409 1894 409 
Q 2359 409 2629 706 
Q 2900 1003 2900 1516 
L 2900 3500 
L 3475 3500 
L 3475 0 
L 2900 0 
L 2900 538 
Q 2691 219 2414 64 
Q 2138 -91 1772 -91 
Q 1169 -91 856 284 
Q 544 659 544 1381 
z
M 1991 3584 
L 1991 3584 
z
" transform="scale(0.015625)"/>
       <path id="DejaVuSans-64" d="M 2906 2969 
L 2906 4863 
L 3481 4863 
L 3481 0 
L 2906 0 
L 2906 525 
Q 2725 213 2448 61 
Q 2172 -91 1784 -91 
Q 1150 -91 751 415 
Q 353 922 353 1747 
Q 353 2572 751 3078 
Q 1150 3584 1784 3584 
Q 2172 3584 2448 3432 
Q 2725 3281 2906 2969 
z
M 947 1747 
Q 947 1113 1208 752 
Q 1469 391 1925 391 
Q 2381 391 2643 752 
Q 2906 1113 2906 1747 
Q 2906 2381 2643 2742 
Q 2381 3103 1925 3103 
Q 1469 3103 1208 2742 
Q 947 2381 947 1747 
z
" transform="scale(0.015625)"/>
       <path id="DejaVuSans-65" d="M 3597 1894 
L 3597 1613 
L 953 1613 
Q 991 1019 1311 708 
Q 1631 397 2203 397 
Q 2534 397 2845 478 
Q 3156 559 3463 722 
L 3463 178 
Q 3153 47 2828 -22 
Q 2503 -91 2169 -91 
Q 1331 -91 842 396 
Q 353 884 353 1716 
Q 353 2575 817 3079 
Q 1281 3584 2069 3584 
Q 2775 3584 3186 3129 
Q 3597 2675 3597 1894 
z
M 3022 2063 
Q 3016 2534 2758 2815 
Q 2500 3097 2075 3097 
Q 1594 3097 1305 2825 
Q 1016 2553 972 2059 
L 3022 2063 
z
" transform="scale(0.015625)"/>
      </defs>
      <use xlink:href="#DejaVuSans-4d"/>
      <use xlink:href="#DejaVuSans-61" x="86.279297"/>
      <use xlink:href="#DejaVuSans-67" x="147.558594"/>
      <use xlink:href="#DejaVuSans-6e" x="211.035156"/>
      <use xlink:href="#DejaVuSans-69" x="274.414062"/>
      <use xlink:href="#DejaVuSans-74" x="302.197266"/>
      <use xlink:href="#DejaVuSans-75" x="341.40625"/>
      <use xlink:href="#DejaVuSans-64" x="404.785156"/>
      <use xlink:href="#DejaVuSans-65" x="468.261719"/>
     </g>
    </g>
   </g>
   <g id="line2d_79">
    <path d="M 54.2 111.171091 
L 72.069781 110.590138 
L 87.220247 109.878515 
L 100.039873 109.061429 
L 111.694078 108.096813 
L 122.182862 107.003722 
L 131.506226 105.816117 
L 140.441117 104.453133 
L 148.59906 102.986366 
L 156.36853 101.36413 
L 163.749527 99.592867 
L 170.74205 97.682507 
L 177.346099 95.646192 
L 183.561675 93.500029 
L 189.388778 91.262942 
L 195.21588 88.783259 
L 200.654509 86.224997 
L 205.704665 83.614868 
L 210.75482 80.754721 
L 215.416502 77.872147 
L 220.078184 74.741689 
L 225.12834 71.070081 
L 230.955442 66.538155 
L 237.947965 61.104527 
L 240.66728 59.239244 
L 242.998121 57.8878 
L 244.940488 57.000168 
L 246.882856 56.373825 
L 248.43675 56.078963 
L 249.990644 55.971927 
L 251.933011 56.092694 
L 253.875379 56.468173 
L 256.20622 57.194001 
L 258.925534 58.314414 
L 262.810269 60.197929 
L 273.299054 65.407168 
L 278.349209 67.601875 
L 283.399365 69.536957 
L 288.44952 71.228125 
L 293.888149 72.806749 
L 299.715252 74.256931 
L 305.930828 75.570997 
L 312.923351 76.810352 
L 320.304347 77.893217 
L 328.850764 78.913911 
L 338.174128 79.800907 
L 349.051386 80.604508 
L 361.482538 81.2931 
L 376.244531 81.880022 
L 394.114312 82.359384 
L 416.645775 82.732684 
L 442.285026 82.972188 
L 442.285026 82.972188 
" clip-path="url(#p480e4e5f2a)" style="fill: none; stroke: #1f77b4; stroke-width: 1.5; stroke-linecap: square"/>
   </g>
   <g id="line2d_80">
    <path d="M 54.2 148.66204 
L 65.854205 147.490211 
L 77.119936 146.133744 
L 87.997194 144.597135 
L 98.485979 142.891335 
L 108.974763 140.956322 
L 119.075074 138.86997 
L 129.175385 136.559438 
L 139.275696 134.018622 
L 148.987534 131.350413 
L 158.699371 128.450172 
L 168.022735 125.432741 
L 176.957626 122.308328 
L 185.504043 119.085203 
L 193.661986 115.770271 
L 201.431456 112.369463 
L 208.812453 108.887915 
L 215.416502 105.534939 
L 221.632078 102.141352 
L 227.459181 98.715035 
L 232.89781 95.264418 
L 237.947965 91.799053 
L 242.609647 88.33049 
L 246.882856 84.873524 
L 250.767591 81.447875 
L 254.263852 78.08028 
L 257.37164 74.806941 
L 260.479428 71.205102 
L 263.198743 67.715712 
L 265.918057 63.825618 
L 268.248898 60.085814 
L 270.579739 55.866916 
L 272.522107 51.890214 
L 274.464474 47.398002 
L 276.406842 42.318874 
L 280.68005 30.513718 
L 281.456997 29.134566 
L 281.845471 28.682523 
L 282.233944 28.41342 
L 282.622418 28.336288 
L 283.010891 28.450716 
L 283.399365 28.746924 
L 284.176312 29.808854 
L 284.953259 31.333745 
L 286.507153 35.039001 
L 289.226467 41.516863 
L 291.168835 45.495788 
L 293.111202 48.911438 
L 295.05357 51.851368 
L 296.995937 54.403069 
L 299.326778 57.05293 
L 301.657619 59.34218 
L 303.98846 61.34167 
L 306.707775 63.378238 
L 309.427089 65.155132 
L 312.534877 66.927542 
L 316.031139 68.653755 
L 319.915874 70.303175 
L 324.189082 71.854682 
L 328.850764 73.294845 
L 333.90092 74.616277 
L 339.728022 75.894331 
L 345.943598 77.025568 
L 352.936121 78.071949 
L 361.094065 79.055875 
L 370.417429 79.940314 
L 380.906213 80.704745 
L 393.337365 81.378547 
L 408.099358 81.94648 
L 426.357612 82.414045 
L 442.285026 82.681991 
L 442.285026 82.681991 
" clip-path="url(#p480e4e5f2a)" style="fill: none; stroke: #ff7f0e; stroke-width: 1.5; stroke-linecap: square"/>
   </g>
   <g id="patch_3">
    <path d="M 54.2 154.678327 
L 54.2 22.32 
" style="fill: none; stroke: #000000; stroke-width: 0.8; stroke-linejoin: miter; stroke-linecap: square"/>
   </g>
   <g id="patch_4">
    <path d="M 442.285026 154.678327 
L 442.285026 22.32 
" style="fill: none; stroke: #000000; stroke-width: 0.8; stroke-linejoin: miter; stroke-linecap: square"/>
   </g>
   <g id="patch_5">
    <path d="M 54.2 154.678327 
L 442.285026 154.678327 
" style="fill: none; stroke: #000000; stroke-width: 0.8; stroke-linejoin: miter; stroke-linecap: square"/>
   </g>
   <g id="patch_6">
    <path d="M 54.2 22.32 
L 442.285026 22.32 
" style="fill: none; stroke: #000000; stroke-width: 0.8; stroke-linejoin: miter; stroke-linecap: square"/>
   </g>
   <g id="legend_1">
    <g id="patch_7">
     <path d="M 393.335254 99.726782 
L 437.427026 99.726782 
Q 438.815026 99.726782 438.815026 98.338782 
L 438.815026 78.659545 
Q 438.815026 77.271545 437.427026 77.271545 
L 393.335254 77.271545 
Q 391.947254 77.271545 391.947254 78.659545 
L 391.947254 98.338782 
Q 391.947254 99.726782 393.335254 99.726782 
z
" style="fill: #ffffff; opacity: 0.8; stroke: #cccccc; stroke-linejoin: miter"/>
    </g>
    <g id="line2d_81">
     <path d="M 394.723254 82.891861 
L 401.663254 82.891861 
L 408.603254 82.891861 
" style="fill: none; stroke: #1f77b4; stroke-width: 1.5; stroke-linecap: square"/>
    </g>
    <g id="text_4">
     <!-- S1/We -->
     <g transform="translate(414.155254 85.320861) scale(0.0694 -0.0694)">
      <defs>
       <path id="DejaVuSans-53" d="M 3425 4513 
L 3425 3897 
Q 3066 4069 2747 4153 
Q 2428 4238 2131 4238 
Q 1616 4238 1336 4038 
Q 1056 3838 1056 3469 
Q 1056 3159 1242 3001 
Q 1428 2844 1947 2747 
L 2328 2669 
Q 3034 2534 3370 2195 
Q 3706 1856 3706 1288 
Q 3706 609 3251 259 
Q 2797 -91 1919 -91 
Q 1588 -91 1214 -16 
Q 841 59 441 206 
L 441 856 
Q 825 641 1194 531 
Q 1563 422 1919 422 
Q 2459 422 2753 634 
Q 3047 847 3047 1241 
Q 3047 1584 2836 1778 
Q 2625 1972 2144 2069 
L 1759 2144 
Q 1053 2284 737 2584 
Q 422 2884 422 3419 
Q 422 4038 858 4394 
Q 1294 4750 2059 4750 
Q 2388 4750 2728 4690 
Q 3069 4631 3425 4513 
z
" transform="scale(0.015625)"/>
       <path id="DejaVuSans-2f" d="M 1625 4666 
L 2156 4666 
L 531 -594 
L 0 -594 
L 1625 4666 
z
" transform="scale(0.015625)"/>
       <path id="DejaVuSans-57" d="M 213 4666 
L 850 4666 
L 1831 722 
L 2809 4666 
L 3519 4666 
L 4500 722 
L 5478 4666 
L 6119 4666 
L 4947 0 
L 4153 0 
L 3169 4050 
L 2175 0 
L 1381 0 
L 213 4666 
z
" transform="scale(0.015625)"/>
      </defs>
      <use xlink:href="#DejaVuSans-53"/>
      <use xlink:href="#DejaVuSans-31" x="63.476562"/>
      <use xlink:href="#DejaVuSans-2f" x="127.099609"/>
      <use xlink:href="#DejaVuSans-57" x="160.791016"/>
      <use xlink:href="#DejaVuSans-65" x="253.792969"/>
     </g>
    </g>
    <g id="line2d_82">
     <path d="M 394.723254 93.078479 
L 401.663254 93.078479 
L 408.603254 93.078479 
" style="fill: none; stroke: #ff7f0e; stroke-width: 1.5; stroke-linecap: square"/>
    </g>
    <g id="text_5">
     <!-- S2/We -->
     <g transform="translate(414.155254 95.507479) scale(0.0694 -0.0694)">
      <defs>
       <path id="DejaVuSans-32" d="M 1228 531 
L 3431 531 
L 3431 0 
L 469 0 
L 469 531 
Q 828 903 1448 1529 
Q 2069 2156 2228 2338 
Q 2531 2678 2651 2914 
Q 2772 3150 2772 3378 
Q 2772 3750 2511 3984 
Q 2250 4219 1831 4219 
Q 1534 4219 1204 4116 
Q 875 4013 500 3803 
L 500 4441 
Q 881 4594 1212 4672 
Q 1544 4750 1819 4750 
Q 2544 4750 2975 4387 
Q 3406 4025 3406 3419 
Q 3406 3131 3298 2873 
Q 3191 2616 2906 2266 
Q 2828 2175 2409 1742 
Q 1991 1309 1228 531 
z
" transform="scale(0.015625)"/>
      </defs>
      <use xlink:href="#DejaVuSans-53"/>
      <use xlink:href="#DejaVuSans-32" x="63.476562"/>
      <use xlink:href="#DejaVuSans-2f" x="127.099609"/>
      <use xlink:href="#DejaVuSans-57" x="160.791016"/>
      <use xlink:href="#DejaVuSans-65" x="253.792969"/>
     </g>
    </g>
   </g>
  </g>
  <g id="axes_2">
   <g id="patch_8">
    <path d="M 54.2 302.488 
L 442.285026 302.488 
L 442.285026 170.129673 
L 54.2 170.129673 
z
" style="fill: #ffffff"/>
   </g>
   <g id="matplotlib.axis_3">
    <g id="xtick_20">
     <g id="line2d_83">
      <path d="M 54.2 302.488 
L 54.2 170.129673 
" clip-path="url(#p2fd14cc53c)" style="fill: none; stroke: #b0b0b0; stroke-width: 0.8; stroke-linecap: square"/>
     </g>
     <g id="line2d_84">
      <g>
       <use xlink:href="#m9d22580f8c" x="54.2" y="302.488" style="stroke: #000000; stroke-width: 0.8"/>
      </g>
     </g>
     <g id="text_6">
      <!-- $\mathdefault{10^{1}}$ -->
      <g transform="translate(46.8696 315.817498) scale(0.0833 -0.0833)">
       <use xlink:href="#DejaVuSans-31" transform="translate(0 0.684375)"/>
       <use xlink:href="#DejaVuSans-30" transform="translate(63.623047 0.684375)"/>
       <use xlink:href="#DejaVuSans-31" transform="translate(128.203125 38.965625) scale(0.7)"/>
      </g>
     </g>
    </g>
    <g id="xtick_21">
     <g id="line2d_85">
      <path d="M 248.242513 302.488 
L 248.242513 170.129673 
" clip-path="url(#p2fd14cc53c)" style="fill: none; stroke: #b0b0b0; stroke-width: 0.8; stroke-linecap: square"/>
     </g>
     <g id="line2d_86">
      <g>
       <use xlink:href="#m9d22580f8c" x="248.242513" y="302.488" style="stroke: #000000; stroke-width: 0.8"/>
      </g>
     </g>
     <g id="text_7">
      <!-- $\mathdefault{10^{2}}$ -->
      <g transform="translate(240.912113 315.817498) scale(0.0833 -0.0833)">
       <use xlink:href="#DejaVuSans-31" transform="translate(0 0.765625)"/>
       <use xlink:href="#DejaVuSans-30" transform="translate(63.623047 0.765625)"/>
       <use xlink:href="#DejaVuSans-32" transform="translate(128.203125 39.046875) scale(0.7)"/>
      </g>
     </g>
    </g>
    <g id="xtick_22">
     <g id="line2d_87">
      <path d="M 442.285026 302.488 
L 442.285026 170.129673 
" clip-path="url(#p2fd14cc53c)" style="fill: none; stroke: #b0b0b0; stroke-width: 0.8; stroke-linecap: square"/>
     </g>
     <g id="line2d_88">
      <g>
       <use xlink:href="#m9d22580f8c" x="442.285026" y="302.488" style="stroke: #000000; stroke-width: 0.8"/>
      </g>
     </g>
     <g id="text_8">
      <!-- $\mathdefault{10^{3}}$ -->
      <g transform="translate(434.954626 315.817498) scale(0.0833 -0.0833)">
       <defs>
        <path id="DejaVuSans-33" d="M 2597 2516 
Q 3050 2419 3304 2112 
Q 3559 1806 3559 1356 
Q 3559 666 3084 287 
Q 2609 -91 1734 -91 
Q 1441 -91 1130 -33 
Q 819 25 488 141 
L 488 750 
Q 750 597 1062 519 
Q 1375 441 1716 441 
Q 2309 441 2620 675 
Q 2931 909 2931 1356 
Q 2931 1769 2642 2001 
Q 2353 2234 1838 2234 
L 1294 2234 
L 1294 2753 
L 1863 2753 
Q 2328 2753 2575 2939 
Q 2822 3125 2822 3475 
Q 2822 3834 2567 4026 
Q 2313 4219 1838 4219 
Q 1578 4219 1281 4162 
Q 984 4106 628 3988 
L 628 4550 
Q 988 4650 1302 4700 
Q 1616 4750 1894 4750 
Q 2613 4750 3031 4423 
Q 3450 4097 3450 3541 
Q 3450 3153 3228 2886 
Q 3006 2619 2597 2516 
z
" transform="scale(0.015625)"/>
       </defs>
       <use xlink:href="#DejaVuSans-31" transform="translate(0 0.765625)"/>
       <use xlink:href="#DejaVuSans-30" transform="translate(63.623047 0.765625)"/>
       <use xlink:href="#DejaVuSans-33" transform="translate(128.203125 39.046875) scale(0.7)"/>
      </g>
     </g>
    </g>
    <g id="xtick_23">
     <g id="line2d_89">
      <path d="M 112.612617 302.488 
L 112.612617 170.129673 
" clip-path="url(#p2fd14cc53c)" style="fill: none; stroke: #b0b0b0; stroke-width: 0.8; stroke-linecap: square"/>
     </g>
     <g id="line2d_90">
      <g>
       <use xlink:href="#m21494441d5" x="112.612617" y="302.488" style="stroke: #000000; stroke-width: 0.6"/>
      </g>
     </g>
    </g>
    <g id="xtick_24">
     <g id="line2d_91">
      <path d="M 146.781807 302.488 
L 146.781807 170.129673 
" clip-path="url(#p2fd14cc53c)" style="fill: none; stroke: #b0b0b0; stroke-width: 0.8; stroke-linecap: square"/>
     </g>
     <g id="line2d_92">
      <g>
       <use xlink:href="#m21494441d5" x="146.781807" y="302.488" style="stroke: #000000; stroke-width: 0.6"/>
      </g>
     </g>
    </g>
    <g id="xtick_25">
     <g id="line2d_93">
      <path d="M 171.025234 302.488 
L 171.025234 170.129673 
" clip-path="url(#p2fd14cc53c)" style="fill: none; stroke: #b0b0b0; stroke-width: 0.8; stroke-linecap: square"/>
     </g>
     <g id="line2d_94">
      <g>
       <use xlink:href="#m21494441d5" x="171.025234" y="302.488" style="stroke: #000000; stroke-width: 0.6"/>
      </g>
     </g>
    </g>
    <g id="xtick_26">
     <g id="line2d_95">
      <path d="M 189.829896 302.488 
L 189.829896 170.129673 
" clip-path="url(#p2fd14cc53c)" style="fill: none; stroke: #b0b0b0; stroke-width: 0.8; stroke-linecap: square"/>
     </g>
     <g id="line2d_96">
      <g>
       <use xlink:href="#m21494441d5" x="189.829896" y="302.488" style="stroke: #000000; stroke-width: 0.6"/>
      </g>
     </g>
    </g>
    <g id="xtick_27">
     <g id="line2d_97">
      <path d="M 205.194424 302.488 
L 205.194424 170.129673 
" clip-path="url(#p2fd14cc53c)" style="fill: none; stroke: #b0b0b0; stroke-width: 0.8; stroke-linecap: square"/>
     </g>
     <g id="line2d_98">
      <g>
       <use xlink:href="#m21494441d5" x="205.194424" y="302.488" style="stroke: #000000; stroke-width: 0.6"/>
      </g>
     </g>
    </g>
    <g id="xtick_28">
     <g id="line2d_99">
      <path d="M 218.184947 302.488 
L 218.184947 170.129673 
" clip-path="url(#p2fd14cc53c)" style="fill: none; stroke: #b0b0b0; stroke-width: 0.8; stroke-linecap: square"/>
     </g>
     <g id="line2d_100">
      <g>
       <use xlink:href="#m21494441d5" x="218.184947" y="302.488" style="stroke: #000000; stroke-width: 0.6"/>
      </g>
     </g>
    </g>
    <g id="xtick_29">
     <g id="line2d_101">
      <path d="M 229.437851 302.488 
L 229.437851 170.129673 
" clip-path="url(#p2fd14cc53c)" style="fill: none; stroke: #b0b0b0; stroke-width: 0.8; stroke-linecap: square"/>
     </g>
     <g id="line2d_102">
      <g>
       <use xlink:href="#m21494441d5" x="229.437851" y="302.488" style="stroke: #000000; stroke-width: 0.6"/>
      </g>
     </g>
    </g>
    <g id="xtick_30">
     <g id="line2d_103">
      <path d="M 239.363615 302.488 
L 239.363615 170.129673 
" clip-path="url(#p2fd14cc53c)" style="fill: none; stroke: #b0b0b0; stroke-width: 0.8; stroke-linecap: square"/>
     </g>
     <g id="line2d_104">
      <g>
       <use xlink:href="#m21494441d5" x="239.363615" y="302.488" style="stroke: #000000; stroke-width: 0.6"/>
      </g>
     </g>
    </g>
    <g id="xtick_31">
     <g id="line2d_105">
      <path d="M 306.65513 302.488 
L 306.65513 170.129673 
" clip-path="url(#p2fd14cc53c)" style="fill: none; stroke: #b0b0b0; stroke-width: 0.8; stroke-linecap: square"/>
     </g>
     <g id="line2d_106">
      <g>
       <use xlink:href="#m21494441d5" x="306.65513" y="302.488" style="stroke: #000000; stroke-width: 0.6"/>
      </g>
     </g>
    </g>
    <g id="xtick_32">
     <g id="line2d_107">
      <path d="M 340.82432 302.488 
L 340.82432 170.129673 
" clip-path="url(#p2fd14cc53c)" style="fill: none; stroke: #b0b0b0; stroke-width: 0.8; stroke-linecap: square"/>
     </g>
     <g id="line2d_108">
      <g>
       <use xlink:href="#m21494441d5" x="340.82432" y="302.488" style="stroke: #000000; stroke-width: 0.6"/>
      </g>
     </g>
    </g>
    <g id="xtick_33">
     <g id="line2d_109">
      <path d="M 365.067747 302.488 
L 365.067747 170.129673 
" clip-path="url(#p2fd14cc53c)" style="fill: none; stroke: #b0b0b0; stroke-width: 0.8; stroke-linecap: square"/>
     </g>
     <g id="line2d_110">
      <g>
       <use xlink:href="#m21494441d5" x="365.067747" y="302.488" style="stroke: #000000; stroke-width: 0.6"/>
      </g>
     </g>
    </g>
    <g id="xtick_34">
     <g id="line2d_111">
      <path d="M 383.872409 302.488 
L 383.872409 170.129673 
" clip-path="url(#p2fd14cc53c)" style="fill: none; stroke: #b0b0b0; stroke-width: 0.8; stroke-linecap: square"/>
     </g>
     <g id="line2d_112">
      <g>
       <use xlink:href="#m21494441d5" x="383.872409" y="302.488" style="stroke: #000000; stroke-width: 0.6"/>
      </g>
     </g>
    </g>
    <g id="xtick_35">
     <g id="line2d_113">
      <path d="M 399.236937 302.488 
L 399.236937 170.129673 
" clip-path="url(#p2fd14cc53c)" style="fill: none; stroke: #b0b0b0; stroke-width: 0.8; stroke-linecap: square"/>
     </g>
     <g id="line2d_114">
      <g>
       <use xlink:href="#m21494441d5" x="399.236937" y="302.488" style="stroke: #000000; stroke-width: 0.6"/>
      </g>
     </g>
    </g>
    <g id="xtick_36">
     <g id="line2d_115">
      <path d="M 412.22746 302.488 
L 412.22746 170.129673 
" clip-path="url(#p2fd14cc53c)" style="fill: none; stroke: #b0b0b0; stroke-width: 0.8; stroke-linecap: square"/>
     </g>
     <g id="line2d_116">
      <g>
       <use xlink:href="#m21494441d5" x="412.22746" y="302.488" style="stroke: #000000; stroke-width: 0.6"/>
      </g>
     </g>
    </g>
    <g id="xtick_37">
     <g id="line2d_117">
      <path d="M 423.480364 302.488 
L 423.480364 170.129673 
" clip-path="url(#p2fd14cc53c)" style="fill: none; stroke: #b0b0b0; stroke-width: 0.8; stroke-linecap: square"/>
     </g>
     <g id="line2d_118">
      <g>
       <use xlink:href="#m21494441d5" x="423.480364" y="302.488" style="stroke: #000000; stroke-width: 0.6"/>
      </g>
     </g>
    </g>
    <g id="xtick_38">
     <g id="line2d_119">
      <path d="M 433.406128 302.488 
L 433.406128 170.129673 
" clip-path="url(#p2fd14cc53c)" style="fill: none; stroke: #b0b0b0; stroke-width: 0.8; stroke-linecap: square"/>
     </g>
     <g id="line2d_120">
      <g>
       <use xlink:href="#m21494441d5" x="433.406128" y="302.488" style="stroke: #000000; stroke-width: 0.6"/>
      </g>
     </g>
    </g>
    <g id="text_9">
     <!-- Frequency [rad/s] -->
     <g transform="translate(211.67121 327.879377) scale(0.0833 -0.0833)">
      <defs>
       <path id="DejaVuSans-46" d="M 628 4666 
L 3309 4666 
L 3309 4134 
L 1259 4134 
L 1259 2759 
L 3109 2759 
L 3109 2228 
L 1259 2228 
L 1259 0 
L 628 0 
L 628 4666 
z
" transform="scale(0.015625)"/>
       <path id="DejaVuSans-72" d="M 2631 2963 
Q 2534 3019 2420 3045 
Q 2306 3072 2169 3072 
Q 1681 3072 1420 2755 
Q 1159 2438 1159 1844 
L 1159 0 
L 581 0 
L 581 3500 
L 1159 3500 
L 1159 2956 
Q 1341 3275 1631 3429 
Q 1922 3584 2338 3584 
Q 2397 3584 2469 3576 
Q 2541 3569 2628 3553 
L 2631 2963 
z
" transform="scale(0.015625)"/>
       <path id="DejaVuSans-71" d="M 947 1747 
Q 947 1113 1208 752 
Q 1469 391 1925 391 
Q 2381 391 2643 752 
Q 2906 1113 2906 1747 
Q 2906 2381 2643 2742 
Q 2381 3103 1925 3103 
Q 1469 3103 1208 2742 
Q 947 2381 947 1747 
z
M 2906 525 
Q 2725 213 2448 61 
Q 2172 -91 1784 -91 
Q 1150 -91 751 415 
Q 353 922 353 1747 
Q 353 2572 751 3078 
Q 1150 3584 1784 3584 
Q 2172 3584 2448 3432 
Q 2725 3281 2906 2969 
L 2906 3500 
L 3481 3500 
L 3481 -1331 
L 2906 -1331 
L 2906 525 
z
" transform="scale(0.015625)"/>
       <path id="DejaVuSans-63" d="M 3122 3366 
L 3122 2828 
Q 2878 2963 2633 3030 
Q 2388 3097 2138 3097 
Q 1578 3097 1268 2742 
Q 959 2388 959 1747 
Q 959 1106 1268 751 
Q 1578 397 2138 397 
Q 2388 397 2633 464 
Q 2878 531 3122 666 
L 3122 134 
Q 2881 22 2623 -34 
Q 2366 -91 2075 -91 
Q 1284 -91 818 406 
Q 353 903 353 1747 
Q 353 2603 823 3093 
Q 1294 3584 2113 3584 
Q 2378 3584 2631 3529 
Q 2884 3475 3122 3366 
z
" transform="scale(0.015625)"/>
       <path id="DejaVuSans-79" d="M 2059 -325 
Q 1816 -950 1584 -1140 
Q 1353 -1331 966 -1331 
L 506 -1331 
L 506 -850 
L 844 -850 
Q 1081 -850 1212 -737 
Q 1344 -625 1503 -206 
L 1606 56 
L 191 3500 
L 800 3500 
L 1894 763 
L 2988 3500 
L 3597 3500 
L 2059 -325 
z
" transform="scale(0.015625)"/>
       <path id="DejaVuSans-20" transform="scale(0.015625)"/>
       <path id="DejaVuSans-5b" d="M 550 4863 
L 1875 4863 
L 1875 4416 
L 1125 4416 
L 1125 -397 
L 1875 -397 
L 1875 -844 
L 550 -844 
L 550 4863 
z
" transform="scale(0.015625)"/>
       <path id="DejaVuSans-73" d="M 2834 3397 
L 2834 2853 
Q 2591 2978 2328 3040 
Q 2066 3103 1784 3103 
Q 1356 3103 1142 2972 
Q 928 2841 928 2578 
Q 928 2378 1081 2264 
Q 1234 2150 1697 2047 
L 1894 2003 
Q 2506 1872 2764 1633 
Q 3022 1394 3022 966 
Q 3022 478 2636 193 
Q 2250 -91 1575 -91 
Q 1294 -91 989 -36 
Q 684 19 347 128 
L 347 722 
Q 666 556 975 473 
Q 1284 391 1588 391 
Q 1994 391 2212 530 
Q 2431 669 2431 922 
Q 2431 1156 2273 1281 
Q 2116 1406 1581 1522 
L 1381 1569 
Q 847 1681 609 1914 
Q 372 2147 372 2553 
Q 372 3047 722 3315 
Q 1072 3584 1716 3584 
Q 2034 3584 2315 3537 
Q 2597 3491 2834 3397 
z
" transform="scale(0.015625)"/>
       <path id="DejaVuSans-5d" d="M 1947 4863 
L 1947 -844 
L 622 -844 
L 622 -397 
L 1369 -397 
L 1369 4416 
L 622 4416 
L 622 4863 
L 1947 4863 
z
" transform="scale(0.015625)"/>
      </defs>
      <use xlink:href="#DejaVuSans-46"/>
      <use xlink:href="#DejaVuSans-72" x="50.269531"/>
      <use xlink:href="#DejaVuSans-65" x="89.132812"/>
      <use xlink:href="#DejaVuSans-71" x="150.65625"/>
      <use xlink:href="#DejaVuSans-75" x="214.132812"/>
      <use xlink:href="#DejaVuSans-65" x="277.511719"/>
      <use xlink:href="#DejaVuSans-6e" x="339.035156"/>
      <use xlink:href="#DejaVuSans-63" x="402.414062"/>
      <use xlink:href="#DejaVuSans-79" x="457.394531"/>
      <use xlink:href="#DejaVuSans-20" x="516.574219"/>
      <use xlink:href="#DejaVuSans-5b" x="548.361328"/>
      <use xlink:href="#DejaVuSans-72" x="587.375"/>
      <use xlink:href="#DejaVuSans-61" x="628.488281"/>
      <use xlink:href="#DejaVuSans-64" x="689.767578"/>
      <use xlink:href="#DejaVuSans-2f" x="753.244141"/>
      <use xlink:href="#DejaVuSans-73" x="786.935547"/>
      <use xlink:href="#DejaVuSans-5d" x="839.035156"/>
     </g>
    </g>
   </g>
   <g id="matplotlib.axis_4">
    <g id="ytick_21">
     <g id="line2d_121">
      <path d="M 54.2 283.385066 
L 442.285026 283.385066 
" clip-path="url(#p2fd14cc53c)" style="fill: none; stroke: #b0b0b0; stroke-width: 0.8; stroke-linecap: square"/>
     </g>
     <g id="line2d_122">
      <g>
       <use xlink:href="#m0e19bcdd2e" x="54.2" y="283.385066" style="stroke: #000000; stroke-width: 0.8"/>
      </g>
     </g>
     <g id="text_10">
      <!-- −360 -->
      <g transform="translate(24.319833 286.549815) scale(0.0833 -0.0833)">
       <defs>
        <path id="DejaVuSans-36" d="M 2113 2584 
Q 1688 2584 1439 2293 
Q 1191 2003 1191 1497 
Q 1191 994 1439 701 
Q 1688 409 2113 409 
Q 2538 409 2786 701 
Q 3034 994 3034 1497 
Q 3034 2003 2786 2293 
Q 2538 2584 2113 2584 
z
M 3366 4563 
L 3366 3988 
Q 3128 4100 2886 4159 
Q 2644 4219 2406 4219 
Q 1781 4219 1451 3797 
Q 1122 3375 1075 2522 
Q 1259 2794 1537 2939 
Q 1816 3084 2150 3084 
Q 2853 3084 3261 2657 
Q 3669 2231 3669 1497 
Q 3669 778 3244 343 
Q 2819 -91 2113 -91 
Q 1303 -91 875 529 
Q 447 1150 447 2328 
Q 447 3434 972 4092 
Q 1497 4750 2381 4750 
Q 2619 4750 2861 4703 
Q 3103 4656 3366 4563 
z
" transform="scale(0.015625)"/>
       </defs>
       <use xlink:href="#DejaVuSans-2212"/>
       <use xlink:href="#DejaVuSans-33" x="83.789062"/>
       <use xlink:href="#DejaVuSans-36" x="147.412109"/>
       <use xlink:href="#DejaVuSans-30" x="211.035156"/>
      </g>
     </g>
    </g>
    <g id="ytick_22">
     <g id="line2d_123">
      <path d="M 54.2 246.487597 
L 442.285026 246.487597 
" clip-path="url(#p2fd14cc53c)" style="fill: none; stroke: #b0b0b0; stroke-width: 0.8; stroke-linecap: square"/>
     </g>
     <g id="line2d_124">
      <g>
       <use xlink:href="#m0e19bcdd2e" x="54.2" y="246.487597" style="stroke: #000000; stroke-width: 0.8"/>
      </g>
     </g>
     <g id="text_11">
      <!-- −315 -->
      <g transform="translate(24.319833 249.652346) scale(0.0833 -0.0833)">
       <defs>
        <path id="DejaVuSans-35" d="M 691 4666 
L 3169 4666 
L 3169 4134 
L 1269 4134 
L 1269 2991 
Q 1406 3038 1543 3061 
Q 1681 3084 1819 3084 
Q 2600 3084 3056 2656 
Q 3513 2228 3513 1497 
Q 3513 744 3044 326 
Q 2575 -91 1722 -91 
Q 1428 -91 1123 -41 
Q 819 9 494 109 
L 494 744 
Q 775 591 1075 516 
Q 1375 441 1709 441 
Q 2250 441 2565 725 
Q 2881 1009 2881 1497 
Q 2881 1984 2565 2268 
Q 2250 2553 1709 2553 
Q 1456 2553 1204 2497 
Q 953 2441 691 2322 
L 691 4666 
z
" transform="scale(0.015625)"/>
       </defs>
       <use xlink:href="#DejaVuSans-2212"/>
       <use xlink:href="#DejaVuSans-33" x="83.789062"/>
       <use xlink:href="#DejaVuSans-31" x="147.412109"/>
       <use xlink:href="#DejaVuSans-35" x="211.035156"/>
      </g>
     </g>
    </g>
    <g id="ytick_23">
     <g id="line2d_125">
      <path d="M 54.2 209.590128 
L 442.285026 209.590128 
" clip-path="url(#p2fd14cc53c)" style="fill: none; stroke: #b0b0b0; stroke-width: 0.8; stroke-linecap: square"/>
     </g>
     <g id="line2d_126">
      <g>
       <use xlink:href="#m0e19bcdd2e" x="54.2" y="209.590128" style="stroke: #000000; stroke-width: 0.8"/>
      </g>
     </g>
     <g id="text_12">
      <!-- −270 -->
      <g transform="translate(24.319833 212.754877) scale(0.0833 -0.0833)">
       <defs>
        <path id="DejaVuSans-37" d="M 525 4666 
L 3525 4666 
L 3525 4397 
L 1831 0 
L 1172 0 
L 2766 4134 
L 525 4134 
L 525 4666 
z
" transform="scale(0.015625)"/>
       </defs>
       <use xlink:href="#DejaVuSans-2212"/>
       <use xlink:href="#DejaVuSans-32" x="83.789062"/>
       <use xlink:href="#DejaVuSans-37" x="147.412109"/>
       <use xlink:href="#DejaVuSans-30" x="211.035156"/>
      </g>
     </g>
    </g>
    <g id="ytick_24">
     <g id="line2d_127">
      <path d="M 54.2 172.692659 
L 442.285026 172.692659 
" clip-path="url(#p2fd14cc53c)" style="fill: none; stroke: #b0b0b0; stroke-width: 0.8; stroke-linecap: square"/>
     </g>
     <g id="line2d_128">
      <g>
       <use xlink:href="#m0e19bcdd2e" x="54.2" y="172.692659" style="stroke: #000000; stroke-width: 0.8"/>
      </g>
     </g>
     <g id="text_13">
      <!-- −225 -->
      <g transform="translate(24.319833 175.857408) scale(0.0833 -0.0833)">
       <use xlink:href="#DejaVuSans-2212"/>
       <use xlink:href="#DejaVuSans-32" x="83.789062"/>
       <use xlink:href="#DejaVuSans-32" x="147.412109"/>
       <use xlink:href="#DejaVuSans-35" x="211.035156"/>
      </g>
     </g>
    </g>
    <g id="ytick_25">
     <g id="line2d_129">
      <path d="M 54.2 295.684222 
L 442.285026 295.684222 
" clip-path="url(#p2fd14cc53c)" style="fill: none; stroke: #b0b0b0; stroke-width: 0.8; stroke-linecap: square"/>
     </g>
     <g id="line2d_130">
      <g>
       <use xlink:href="#m5108f21d33" x="54.2" y="295.684222" style="stroke: #000000; stroke-width: 0.6"/>
      </g>
     </g>
    </g>
    <g id="ytick_26">
     <g id="line2d_131">
      <path d="M 54.2 271.085909 
L 442.285026 271.085909 
" clip-path="url(#p2fd14cc53c)" style="fill: none; stroke: #b0b0b0; stroke-width: 0.8; stroke-linecap: square"/>
     </g>
     <g id="line2d_132">
      <g>
       <use xlink:href="#m5108f21d33" x="54.2" y="271.085909" style="stroke: #000000; stroke-width: 0.6"/>
      </g>
     </g>
    </g>
    <g id="ytick_27">
     <g id="line2d_133">
      <path d="M 54.2 258.786753 
L 442.285026 258.786753 
" clip-path="url(#p2fd14cc53c)" style="fill: none; stroke: #b0b0b0; stroke-width: 0.8; stroke-linecap: square"/>
     </g>
     <g id="line2d_134">
      <g>
       <use xlink:href="#m5108f21d33" x="54.2" y="258.786753" style="stroke: #000000; stroke-width: 0.6"/>
      </g>
     </g>
    </g>
    <g id="ytick_28">
     <g id="line2d_135">
      <path d="M 54.2 234.18844 
L 442.285026 234.18844 
" clip-path="url(#p2fd14cc53c)" style="fill: none; stroke: #b0b0b0; stroke-width: 0.8; stroke-linecap: square"/>
     </g>
     <g id="line2d_136">
      <g>
       <use xlink:href="#m5108f21d33" x="54.2" y="234.18844" style="stroke: #000000; stroke-width: 0.6"/>
      </g>
     </g>
    </g>
    <g id="ytick_29">
     <g id="line2d_137">
      <path d="M 54.2 221.889284 
L 442.285026 221.889284 
" clip-path="url(#p2fd14cc53c)" style="fill: none; stroke: #b0b0b0; stroke-width: 0.8; stroke-linecap: square"/>
     </g>
     <g id="line2d_138">
      <g>
       <use xlink:href="#m5108f21d33" x="54.2" y="221.889284" style="stroke: #000000; stroke-width: 0.6"/>
      </g>
     </g>
    </g>
    <g id="ytick_30">
     <g id="line2d_139">
      <path d="M 54.2 197.290971 
L 442.285026 197.290971 
" clip-path="url(#p2fd14cc53c)" style="fill: none; stroke: #b0b0b0; stroke-width: 0.8; stroke-linecap: square"/>
     </g>
     <g id="line2d_140">
      <g>
       <use xlink:href="#m5108f21d33" x="54.2" y="197.290971" style="stroke: #000000; stroke-width: 0.6"/>
      </g>
     </g>
    </g>
    <g id="ytick_31">
     <g id="line2d_141">
      <path d="M 54.2 184.991815 
L 442.285026 184.991815 
" clip-path="url(#p2fd14cc53c)" style="fill: none; stroke: #b0b0b0; stroke-width: 0.8; stroke-linecap: square"/>
     </g>
     <g id="line2d_142">
      <g>
       <use xlink:href="#m5108f21d33" x="54.2" y="184.991815" style="stroke: #000000; stroke-width: 0.6"/>
      </g>
     </g>
    </g>
    <g id="text_14">
     <!-- Phase [deg] -->
     <g transform="translate(18.587453 261.169331) rotate(-90) scale(0.0833 -0.0833)">
      <defs>
       <path id="DejaVuSans-50" d="M 1259 4147 
L 1259 2394 
L 2053 2394 
Q 2494 2394 2734 2622 
Q 2975 2850 2975 3272 
Q 2975 3691 2734 3919 
Q 2494 4147 2053 4147 
L 1259 4147 
z
M 628 4666 
L 2053 4666 
Q 2838 4666 3239 4311 
Q 3641 3956 3641 3272 
Q 3641 2581 3239 2228 
Q 2838 1875 2053 1875 
L 1259 1875 
L 1259 0 
L 628 0 
L 628 4666 
z
" transform="scale(0.015625)"/>
       <path id="DejaVuSans-68" d="M 3513 2113 
L 3513 0 
L 2938 0 
L 2938 2094 
Q 2938 2591 2744 2837 
Q 2550 3084 2163 3084 
Q 1697 3084 1428 2787 
Q 1159 2491 1159 1978 
L 1159 0 
L 581 0 
L 581 4863 
L 1159 4863 
L 1159 2956 
Q 1366 3272 1645 3428 
Q 1925 3584 2291 3584 
Q 2894 3584 3203 3211 
Q 3513 2838 3513 2113 
z
" transform="scale(0.015625)"/>
      </defs>
      <use xlink:href="#DejaVuSans-50"/>
      <use xlink:href="#DejaVuSans-68" x="60.302734"/>
      <use xlink:href="#DejaVuSans-61" x="123.681641"/>
      <use xlink:href="#DejaVuSans-73" x="184.960938"/>
      <use xlink:href="#DejaVuSans-65" x="237.060547"/>
      <use xlink:href="#DejaVuSans-20" x="298.583984"/>
      <use xlink:href="#DejaVuSans-5b" x="330.371094"/>
      <use xlink:href="#DejaVuSans-64" x="369.384766"/>
      <use xlink:href="#DejaVuSans-65" x="432.861328"/>
      <use xlink:href="#DejaVuSans-67" x="494.384766"/>
      <use xlink:href="#DejaVuSans-5d" x="557.861328"/>
     </g>
    </g>
   </g>
   <g id="line2d_143">
    <path d="M 54.2 267.107031 
L 64.688784 265.041649 
L 74.789095 262.831334 
L 84.889406 260.389933 
L 94.601244 257.814721 
L 104.313081 255.011126 
L 114.024919 251.980165 
L 124.12523 248.596779 
L 135.002488 244.715672 
L 147.822113 239.892988 
L 180.065414 227.626304 
L 187.44641 225.136189 
L 193.273513 223.386897 
L 198.323668 222.089122 
L 202.596877 221.200766 
L 206.481612 220.607032 
L 209.977873 220.290734 
L 213.085661 220.223291 
L 215.804976 220.36416 
L 218.52429 220.728768 
L 220.855131 221.252294 
L 223.185972 222.005423 
L 225.516813 223.027484 
L 227.459181 224.117657 
L 229.401548 225.456735 
L 231.343916 227.077915 
L 233.286283 229.016208 
L 235.228651 231.306246 
L 237.171018 233.97848 
L 239.113386 237.053376 
L 241.055753 240.533618 
L 243.386594 245.208973 
L 246.105909 251.209456 
L 253.875379 268.806465 
L 256.20622 273.393243 
L 258.537061 277.442404 
L 260.479428 280.391899 
L 262.421796 282.969303 
L 264.364163 285.201687 
L 266.306531 287.12234 
L 268.248898 288.766206 
L 270.579739 290.420929 
L 272.91058 291.778998 
L 275.241421 292.887027 
L 277.960736 293.91641 
L 280.68005 294.711813 
L 283.787838 295.388593 
L 287.2841 295.913643 
L 291.168835 296.268424 
L 295.830517 296.454477 
L 301.269146 296.432137 
L 307.873195 296.168892 
L 316.419612 295.590782 
L 329.239238 294.475896 
L 369.640482 290.840219 
L 387.898736 289.484117 
L 406.545464 288.323227 
L 426.357612 287.314806 
L 442.285026 286.649311 
L 442.285026 286.649311 
" clip-path="url(#p2fd14cc53c)" style="fill: none; stroke: #1f77b4; stroke-width: 1.5; stroke-linecap: square"/>
   </g>
   <g id="line2d_144">
    <path d="M 54.2 249.409468 
L 65.077258 245.687438 
L 76.731463 241.464776 
L 89.939562 236.435622 
L 105.866975 230.11779 
L 128.398438 220.91338 
L 178.123046 200.543671 
L 194.827407 193.964164 
L 207.647032 189.141537 
L 218.135817 185.425879 
L 227.070707 182.49678 
L 234.451704 180.305204 
L 240.66728 178.679887 
L 246.105909 177.485346 
L 250.767591 176.696799 
L 254.652326 176.272592 
L 257.760114 176.14596 
L 260.479428 176.249457 
L 262.810269 176.555472 
L 264.752637 177.017368 
L 266.695004 177.73304 
L 268.248898 178.549828 
L 269.802792 179.658773 
L 270.968213 180.742748 
L 272.133633 182.110056 
L 273.299054 183.846347 
L 274.464474 186.072313 
L 275.629895 188.960292 
L 276.406842 191.371432 
L 277.183789 194.281327 
L 277.960736 197.808813 
L 278.737683 202.091774 
L 279.51463 207.272115 
L 280.68005 216.93419 
L 282.233944 232.852007 
L 284.176312 252.947301 
L 285.341732 262.556869 
L 286.507153 269.941831 
L 287.672573 275.486408 
L 288.837994 279.655188 
L 290.003414 282.827141 
L 291.168835 285.277004 
L 292.334255 287.197143 
L 293.499676 288.72194 
L 294.665096 289.946313 
L 296.21899 291.226494 
L 297.772884 292.205021 
L 299.715252 293.118727 
L 301.657619 293.78084 
L 303.98846 294.336195 
L 306.707775 294.748698 
L 310.204036 295.023394 
L 314.477245 295.103038 
L 319.915874 294.954584 
L 327.29687 294.505056 
L 338.951075 293.540852 
L 375.856058 290.373064 
L 394.114312 289.085213 
L 413.149514 287.969994 
L 433.350135 287.011675 
L 442.285026 286.652046 
L 442.285026 286.652046 
" clip-path="url(#p2fd14cc53c)" style="fill: none; stroke: #ff7f0e; stroke-width: 1.5; stroke-linecap: square"/>
   </g>
   <g id="patch_9">
    <path d="M 54.2 302.488 
L 54.2 170.129673 
" style="fill: none; stroke: #000000; stroke-width: 0.8; stroke-linejoin: miter; stroke-linecap: square"/>
   </g>
   <g id="patch_10">
    <path d="M 442.285026 302.488 
L 442.285026 170.129673 
" style="fill: none; stroke: #000000; stroke-width: 0.8; stroke-linejoin: miter; stroke-linecap: square"/>
   </g>
   <g id="patch_11">
    <path d="M 54.2 302.488 
L 442.285026 302.488 
" style="fill: none; stroke: #000000; stroke-width: 0.8; stroke-linejoin: miter; stroke-linecap: square"/>
   </g>
   <g id="patch_12">
    <path d="M 54.2 170.129673 
L 442.285026 170.129673 
" style="fill: none; stroke: #000000; stroke-width: 0.8; stroke-linejoin: miter; stroke-linecap: square"/>
   </g>
  </g>
 </g>
 <defs>
  <clipPath id="p480e4e5f2a">
   <rect x="54.2" y="22.32" width="388.085026" height="132.358327"/>
  </clipPath>
  <clipPath id="p2fd14cc53c">
   <rect x="54.2" y="170.129673" width="388.085026" height="132.358327"/>
  </clipPath>
 </defs>
</svg>
