<?xml version="1.0" encoding="utf-8" standalone="no"?>
<!DOCTYPE svg PUBLIC "-//W3C//DTD SVG 1.1//EN"
  "http://www.w3.org/Graphics/SVG/1.1/DTD/svg11.dtd">
<svg xmlns:xlink="http://www.w3.org/1999/xlink" width="460.8pt" height="345.6pt" viewBox="0 0 460.8 345.6" xmlns="http://www.w3.org/2000/svg" version="1.1">
 <metadata>
  <rdf:RDF xmlns:dc="http://purl.org/dc/elements/1.1/" xmlns:cc="http://creativecommons.org/ns#" xmlns:rdf="http://www.w3.org/1999/02/22-rdf-syntax-ns#">
   <cc:Work>
    <dc:type rdf:resource="http://purl.org/dc/dcmitype/StillImage"/>
    <dc:date>2024-12-14T22:56:28.602004</dc:date>
    <dc:format>image/svg+xml</dc:format>
    <dc:creator>
     <cc:Agent>
      <dc:title>Matplotlib v3.9.2, https://matplotlib.org/</dc:title>
     </cc:Agent>
    </dc:creator>
   </cc:Work>
  </rdf:RDF>
 </metadata>
 <defs>
  <style type="text/css">*{stroke-linejoin: round; stroke-linecap: butt}</style>
 </defs>
 <g id="figure_1">
  <g id="patch_1">
   <path d="M 0 345.6 
L 460.8 345.6 
L 460.8 0 
L 0 0 
z
" style="fill: #ffffff"/>
  </g>
  <g id="axes_1">
   <g id="patch_2">
    <path d="M 52.742045 165.998274 
L 442.6696 165.998274 
L 442.6696 41.785054 
L 52.742045 41.785054 
z
" style="fill: #ffffff"/>
   </g>
   <g id="line2d_1">
    <path d="M 184.234692 165.998274 
L 184.234692 41.785054 
" clip-path="url(#p6592b5334c)" style="fill: none; stroke-dasharray: 1.5,2.475; stroke-dashoffset: 0; stroke: #000000; stroke-width: 1.5"/>
   </g>
   <g id="line2d_2">
    <path d="M 357.514352 165.998274 
L 357.514352 41.785054 
" clip-path="url(#p6592b5334c)" style="fill: none; stroke-dasharray: 1.5,2.475; stroke-dashoffset: 0; stroke: #000000; stroke-width: 1.5"/>
   </g>
   <g id="line2d_3">
    <path d="M 178.391906 165.998274 
L 178.391906 41.785054 
" clip-path="url(#p6592b5334c)" style="fill: none; stroke-dasharray: 1.5,2.475; stroke-dashoffset: 0; stroke: #000000; stroke-width: 1.5"/>
   </g>
   <g id="line2d_4">
    <path d="M 274.308331 165.998274 
L 274.308331 41.785054 
" clip-path="url(#p6592b5334c)" style="fill: none; stroke-dasharray: 1.5,2.475; stroke-dashoffset: 0; stroke: #000000; stroke-width: 1.5"/>
   </g>
   <g id="line2d_5">
    <path d="M 199.708522 165.998274 
L 199.708522 41.785054 
" clip-path="url(#p6592b5334c)" style="fill: none; stroke-dasharray: 1.5,2.475; stroke-dashoffset: 0; stroke: #000000; stroke-width: 1.5"/>
   </g>
   <g id="line2d_6">
    <path d="M 293.831209 165.998274 
L 293.831209 41.785054 
" clip-path="url(#p6592b5334c)" style="fill: none; stroke-dasharray: 1.5,2.475; stroke-dashoffset: 0; stroke: #000000; stroke-width: 1.5"/>
   </g>
   <g id="line2d_7">
    <path d="M 52.742045 103.711669 
L 442.6696 103.711669 
" clip-path="url(#p6592b5334c)" style="fill: none; stroke-dasharray: 1.5,2.475; stroke-dashoffset: 0; stroke: #000000; stroke-width: 1.5"/>
   </g>
   <g id="line2d_8">
    <path d="M 357.514352 103.711669 
L 357.514352 123.949758 
" clip-path="url(#p6592b5334c)" style="fill: none; stroke: #000000; stroke-width: 1.5; stroke-linecap: square"/>
   </g>
   <g id="line2d_9">
    <path d="M 52.742045 103.711669 
L 442.6696 103.711669 
" clip-path="url(#p6592b5334c)" style="fill: none; stroke-dasharray: 1.5,2.475; stroke-dashoffset: 0; stroke: #000000; stroke-width: 1.5"/>
   </g>
   <g id="line2d_10">
    <path d="M 274.308331 103.711669 
L 274.308331 120.537364 
" clip-path="url(#p6592b5334c)" style="fill: none; stroke: #000000; stroke-width: 1.5; stroke-linecap: square"/>
   </g>
   <g id="line2d_11">
    <path d="M 52.742045 103.711669 
L 442.6696 103.711669 
" clip-path="url(#p6592b5334c)" style="fill: none; stroke-dasharray: 1.5,2.475; stroke-dashoffset: 0; stroke: #000000; stroke-width: 1.5"/>
   </g>
   <g id="line2d_12">
    <path d="M 293.831209 103.711669 
L 293.831209 130.298716 
" clip-path="url(#p6592b5334c)" style="fill: none; stroke: #000000; stroke-width: 1.5; stroke-linecap: square"/>
   </g>
   <g id="matplotlib.axis_1">
    <g id="xtick_1">
     <g id="line2d_13">
      <defs>
       <path id="m0e3991d0c8" d="M 0 0 
L 0 3.5 
" style="stroke: #000000; stroke-width: 0.8"/>
      </defs>
      <g>
       <use xlink:href="#m0e3991d0c8" x="52.742045" y="165.998274" style="stroke: #000000; stroke-width: 0.8"/>
      </g>
     </g>
    </g>
    <g id="xtick_2">
     <g id="line2d_14">
      <g>
       <use xlink:href="#m0e3991d0c8" x="150.223934" y="165.998274" style="stroke: #000000; stroke-width: 0.8"/>
      </g>
     </g>
    </g>
    <g id="xtick_3">
     <g id="line2d_15">
      <g>
       <use xlink:href="#m0e3991d0c8" x="247.705823" y="165.998274" style="stroke: #000000; stroke-width: 0.8"/>
      </g>
     </g>
    </g>
    <g id="xtick_4">
     <g id="line2d_16">
      <g>
       <use xlink:href="#m0e3991d0c8" x="345.187711" y="165.998274" style="stroke: #000000; stroke-width: 0.8"/>
      </g>
     </g>
    </g>
    <g id="xtick_5">
     <g id="line2d_17">
      <g>
       <use xlink:href="#m0e3991d0c8" x="442.6696" y="165.998274" style="stroke: #000000; stroke-width: 0.8"/>
      </g>
     </g>
    </g>
    <g id="xtick_6">
     <g id="line2d_18">
      <defs>
       <path id="m7ae1bda800" d="M 0 0 
L 0 2 
" style="stroke: #000000; stroke-width: 0.6"/>
      </defs>
      <g>
       <use xlink:href="#m7ae1bda800" x="82.087018" y="165.998274" style="stroke: #000000; stroke-width: 0.6"/>
      </g>
     </g>
    </g>
    <g id="xtick_7">
     <g id="line2d_19">
      <g>
       <use xlink:href="#m7ae1bda800" x="99.252726" y="165.998274" style="stroke: #000000; stroke-width: 0.6"/>
      </g>
     </g>
    </g>
    <g id="xtick_8">
     <g id="line2d_20">
      <g>
       <use xlink:href="#m7ae1bda800" x="111.43199" y="165.998274" style="stroke: #000000; stroke-width: 0.6"/>
      </g>
     </g>
    </g>
    <g id="xtick_9">
     <g id="line2d_21">
      <g>
       <use xlink:href="#m7ae1bda800" x="120.878961" y="165.998274" style="stroke: #000000; stroke-width: 0.6"/>
      </g>
     </g>
    </g>
    <g id="xtick_10">
     <g id="line2d_22">
      <g>
       <use xlink:href="#m7ae1bda800" x="128.597699" y="165.998274" style="stroke: #000000; stroke-width: 0.6"/>
      </g>
     </g>
    </g>
    <g id="xtick_11">
     <g id="line2d_23">
      <g>
       <use xlink:href="#m7ae1bda800" x="135.123798" y="165.998274" style="stroke: #000000; stroke-width: 0.6"/>
      </g>
     </g>
    </g>
    <g id="xtick_12">
     <g id="line2d_24">
      <g>
       <use xlink:href="#m7ae1bda800" x="140.776963" y="165.998274" style="stroke: #000000; stroke-width: 0.6"/>
      </g>
     </g>
    </g>
    <g id="xtick_13">
     <g id="line2d_25">
      <g>
       <use xlink:href="#m7ae1bda800" x="145.763407" y="165.998274" style="stroke: #000000; stroke-width: 0.6"/>
      </g>
     </g>
    </g>
    <g id="xtick_14">
     <g id="line2d_26">
      <g>
       <use xlink:href="#m7ae1bda800" x="179.568907" y="165.998274" style="stroke: #000000; stroke-width: 0.6"/>
      </g>
     </g>
    </g>
    <g id="xtick_15">
     <g id="line2d_27">
      <g>
       <use xlink:href="#m7ae1bda800" x="196.734615" y="165.998274" style="stroke: #000000; stroke-width: 0.6"/>
      </g>
     </g>
    </g>
    <g id="xtick_16">
     <g id="line2d_28">
      <g>
       <use xlink:href="#m7ae1bda800" x="208.913879" y="165.998274" style="stroke: #000000; stroke-width: 0.6"/>
      </g>
     </g>
    </g>
    <g id="xtick_17">
     <g id="line2d_29">
      <g>
       <use xlink:href="#m7ae1bda800" x="218.36085" y="165.998274" style="stroke: #000000; stroke-width: 0.6"/>
      </g>
     </g>
    </g>
    <g id="xtick_18">
     <g id="line2d_30">
      <g>
       <use xlink:href="#m7ae1bda800" x="226.079588" y="165.998274" style="stroke: #000000; stroke-width: 0.6"/>
      </g>
     </g>
    </g>
    <g id="xtick_19">
     <g id="line2d_31">
      <g>
       <use xlink:href="#m7ae1bda800" x="232.605687" y="165.998274" style="stroke: #000000; stroke-width: 0.6"/>
      </g>
     </g>
    </g>
    <g id="xtick_20">
     <g id="line2d_32">
      <g>
       <use xlink:href="#m7ae1bda800" x="238.258852" y="165.998274" style="stroke: #000000; stroke-width: 0.6"/>
      </g>
     </g>
    </g>
    <g id="xtick_21">
     <g id="line2d_33">
      <g>
       <use xlink:href="#m7ae1bda800" x="243.245296" y="165.998274" style="stroke: #000000; stroke-width: 0.6"/>
      </g>
     </g>
    </g>
    <g id="xtick_22">
     <g id="line2d_34">
      <g>
       <use xlink:href="#m7ae1bda800" x="277.050795" y="165.998274" style="stroke: #000000; stroke-width: 0.6"/>
      </g>
     </g>
    </g>
    <g id="xtick_23">
     <g id="line2d_35">
      <g>
       <use xlink:href="#m7ae1bda800" x="294.216504" y="165.998274" style="stroke: #000000; stroke-width: 0.6"/>
      </g>
     </g>
    </g>
    <g id="xtick_24">
     <g id="line2d_36">
      <g>
       <use xlink:href="#m7ae1bda800" x="306.395768" y="165.998274" style="stroke: #000000; stroke-width: 0.6"/>
      </g>
     </g>
    </g>
    <g id="xtick_25">
     <g id="line2d_37">
      <g>
       <use xlink:href="#m7ae1bda800" x="315.842739" y="165.998274" style="stroke: #000000; stroke-width: 0.6"/>
      </g>
     </g>
    </g>
    <g id="xtick_26">
     <g id="line2d_38">
      <g>
       <use xlink:href="#m7ae1bda800" x="323.561476" y="165.998274" style="stroke: #000000; stroke-width: 0.6"/>
      </g>
     </g>
    </g>
    <g id="xtick_27">
     <g id="line2d_39">
      <g>
       <use xlink:href="#m7ae1bda800" x="330.087576" y="165.998274" style="stroke: #000000; stroke-width: 0.6"/>
      </g>
     </g>
    </g>
    <g id="xtick_28">
     <g id="line2d_40">
      <g>
       <use xlink:href="#m7ae1bda800" x="335.74074" y="165.998274" style="stroke: #000000; stroke-width: 0.6"/>
      </g>
     </g>
    </g>
    <g id="xtick_29">
     <g id="line2d_41">
      <g>
       <use xlink:href="#m7ae1bda800" x="340.727185" y="165.998274" style="stroke: #000000; stroke-width: 0.6"/>
      </g>
     </g>
    </g>
    <g id="xtick_30">
     <g id="line2d_42">
      <g>
       <use xlink:href="#m7ae1bda800" x="374.532684" y="165.998274" style="stroke: #000000; stroke-width: 0.6"/>
      </g>
     </g>
    </g>
    <g id="xtick_31">
     <g id="line2d_43">
      <g>
       <use xlink:href="#m7ae1bda800" x="391.698392" y="165.998274" style="stroke: #000000; stroke-width: 0.6"/>
      </g>
     </g>
    </g>
    <g id="xtick_32">
     <g id="line2d_44">
      <g>
       <use xlink:href="#m7ae1bda800" x="403.877656" y="165.998274" style="stroke: #000000; stroke-width: 0.6"/>
      </g>
     </g>
    </g>
    <g id="xtick_33">
     <g id="line2d_45">
      <g>
       <use xlink:href="#m7ae1bda800" x="413.324627" y="165.998274" style="stroke: #000000; stroke-width: 0.6"/>
      </g>
     </g>
    </g>
    <g id="xtick_34">
     <g id="line2d_46">
      <g>
       <use xlink:href="#m7ae1bda800" x="421.043365" y="165.998274" style="stroke: #000000; stroke-width: 0.6"/>
      </g>
     </g>
    </g>
    <g id="xtick_35">
     <g id="line2d_47">
      <g>
       <use xlink:href="#m7ae1bda800" x="427.569464" y="165.998274" style="stroke: #000000; stroke-width: 0.6"/>
      </g>
     </g>
    </g>
    <g id="xtick_36">
     <g id="line2d_48">
      <g>
       <use xlink:href="#m7ae1bda800" x="433.222629" y="165.998274" style="stroke: #000000; stroke-width: 0.6"/>
      </g>
     </g>
    </g>
    <g id="xtick_37">
     <g id="line2d_49">
      <g>
       <use xlink:href="#m7ae1bda800" x="438.209073" y="165.998274" style="stroke: #000000; stroke-width: 0.6"/>
      </g>
     </g>
    </g>
   </g>
   <g id="matplotlib.axis_2">
    <g id="ytick_1">
     <g id="line2d_50">
      <defs>
       <path id="m7cbff6a4a0" d="M 0 0 
L -3.5 0 
" style="stroke: #000000; stroke-width: 0.8"/>
      </defs>
      <g>
       <use xlink:href="#m7cbff6a4a0" x="52.742045" y="137.790103" style="stroke: #000000; stroke-width: 0.8"/>
      </g>
     </g>
     <g id="text_1">
      <!-- $\mathdefault{10^{-2}}$ -->
      <g transform="translate(26.166545 140.954852) scale(0.0833 -0.0833)">
       <defs>
        <path id="DejaVuSans-31" d="M 794 531 
L 1825 531 
L 1825 4091 
L 703 3866 
L 703 4441 
L 1819 4666 
L 2450 4666 
L 2450 531 
L 3481 531 
L 3481 0 
L 794 0 
L 794 531 
z
" transform="scale(0.015625)"/>
        <path id="DejaVuSans-30" d="M 2034 4250 
Q 1547 4250 1301 3770 
Q 1056 3291 1056 2328 
Q 1056 1369 1301 889 
Q 1547 409 2034 409 
Q 2525 409 2770 889 
Q 3016 1369 3016 2328 
Q 3016 3291 2770 3770 
Q 2525 4250 2034 4250 
z
M 2034 4750 
Q 2819 4750 3233 4129 
Q 3647 3509 3647 2328 
Q 3647 1150 3233 529 
Q 2819 -91 2034 -91 
Q 1250 -91 836 529 
Q 422 1150 422 2328 
Q 422 3509 836 4129 
Q 1250 4750 2034 4750 
z
" transform="scale(0.015625)"/>
        <path id="DejaVuSans-2212" d="M 678 2272 
L 4684 2272 
L 4684 1741 
L 678 1741 
L 678 2272 
z
" transform="scale(0.015625)"/>
        <path id="DejaVuSans-32" d="M 1228 531 
L 3431 531 
L 3431 0 
L 469 0 
L 469 531 
Q 828 903 1448 1529 
Q 2069 2156 2228 2338 
Q 2531 2678 2651 2914 
Q 2772 3150 2772 3378 
Q 2772 3750 2511 3984 
Q 2250 4219 1831 4219 
Q 1534 4219 1204 4116 
Q 875 4013 500 3803 
L 500 4441 
Q 881 4594 1212 4672 
Q 1544 4750 1819 4750 
Q 2544 4750 2975 4387 
Q 3406 4025 3406 3419 
Q 3406 3131 3298 2873 
Q 3191 2616 2906 2266 
Q 2828 2175 2409 1742 
Q 1991 1309 1228 531 
z
" transform="scale(0.015625)"/>
       </defs>
       <use xlink:href="#DejaVuSans-31" transform="translate(0 0.765625)"/>
       <use xlink:href="#DejaVuSans-30" transform="translate(63.623047 0.765625)"/>
       <use xlink:href="#DejaVuSans-2212" transform="translate(128.203125 39.046875) scale(0.7)"/>
       <use xlink:href="#DejaVuSans-32" transform="translate(186.855469 39.046875) scale(0.7)"/>
      </g>
     </g>
    </g>
    <g id="ytick_2">
     <g id="line2d_51">
      <g>
       <use xlink:href="#m7cbff6a4a0" x="52.742045" y="103.711669" style="stroke: #000000; stroke-width: 0.8"/>
      </g>
     </g>
     <g id="text_2">
      <!-- $\mathdefault{10^{0}}$ -->
      <g transform="translate(31.081245 106.876418) scale(0.0833 -0.0833)">
       <use xlink:href="#DejaVuSans-31" transform="translate(0 0.765625)"/>
       <use xlink:href="#DejaVuSans-30" transform="translate(63.623047 0.765625)"/>
       <use xlink:href="#DejaVuSans-30" transform="translate(128.203125 39.046875) scale(0.7)"/>
      </g>
     </g>
    </g>
    <g id="ytick_3">
     <g id="line2d_52">
      <g>
       <use xlink:href="#m7cbff6a4a0" x="52.742045" y="69.633235" style="stroke: #000000; stroke-width: 0.8"/>
      </g>
     </g>
     <g id="text_3">
      <!-- $\mathdefault{10^{2}}$ -->
      <g transform="translate(31.081245 72.797984) scale(0.0833 -0.0833)">
       <use xlink:href="#DejaVuSans-31" transform="translate(0 0.765625)"/>
       <use xlink:href="#DejaVuSans-30" transform="translate(63.623047 0.765625)"/>
       <use xlink:href="#DejaVuSans-32" transform="translate(128.203125 39.046875) scale(0.7)"/>
      </g>
     </g>
    </g>
    <g id="text_4">
     <!-- Magnitude -->
     <g transform="translate(17.129498 125.957704) rotate(-90) scale(0.0833 -0.0833)">
      <defs>
       <path id="DejaVuSans-4d" d="M 628 4666 
L 1569 4666 
L 2759 1491 
L 3956 4666 
L 4897 4666 
L 4897 0 
L 4281 0 
L 4281 4097 
L 3078 897 
L 2444 897 
L 1241 4097 
L 1241 0 
L 628 0 
L 628 4666 
z
" transform="scale(0.015625)"/>
       <path id="DejaVuSans-61" d="M 2194 1759 
Q 1497 1759 1228 1600 
Q 959 1441 959 1056 
Q 959 750 1161 570 
Q 1363 391 1709 391 
Q 2188 391 2477 730 
Q 2766 1069 2766 1631 
L 2766 1759 
L 2194 1759 
z
M 3341 1997 
L 3341 0 
L 2766 0 
L 2766 531 
Q 2569 213 2275 61 
Q 1981 -91 1556 -91 
Q 1019 -91 701 211 
Q 384 513 384 1019 
Q 384 1609 779 1909 
Q 1175 2209 1959 2209 
L 2766 2209 
L 2766 2266 
Q 2766 2663 2505 2880 
Q 2244 3097 1772 3097 
Q 1472 3097 1187 3025 
Q 903 2953 641 2809 
L 641 3341 
Q 956 3463 1253 3523 
Q 1550 3584 1831 3584 
Q 2591 3584 2966 3190 
Q 3341 2797 3341 1997 
z
" transform="scale(0.015625)"/>
       <path id="DejaVuSans-67" d="M 2906 1791 
Q 2906 2416 2648 2759 
Q 2391 3103 1925 3103 
Q 1463 3103 1205 2759 
Q 947 2416 947 1791 
Q 947 1169 1205 825 
Q 1463 481 1925 481 
Q 2391 481 2648 825 
Q 2906 1169 2906 1791 
z
M 3481 434 
Q 3481 -459 3084 -895 
Q 2688 -1331 1869 -1331 
Q 1566 -1331 1297 -1286 
Q 1028 -1241 775 -1147 
L 775 -588 
Q 1028 -725 1275 -790 
Q 1522 -856 1778 -856 
Q 2344 -856 2625 -561 
Q 2906 -266 2906 331 
L 2906 616 
Q 2728 306 2450 153 
Q 2172 0 1784 0 
Q 1141 0 747 490 
Q 353 981 353 1791 
Q 353 2603 747 3093 
Q 1141 3584 1784 3584 
Q 2172 3584 2450 3431 
Q 2728 3278 2906 2969 
L 2906 3500 
L 3481 3500 
L 3481 434 
z
" transform="scale(0.015625)"/>
       <path id="DejaVuSans-6e" d="M 3513 2113 
L 3513 0 
L 2938 0 
L 2938 2094 
Q 2938 2591 2744 2837 
Q 2550 3084 2163 3084 
Q 1697 3084 1428 2787 
Q 1159 2491 1159 1978 
L 1159 0 
L 581 0 
L 581 3500 
L 1159 3500 
L 1159 2956 
Q 1366 3272 1645 3428 
Q 1925 3584 2291 3584 
Q 2894 3584 3203 3211 
Q 3513 2838 3513 2113 
z
" transform="scale(0.015625)"/>
       <path id="DejaVuSans-69" d="M 603 3500 
L 1178 3500 
L 1178 0 
L 603 0 
L 603 3500 
z
M 603 4863 
L 1178 4863 
L 1178 4134 
L 603 4134 
L 603 4863 
z
" transform="scale(0.015625)"/>
       <path id="DejaVuSans-74" d="M 1172 4494 
L 1172 3500 
L 2356 3500 
L 2356 3053 
L 1172 3053 
L 1172 1153 
Q 1172 725 1289 603 
Q 1406 481 1766 481 
L 2356 481 
L 2356 0 
L 1766 0 
Q 1100 0 847 248 
Q 594 497 594 1153 
L 594 3053 
L 172 3053 
L 172 3500 
L 594 3500 
L 594 4494 
L 1172 4494 
z
" transform="scale(0.015625)"/>
       <path id="DejaVuSans-75" d="M 544 1381 
L 544 3500 
L 1119 3500 
L 1119 1403 
Q 1119 906 1312 657 
Q 1506 409 1894 409 
Q 2359 409 2629 706 
Q 2900 1003 2900 1516 
L 2900 3500 
L 3475 3500 
L 3475 0 
L 2900 0 
L 2900 538 
Q 2691 219 2414 64 
Q 2138 -91 1772 -91 
Q 1169 -91 856 284 
Q 544 659 544 1381 
z
M 1991 3584 
L 1991 3584 
z
" transform="scale(0.015625)"/>
       <path id="DejaVuSans-64" d="M 2906 2969 
L 2906 4863 
L 3481 4863 
L 3481 0 
L 2906 0 
L 2906 525 
Q 2725 213 2448 61 
Q 2172 -91 1784 -91 
Q 1150 -91 751 415 
Q 353 922 353 1747 
Q 353 2572 751 3078 
Q 1150 3584 1784 3584 
Q 2172 3584 2448 3432 
Q 2725 3281 2906 2969 
z
M 947 1747 
Q 947 1113 1208 752 
Q 1469 391 1925 391 
Q 2381 391 2643 752 
Q 2906 1113 2906 1747 
Q 2906 2381 2643 2742 
Q 2381 3103 1925 3103 
Q 1469 3103 1208 2742 
Q 947 2381 947 1747 
z
" transform="scale(0.015625)"/>
       <path id="DejaVuSans-65" d="M 3597 1894 
L 3597 1613 
L 953 1613 
Q 991 1019 1311 708 
Q 1631 397 2203 397 
Q 2534 397 2845 478 
Q 3156 559 3463 722 
L 3463 178 
Q 3153 47 2828 -22 
Q 2503 -91 2169 -91 
Q 1331 -91 842 396 
Q 353 884 353 1716 
Q 353 2575 817 3079 
Q 1281 3584 2069 3584 
Q 2775 3584 3186 3129 
Q 3597 2675 3597 1894 
z
M 3022 2063 
Q 3016 2534 2758 2815 
Q 2500 3097 2075 3097 
Q 1594 3097 1305 2825 
Q 1016 2553 972 2059 
L 3022 2063 
z
" transform="scale(0.015625)"/>
      </defs>
      <use xlink:href="#DejaVuSans-4d"/>
      <use xlink:href="#DejaVuSans-61" x="86.279297"/>
      <use xlink:href="#DejaVuSans-67" x="147.558594"/>
      <use xlink:href="#DejaVuSans-6e" x="211.035156"/>
      <use xlink:href="#DejaVuSans-69" x="274.414062"/>
      <use xlink:href="#DejaVuSans-74" x="302.197266"/>
      <use xlink:href="#DejaVuSans-75" x="341.40625"/>
      <use xlink:href="#DejaVuSans-64" x="404.785156"/>
      <use xlink:href="#DejaVuSans-65" x="468.261719"/>
     </g>
    </g>
   </g>
   <g id="line2d_53">
    <path d="M -1 52.85223 
L 9.281937 55.493867 
L 20.210837 58.531283 
L 32.310692 62.13705 
L 47.142771 66.807656 
L 96.71314 82.628115 
L 108.422677 86.019619 
L 119.351577 88.959029 
L 130.670795 91.766558 
L 143.160967 94.625522 
L 161.896225 98.647681 
L 177.50894 102.072885 
L 185.315298 103.99343 
L 190.779748 105.541694 
L 195.073244 106.980288 
L 198.195787 108.238871 
L 200.928012 109.585299 
L 202.879602 110.770271 
L 204.440873 111.92439 
L 206.002145 113.353291 
L 207.173098 114.68714 
L 208.344052 116.333831 
L 210.685959 120.207892 
L 211.076277 120.49787 
L 211.466595 120.455776 
L 211.856913 120.056736 
L 212.637549 118.490395 
L 215.369774 112.044997 
L 217.321363 108.262565 
L 221.61486 100.286355 
L 223.176131 96.782669 
L 225.127721 92.145345 
L 225.518038 91.634088 
L 225.908356 91.474952 
L 226.298674 91.673505 
L 227.07931 92.78218 
L 229.030899 96.13115 
L 230.201853 97.705326 
L 231.763124 99.355466 
L 233.324396 100.654523 
L 235.275985 101.957372 
L 237.617892 103.216358 
L 240.350118 104.418175 
L 243.862978 105.699055 
L 248.156475 107.016204 
L 253.620925 108.456503 
L 261.036965 110.168024 
L 271.18523 112.263515 
L 285.236673 114.923781 
L 303.581613 118.16777 
L 320.365281 120.927754 
L 331.6845 122.585647 
L 339.490857 123.525372 
L 345.345625 124.02595 
L 350.02944 124.226135 
L 354.322936 124.18981 
L 357.445479 123.958281 
L 359.397069 123.603177 
L 360.568022 123.19845 
L 361.738976 122.515291 
L 362.90993 121.439707 
L 364.080883 120.218306 
L 364.471201 119.965481 
L 364.861519 119.886473 
L 364.861519 119.886473 
" clip-path="url(#p6592b5334c)" style="fill: none; stroke: #1f77b4; stroke-width: 1.5; stroke-linecap: square"/>
   </g>
   <g id="line2d_54">
    <path d="M -1 72.065935 
L 114.667763 92.274146 
L 165.799404 101.354415 
L 182.97339 104.611377 
L 191.950701 106.522746 
L 197.415152 107.898701 
L 200.928012 108.982651 
L 204.050555 110.188224 
L 207.563416 111.598786 
L 209.124688 111.879856 
L 210.295641 111.961416 
L 210.685959 111.812604 
L 211.076277 111.415292 
L 211.466595 110.666812 
L 212.247231 108.115008 
L 213.418184 103.778522 
L 213.808502 102.991272 
L 214.19882 102.711543 
L 214.589138 102.82515 
L 215.369774 103.592237 
L 216.931045 105.254398 
L 218.101999 106.20071 
L 219.66327 107.163773 
L 221.61486 108.081259 
L 224.347085 109.079444 
L 228.250264 110.220492 
L 234.105032 111.656575 
L 244.253296 113.87053 
L 267.672369 118.929538 
L 275.869044 120.940651 
L 282.11413 122.695903 
L 287.188262 124.351448 
L 291.481759 125.969495 
L 295.775255 127.82098 
L 300.068752 129.913606 
L 304.752567 132.446159 
L 310.217017 135.656853 
L 318.023374 140.529808 
L 335.977996 151.839789 
L 341.442447 154.991365 
L 345.735943 157.211221 
L 348.858486 158.594297 
L 351.590711 159.562177 
L 353.932619 160.131486 
L 355.884208 160.345781 
L 357.445479 160.282026 
L 358.616433 160.051881 
L 359.787387 159.620235 
L 360.95834 158.936693 
L 362.129294 157.964518 
L 363.690565 156.473291 
L 364.080883 156.237745 
L 364.471201 156.165653 
L 364.861519 156.312793 
L 364.861519 156.312793 
" clip-path="url(#p6592b5334c)" style="fill: none; stroke: #ff7f0e; stroke-width: 1.5; stroke-linecap: square"/>
   </g>
   <g id="line2d_55">
    <path d="M -1 67.93238 
L 159.554318 96.109473 
L 184.534662 100.719227 
L 200.928012 103.9623 
L 213.808502 106.733334 
L 225.127721 109.396342 
L 235.666303 112.102608 
L 246.204886 115.034964 
L 257.524104 118.413992 
L 270.794912 122.616318 
L 287.57858 128.180321 
L 312.168606 136.592642 
L 360.568022 153.434428 
L 364.861519 154.933741 
L 364.861519 154.933741 
" clip-path="url(#p6592b5334c)" style="fill: none; stroke: #2ca02c; stroke-width: 1.5; stroke-linecap: square"/>
   </g>
   <g id="patch_3">
    <path d="M 52.742045 165.998274 
L 52.742045 41.785054 
" style="fill: none; stroke: #000000; stroke-width: 0.8; stroke-linejoin: miter; stroke-linecap: square"/>
   </g>
   <g id="patch_4">
    <path d="M 442.6696 165.998274 
L 442.6696 41.785054 
" style="fill: none; stroke: #000000; stroke-width: 0.8; stroke-linejoin: miter; stroke-linecap: square"/>
   </g>
   <g id="patch_5">
    <path d="M 52.742045 165.998274 
L 442.6696 165.998274 
" style="fill: none; stroke: #000000; stroke-width: 0.8; stroke-linejoin: miter; stroke-linecap: square"/>
   </g>
   <g id="patch_6">
    <path d="M 52.742045 41.785054 
L 442.6696 41.785054 
" style="fill: none; stroke: #000000; stroke-width: 0.8; stroke-linejoin: miter; stroke-linecap: square"/>
   </g>
   <g id="text_5">
    <!-- AST: Gm = 15.41 (at 1337.98 Hz), Pm = 79.33 deg (at 22.33 Hz) -->
    <g transform="translate(113.00712 17.129498) scale(0.0833 -0.0833)">
     <defs>
      <path id="DejaVuSans-41" d="M 2188 4044 
L 1331 1722 
L 3047 1722 
L 2188 4044 
z
M 1831 4666 
L 2547 4666 
L 4325 0 
L 3669 0 
L 3244 1197 
L 1141 1197 
L 716 0 
L 50 0 
L 1831 4666 
z
" transform="scale(0.015625)"/>
      <path id="DejaVuSans-53" d="M 3425 4513 
L 3425 3897 
Q 3066 4069 2747 4153 
Q 2428 4238 2131 4238 
Q 1616 4238 1336 4038 
Q 1056 3838 1056 3469 
Q 1056 3159 1242 3001 
Q 1428 2844 1947 2747 
L 2328 2669 
Q 3034 2534 3370 2195 
Q 3706 1856 3706 1288 
Q 3706 609 3251 259 
Q 2797 -91 1919 -91 
Q 1588 -91 1214 -16 
Q 841 59 441 206 
L 441 856 
Q 825 641 1194 531 
Q 1563 422 1919 422 
Q 2459 422 2753 634 
Q 3047 847 3047 1241 
Q 3047 1584 2836 1778 
Q 2625 1972 2144 2069 
L 1759 2144 
Q 1053 2284 737 2584 
Q 422 2884 422 3419 
Q 422 4038 858 4394 
Q 1294 4750 2059 4750 
Q 2388 4750 2728 4690 
Q 3069 4631 3425 4513 
z
" transform="scale(0.015625)"/>
      <path id="DejaVuSans-54" d="M -19 4666 
L 3928 4666 
L 3928 4134 
L 2272 4134 
L 2272 0 
L 1638 0 
L 1638 4134 
L -19 4134 
L -19 4666 
z
" transform="scale(0.015625)"/>
      <path id="DejaVuSans-3a" d="M 750 794 
L 1409 794 
L 1409 0 
L 750 0 
L 750 794 
z
M 750 3309 
L 1409 3309 
L 1409 2516 
L 750 2516 
L 750 3309 
z
" transform="scale(0.015625)"/>
      <path id="DejaVuSans-20" transform="scale(0.015625)"/>
      <path id="DejaVuSans-47" d="M 3809 666 
L 3809 1919 
L 2778 1919 
L 2778 2438 
L 4434 2438 
L 4434 434 
Q 4069 175 3628 42 
Q 3188 -91 2688 -91 
Q 1594 -91 976 548 
Q 359 1188 359 2328 
Q 359 3472 976 4111 
Q 1594 4750 2688 4750 
Q 3144 4750 3555 4637 
Q 3966 4525 4313 4306 
L 4313 3634 
Q 3963 3931 3569 4081 
Q 3175 4231 2741 4231 
Q 1884 4231 1454 3753 
Q 1025 3275 1025 2328 
Q 1025 1384 1454 906 
Q 1884 428 2741 428 
Q 3075 428 3337 486 
Q 3600 544 3809 666 
z
" transform="scale(0.015625)"/>
      <path id="DejaVuSans-6d" d="M 3328 2828 
Q 3544 3216 3844 3400 
Q 4144 3584 4550 3584 
Q 5097 3584 5394 3201 
Q 5691 2819 5691 2113 
L 5691 0 
L 5113 0 
L 5113 2094 
Q 5113 2597 4934 2840 
Q 4756 3084 4391 3084 
Q 3944 3084 3684 2787 
Q 3425 2491 3425 1978 
L 3425 0 
L 2847 0 
L 2847 2094 
Q 2847 2600 2669 2842 
Q 2491 3084 2119 3084 
Q 1678 3084 1418 2786 
Q 1159 2488 1159 1978 
L 1159 0 
L 581 0 
L 581 3500 
L 1159 3500 
L 1159 2956 
Q 1356 3278 1631 3431 
Q 1906 3584 2284 3584 
Q 2666 3584 2933 3390 
Q 3200 3197 3328 2828 
z
" transform="scale(0.015625)"/>
      <path id="DejaVuSans-3d" d="M 678 2906 
L 4684 2906 
L 4684 2381 
L 678 2381 
L 678 2906 
z
M 678 1631 
L 4684 1631 
L 4684 1100 
L 678 1100 
L 678 1631 
z
" transform="scale(0.015625)"/>
      <path id="DejaVuSans-35" d="M 691 4666 
L 3169 4666 
L 3169 4134 
L 1269 4134 
L 1269 2991 
Q 1406 3038 1543 3061 
Q 1681 3084 1819 3084 
Q 2600 3084 3056 2656 
Q 3513 2228 3513 1497 
Q 3513 744 3044 326 
Q 2575 -91 1722 -91 
Q 1428 -91 1123 -41 
Q 819 9 494 109 
L 494 744 
Q 775 591 1075 516 
Q 1375 441 1709 441 
Q 2250 441 2565 725 
Q 2881 1009 2881 1497 
Q 2881 1984 2565 2268 
Q 2250 2553 1709 2553 
Q 1456 2553 1204 2497 
Q 953 2441 691 2322 
L 691 4666 
z
" transform="scale(0.015625)"/>
      <path id="DejaVuSans-2e" d="M 684 794 
L 1344 794 
L 1344 0 
L 684 0 
L 684 794 
z
" transform="scale(0.015625)"/>
      <path id="DejaVuSans-34" d="M 2419 4116 
L 825 1625 
L 2419 1625 
L 2419 4116 
z
M 2253 4666 
L 3047 4666 
L 3047 1625 
L 3713 1625 
L 3713 1100 
L 3047 1100 
L 3047 0 
L 2419 0 
L 2419 1100 
L 313 1100 
L 313 1709 
L 2253 4666 
z
" transform="scale(0.015625)"/>
      <path id="DejaVuSans-28" d="M 1984 4856 
Q 1566 4138 1362 3434 
Q 1159 2731 1159 2009 
Q 1159 1288 1364 580 
Q 1569 -128 1984 -844 
L 1484 -844 
Q 1016 -109 783 600 
Q 550 1309 550 2009 
Q 550 2706 781 3412 
Q 1013 4119 1484 4856 
L 1984 4856 
z
" transform="scale(0.015625)"/>
      <path id="DejaVuSans-33" d="M 2597 2516 
Q 3050 2419 3304 2112 
Q 3559 1806 3559 1356 
Q 3559 666 3084 287 
Q 2609 -91 1734 -91 
Q 1441 -91 1130 -33 
Q 819 25 488 141 
L 488 750 
Q 750 597 1062 519 
Q 1375 441 1716 441 
Q 2309 441 2620 675 
Q 2931 909 2931 1356 
Q 2931 1769 2642 2001 
Q 2353 2234 1838 2234 
L 1294 2234 
L 1294 2753 
L 1863 2753 
Q 2328 2753 2575 2939 
Q 2822 3125 2822 3475 
Q 2822 3834 2567 4026 
Q 2313 4219 1838 4219 
Q 1578 4219 1281 4162 
Q 984 4106 628 3988 
L 628 4550 
Q 988 4650 1302 4700 
Q 1616 4750 1894 4750 
Q 2613 4750 3031 4423 
Q 3450 4097 3450 3541 
Q 3450 3153 3228 2886 
Q 3006 2619 2597 2516 
z
" transform="scale(0.015625)"/>
      <path id="DejaVuSans-37" d="M 525 4666 
L 3525 4666 
L 3525 4397 
L 1831 0 
L 1172 0 
L 2766 4134 
L 525 4134 
L 525 4666 
z
" transform="scale(0.015625)"/>
      <path id="DejaVuSans-39" d="M 703 97 
L 703 672 
Q 941 559 1184 500 
Q 1428 441 1663 441 
Q 2288 441 2617 861 
Q 2947 1281 2994 2138 
Q 2813 1869 2534 1725 
Q 2256 1581 1919 1581 
Q 1219 1581 811 2004 
Q 403 2428 403 3163 
Q 403 3881 828 4315 
Q 1253 4750 1959 4750 
Q 2769 4750 3195 4129 
Q 3622 3509 3622 2328 
Q 3622 1225 3098 567 
Q 2575 -91 1691 -91 
Q 1453 -91 1209 -44 
Q 966 3 703 97 
z
M 1959 2075 
Q 2384 2075 2632 2365 
Q 2881 2656 2881 3163 
Q 2881 3666 2632 3958 
Q 2384 4250 1959 4250 
Q 1534 4250 1286 3958 
Q 1038 3666 1038 3163 
Q 1038 2656 1286 2365 
Q 1534 2075 1959 2075 
z
" transform="scale(0.015625)"/>
      <path id="DejaVuSans-38" d="M 2034 2216 
Q 1584 2216 1326 1975 
Q 1069 1734 1069 1313 
Q 1069 891 1326 650 
Q 1584 409 2034 409 
Q 2484 409 2743 651 
Q 3003 894 3003 1313 
Q 3003 1734 2745 1975 
Q 2488 2216 2034 2216 
z
M 1403 2484 
Q 997 2584 770 2862 
Q 544 3141 544 3541 
Q 544 4100 942 4425 
Q 1341 4750 2034 4750 
Q 2731 4750 3128 4425 
Q 3525 4100 3525 3541 
Q 3525 3141 3298 2862 
Q 3072 2584 2669 2484 
Q 3125 2378 3379 2068 
Q 3634 1759 3634 1313 
Q 3634 634 3220 271 
Q 2806 -91 2034 -91 
Q 1263 -91 848 271 
Q 434 634 434 1313 
Q 434 1759 690 2068 
Q 947 2378 1403 2484 
z
M 1172 3481 
Q 1172 3119 1398 2916 
Q 1625 2713 2034 2713 
Q 2441 2713 2670 2916 
Q 2900 3119 2900 3481 
Q 2900 3844 2670 4047 
Q 2441 4250 2034 4250 
Q 1625 4250 1398 4047 
Q 1172 3844 1172 3481 
z
" transform="scale(0.015625)"/>
      <path id="DejaVuSans-48" d="M 628 4666 
L 1259 4666 
L 1259 2753 
L 3553 2753 
L 3553 4666 
L 4184 4666 
L 4184 0 
L 3553 0 
L 3553 2222 
L 1259 2222 
L 1259 0 
L 628 0 
L 628 4666 
z
" transform="scale(0.015625)"/>
      <path id="DejaVuSans-7a" d="M 353 3500 
L 3084 3500 
L 3084 2975 
L 922 459 
L 3084 459 
L 3084 0 
L 275 0 
L 275 525 
L 2438 3041 
L 353 3041 
L 353 3500 
z
" transform="scale(0.015625)"/>
      <path id="DejaVuSans-29" d="M 513 4856 
L 1013 4856 
Q 1481 4119 1714 3412 
Q 1947 2706 1947 2009 
Q 1947 1309 1714 600 
Q 1481 -109 1013 -844 
L 513 -844 
Q 928 -128 1133 580 
Q 1338 1288 1338 2009 
Q 1338 2731 1133 3434 
Q 928 4138 513 4856 
z
" transform="scale(0.015625)"/>
      <path id="DejaVuSans-2c" d="M 750 794 
L 1409 794 
L 1409 256 
L 897 -744 
L 494 -744 
L 750 256 
L 750 794 
z
" transform="scale(0.015625)"/>
      <path id="DejaVuSans-50" d="M 1259 4147 
L 1259 2394 
L 2053 2394 
Q 2494 2394 2734 2622 
Q 2975 2850 2975 3272 
Q 2975 3691 2734 3919 
Q 2494 4147 2053 4147 
L 1259 4147 
z
M 628 4666 
L 2053 4666 
Q 2838 4666 3239 4311 
Q 3641 3956 3641 3272 
Q 3641 2581 3239 2228 
Q 2838 1875 2053 1875 
L 1259 1875 
L 1259 0 
L 628 0 
L 628 4666 
z
" transform="scale(0.015625)"/>
     </defs>
     <use xlink:href="#DejaVuSans-41"/>
     <use xlink:href="#DejaVuSans-53" x="68.408203"/>
     <use xlink:href="#DejaVuSans-54" x="131.884766"/>
     <use xlink:href="#DejaVuSans-3a" x="181.96875"/>
     <use xlink:href="#DejaVuSans-20" x="215.660156"/>
     <use xlink:href="#DejaVuSans-47" x="247.447266"/>
     <use xlink:href="#DejaVuSans-6d" x="324.9375"/>
     <use xlink:href="#DejaVuSans-20" x="422.349609"/>
     <use xlink:href="#DejaVuSans-3d" x="454.136719"/>
     <use xlink:href="#DejaVuSans-20" x="537.925781"/>
     <use xlink:href="#DejaVuSans-31" x="569.712891"/>
     <use xlink:href="#DejaVuSans-35" x="633.335938"/>
     <use xlink:href="#DejaVuSans-2e" x="696.958984"/>
     <use xlink:href="#DejaVuSans-34" x="728.746094"/>
     <use xlink:href="#DejaVuSans-31" x="792.369141"/>
     <use xlink:href="#DejaVuSans-20" x="855.992188"/>
     <use xlink:href="#DejaVuSans-28" x="887.779297"/>
     <use xlink:href="#DejaVuSans-61" x="926.792969"/>
     <use xlink:href="#DejaVuSans-74" x="988.072266"/>
     <use xlink:href="#DejaVuSans-20" x="1027.28125"/>
     <use xlink:href="#DejaVuSans-31" x="1059.068359"/>
     <use xlink:href="#DejaVuSans-33" x="1122.691406"/>
     <use xlink:href="#DejaVuSans-33" x="1186.314453"/>
     <use xlink:href="#DejaVuSans-37" x="1249.9375"/>
     <use xlink:href="#DejaVuSans-2e" x="1313.560547"/>
     <use xlink:href="#DejaVuSans-39" x="1345.347656"/>
     <use xlink:href="#DejaVuSans-38" x="1408.970703"/>
     <use xlink:href="#DejaVuSans-20" x="1472.59375"/>
     <use xlink:href="#DejaVuSans-48" x="1504.380859"/>
     <use xlink:href="#DejaVuSans-7a" x="1579.576172"/>
     <use xlink:href="#DejaVuSans-29" x="1632.066406"/>
     <use xlink:href="#DejaVuSans-2c" x="1671.080078"/>
     <use xlink:href="#DejaVuSans-20" x="1702.867188"/>
     <use xlink:href="#DejaVuSans-50" x="1734.654297"/>
     <use xlink:href="#DejaVuSans-6d" x="1794.957031"/>
     <use xlink:href="#DejaVuSans-20" x="1892.369141"/>
     <use xlink:href="#DejaVuSans-3d" x="1924.15625"/>
     <use xlink:href="#DejaVuSans-20" x="2007.945312"/>
     <use xlink:href="#DejaVuSans-37" x="2039.732422"/>
     <use xlink:href="#DejaVuSans-39" x="2103.355469"/>
     <use xlink:href="#DejaVuSans-2e" x="2166.978516"/>
     <use xlink:href="#DejaVuSans-33" x="2198.765625"/>
     <use xlink:href="#DejaVuSans-33" x="2262.388672"/>
     <use xlink:href="#DejaVuSans-20" x="2326.011719"/>
     <use xlink:href="#DejaVuSans-64" x="2357.798828"/>
     <use xlink:href="#DejaVuSans-65" x="2421.275391"/>
     <use xlink:href="#DejaVuSans-67" x="2482.798828"/>
     <use xlink:href="#DejaVuSans-20" x="2546.275391"/>
     <use xlink:href="#DejaVuSans-28" x="2578.0625"/>
     <use xlink:href="#DejaVuSans-61" x="2617.076172"/>
     <use xlink:href="#DejaVuSans-74" x="2678.355469"/>
     <use xlink:href="#DejaVuSans-20" x="2717.564453"/>
     <use xlink:href="#DejaVuSans-32" x="2749.351562"/>
     <use xlink:href="#DejaVuSans-32" x="2812.974609"/>
     <use xlink:href="#DejaVuSans-2e" x="2876.597656"/>
     <use xlink:href="#DejaVuSans-33" x="2908.384766"/>
     <use xlink:href="#DejaVuSans-33" x="2972.007812"/>
     <use xlink:href="#DejaVuSans-20" x="3035.630859"/>
     <use xlink:href="#DejaVuSans-48" x="3067.417969"/>
     <use xlink:href="#DejaVuSans-7a" x="3142.613281"/>
     <use xlink:href="#DejaVuSans-29" x="3195.103516"/>
    </g>
    <!-- Hinf: Gm = 9.72 (at 187.45 Hz), Pm = 81.64 deg (at 19.45 Hz) -->
    <g transform="translate(117.641984 26.457276) scale(0.0833 -0.0833)">
     <defs>
      <path id="DejaVuSans-66" d="M 2375 4863 
L 2375 4384 
L 1825 4384 
Q 1516 4384 1395 4259 
Q 1275 4134 1275 3809 
L 1275 3500 
L 2222 3500 
L 2222 3053 
L 1275 3053 
L 1275 0 
L 697 0 
L 697 3053 
L 147 3053 
L 147 3500 
L 697 3500 
L 697 3744 
Q 697 4328 969 4595 
Q 1241 4863 1831 4863 
L 2375 4863 
z
" transform="scale(0.015625)"/>
      <path id="DejaVuSans-36" d="M 2113 2584 
Q 1688 2584 1439 2293 
Q 1191 2003 1191 1497 
Q 1191 994 1439 701 
Q 1688 409 2113 409 
Q 2538 409 2786 701 
Q 3034 994 3034 1497 
Q 3034 2003 2786 2293 
Q 2538 2584 2113 2584 
z
M 3366 4563 
L 3366 3988 
Q 3128 4100 2886 4159 
Q 2644 4219 2406 4219 
Q 1781 4219 1451 3797 
Q 1122 3375 1075 2522 
Q 1259 2794 1537 2939 
Q 1816 3084 2150 3084 
Q 2853 3084 3261 2657 
Q 3669 2231 3669 1497 
Q 3669 778 3244 343 
Q 2819 -91 2113 -91 
Q 1303 -91 875 529 
Q 447 1150 447 2328 
Q 447 3434 972 4092 
Q 1497 4750 2381 4750 
Q 2619 4750 2861 4703 
Q 3103 4656 3366 4563 
z
" transform="scale(0.015625)"/>
     </defs>
     <use xlink:href="#DejaVuSans-48"/>
     <use xlink:href="#DejaVuSans-69" x="75.195312"/>
     <use xlink:href="#DejaVuSans-6e" x="102.978516"/>
     <use xlink:href="#DejaVuSans-66" x="166.357422"/>
     <use xlink:href="#DejaVuSans-3a" x="197.9375"/>
     <use xlink:href="#DejaVuSans-20" x="231.628906"/>
     <use xlink:href="#DejaVuSans-47" x="263.416016"/>
     <use xlink:href="#DejaVuSans-6d" x="340.90625"/>
     <use xlink:href="#DejaVuSans-20" x="438.318359"/>
     <use xlink:href="#DejaVuSans-3d" x="470.105469"/>
     <use xlink:href="#DejaVuSans-20" x="553.894531"/>
     <use xlink:href="#DejaVuSans-39" x="585.681641"/>
     <use xlink:href="#DejaVuSans-2e" x="649.304688"/>
     <use xlink:href="#DejaVuSans-37" x="681.091797"/>
     <use xlink:href="#DejaVuSans-32" x="744.714844"/>
     <use xlink:href="#DejaVuSans-20" x="808.337891"/>
     <use xlink:href="#DejaVuSans-28" x="840.125"/>
     <use xlink:href="#DejaVuSans-61" x="879.138672"/>
     <use xlink:href="#DejaVuSans-74" x="940.417969"/>
     <use xlink:href="#DejaVuSans-20" x="979.626953"/>
     <use xlink:href="#DejaVuSans-31" x="1011.414062"/>
     <use xlink:href="#DejaVuSans-38" x="1075.037109"/>
     <use xlink:href="#DejaVuSans-37" x="1138.660156"/>
     <use xlink:href="#DejaVuSans-2e" x="1202.283203"/>
     <use xlink:href="#DejaVuSans-34" x="1234.070312"/>
     <use xlink:href="#DejaVuSans-35" x="1297.693359"/>
     <use xlink:href="#DejaVuSans-20" x="1361.316406"/>
     <use xlink:href="#DejaVuSans-48" x="1393.103516"/>
     <use xlink:href="#DejaVuSans-7a" x="1468.298828"/>
     <use xlink:href="#DejaVuSans-29" x="1520.789062"/>
     <use xlink:href="#DejaVuSans-2c" x="1559.802734"/>
     <use xlink:href="#DejaVuSans-20" x="1591.589844"/>
     <use xlink:href="#DejaVuSans-50" x="1623.376953"/>
     <use xlink:href="#DejaVuSans-6d" x="1683.679688"/>
     <use xlink:href="#DejaVuSans-20" x="1781.091797"/>
     <use xlink:href="#DejaVuSans-3d" x="1812.878906"/>
     <use xlink:href="#DejaVuSans-20" x="1896.667969"/>
     <use xlink:href="#DejaVuSans-38" x="1928.455078"/>
     <use xlink:href="#DejaVuSans-31" x="1992.078125"/>
     <use xlink:href="#DejaVuSans-2e" x="2055.701172"/>
     <use xlink:href="#DejaVuSans-36" x="2087.488281"/>
     <use xlink:href="#DejaVuSans-34" x="2151.111328"/>
     <use xlink:href="#DejaVuSans-20" x="2214.734375"/>
     <use xlink:href="#DejaVuSans-64" x="2246.521484"/>
     <use xlink:href="#DejaVuSans-65" x="2309.998047"/>
     <use xlink:href="#DejaVuSans-67" x="2371.521484"/>
     <use xlink:href="#DejaVuSans-20" x="2434.998047"/>
     <use xlink:href="#DejaVuSans-28" x="2466.785156"/>
     <use xlink:href="#DejaVuSans-61" x="2505.798828"/>
     <use xlink:href="#DejaVuSans-74" x="2567.078125"/>
     <use xlink:href="#DejaVuSans-20" x="2606.287109"/>
     <use xlink:href="#DejaVuSans-31" x="2638.074219"/>
     <use xlink:href="#DejaVuSans-39" x="2701.697266"/>
     <use xlink:href="#DejaVuSans-2e" x="2765.320312"/>
     <use xlink:href="#DejaVuSans-34" x="2797.107422"/>
     <use xlink:href="#DejaVuSans-35" x="2860.730469"/>
     <use xlink:href="#DejaVuSans-20" x="2924.353516"/>
     <use xlink:href="#DejaVuSans-48" x="2956.140625"/>
     <use xlink:href="#DejaVuSans-7a" x="3031.335938"/>
     <use xlink:href="#DejaVuSans-29" x="3083.826172"/>
    </g>
    <!-- IMC: Gm = 36.34 (at 297.28 Hz), Pm = 64.08 deg (at 32.18 Hz) -->
    <g transform="translate(115.505469 35.785054) scale(0.0833 -0.0833)">
     <defs>
      <path id="DejaVuSans-49" d="M 628 4666 
L 1259 4666 
L 1259 0 
L 628 0 
L 628 4666 
z
" transform="scale(0.015625)"/>
      <path id="DejaVuSans-43" d="M 4122 4306 
L 4122 3641 
Q 3803 3938 3442 4084 
Q 3081 4231 2675 4231 
Q 1875 4231 1450 3742 
Q 1025 3253 1025 2328 
Q 1025 1406 1450 917 
Q 1875 428 2675 428 
Q 3081 428 3442 575 
Q 3803 722 4122 1019 
L 4122 359 
Q 3791 134 3420 21 
Q 3050 -91 2638 -91 
Q 1578 -91 968 557 
Q 359 1206 359 2328 
Q 359 3453 968 4101 
Q 1578 4750 2638 4750 
Q 3056 4750 3426 4639 
Q 3797 4528 4122 4306 
z
" transform="scale(0.015625)"/>
     </defs>
     <use xlink:href="#DejaVuSans-49"/>
     <use xlink:href="#DejaVuSans-4d" x="29.492188"/>
     <use xlink:href="#DejaVuSans-43" x="115.771484"/>
     <use xlink:href="#DejaVuSans-3a" x="185.595703"/>
     <use xlink:href="#DejaVuSans-20" x="219.287109"/>
     <use xlink:href="#DejaVuSans-47" x="251.074219"/>
     <use xlink:href="#DejaVuSans-6d" x="328.564453"/>
     <use xlink:href="#DejaVuSans-20" x="425.976562"/>
     <use xlink:href="#DejaVuSans-3d" x="457.763672"/>
     <use xlink:href="#DejaVuSans-20" x="541.552734"/>
     <use xlink:href="#DejaVuSans-33" x="573.339844"/>
     <use xlink:href="#DejaVuSans-36" x="636.962891"/>
     <use xlink:href="#DejaVuSans-2e" x="700.585938"/>
     <use xlink:href="#DejaVuSans-33" x="732.373047"/>
     <use xlink:href="#DejaVuSans-34" x="795.996094"/>
     <use xlink:href="#DejaVuSans-20" x="859.619141"/>
     <use xlink:href="#DejaVuSans-28" x="891.40625"/>
     <use xlink:href="#DejaVuSans-61" x="930.419922"/>
     <use xlink:href="#DejaVuSans-74" x="991.699219"/>
     <use xlink:href="#DejaVuSans-20" x="1030.908203"/>
     <use xlink:href="#DejaVuSans-32" x="1062.695312"/>
     <use xlink:href="#DejaVuSans-39" x="1126.318359"/>
     <use xlink:href="#DejaVuSans-37" x="1189.941406"/>
     <use xlink:href="#DejaVuSans-2e" x="1253.564453"/>
     <use xlink:href="#DejaVuSans-32" x="1285.351562"/>
     <use xlink:href="#DejaVuSans-38" x="1348.974609"/>
     <use xlink:href="#DejaVuSans-20" x="1412.597656"/>
     <use xlink:href="#DejaVuSans-48" x="1444.384766"/>
     <use xlink:href="#DejaVuSans-7a" x="1519.580078"/>
     <use xlink:href="#DejaVuSans-29" x="1572.070312"/>
     <use xlink:href="#DejaVuSans-2c" x="1611.083984"/>
     <use xlink:href="#DejaVuSans-20" x="1642.871094"/>
     <use xlink:href="#DejaVuSans-50" x="1674.658203"/>
     <use xlink:href="#DejaVuSans-6d" x="1734.960938"/>
     <use xlink:href="#DejaVuSans-20" x="1832.373047"/>
     <use xlink:href="#DejaVuSans-3d" x="1864.160156"/>
     <use xlink:href="#DejaVuSans-20" x="1947.949219"/>
     <use xlink:href="#DejaVuSans-36" x="1979.736328"/>
     <use xlink:href="#DejaVuSans-34" x="2043.359375"/>
     <use xlink:href="#DejaVuSans-2e" x="2106.982422"/>
     <use xlink:href="#DejaVuSans-30" x="2138.769531"/>
     <use xlink:href="#DejaVuSans-38" x="2202.392578"/>
     <use xlink:href="#DejaVuSans-20" x="2266.015625"/>
     <use xlink:href="#DejaVuSans-64" x="2297.802734"/>
     <use xlink:href="#DejaVuSans-65" x="2361.279297"/>
     <use xlink:href="#DejaVuSans-67" x="2422.802734"/>
     <use xlink:href="#DejaVuSans-20" x="2486.279297"/>
     <use xlink:href="#DejaVuSans-28" x="2518.066406"/>
     <use xlink:href="#DejaVuSans-61" x="2557.080078"/>
     <use xlink:href="#DejaVuSans-74" x="2618.359375"/>
     <use xlink:href="#DejaVuSans-20" x="2657.568359"/>
     <use xlink:href="#DejaVuSans-33" x="2689.355469"/>
     <use xlink:href="#DejaVuSans-32" x="2752.978516"/>
     <use xlink:href="#DejaVuSans-2e" x="2816.601562"/>
     <use xlink:href="#DejaVuSans-31" x="2848.388672"/>
     <use xlink:href="#DejaVuSans-38" x="2912.011719"/>
     <use xlink:href="#DejaVuSans-20" x="2975.634766"/>
     <use xlink:href="#DejaVuSans-48" x="3007.421875"/>
     <use xlink:href="#DejaVuSans-7a" x="3082.617188"/>
     <use xlink:href="#DejaVuSans-29" x="3135.107422"/>
    </g>
   </g>
   <g id="legend_1">
    <g id="patch_7">
     <path d="M 401.615162 120.212592 
L 437.8116 120.212592 
Q 439.1996 120.212592 439.1996 118.824592 
L 439.1996 88.958736 
Q 439.1996 87.570736 437.8116 87.570736 
L 401.615162 87.570736 
Q 400.227162 87.570736 400.227162 88.958736 
L 400.227162 118.824592 
Q 400.227162 120.212592 401.615162 120.212592 
z
" style="fill: #ffffff; opacity: 0.8; stroke: #cccccc; stroke-linejoin: miter"/>
    </g>
    <g id="line2d_56">
     <path d="M 403.003162 93.191052 
L 409.943162 93.191052 
L 416.883162 93.191052 
" style="fill: none; stroke: #1f77b4; stroke-width: 1.5; stroke-linecap: square"/>
    </g>
    <g id="text_6">
     <!-- AST -->
     <g transform="translate(422.435162 95.620052) scale(0.0694 -0.0694)">
      <use xlink:href="#DejaVuSans-41"/>
      <use xlink:href="#DejaVuSans-53" x="68.408203"/>
      <use xlink:href="#DejaVuSans-54" x="131.884766"/>
     </g>
    </g>
    <g id="line2d_57">
     <path d="M 403.003162 103.37767 
L 409.943162 103.37767 
L 416.883162 103.37767 
" style="fill: none; stroke: #ff7f0e; stroke-width: 1.5; stroke-linecap: square"/>
    </g>
    <g id="text_7">
     <!-- Hinf -->
     <g transform="translate(422.435162 105.80667) scale(0.0694 -0.0694)">
      <use xlink:href="#DejaVuSans-48"/>
      <use xlink:href="#DejaVuSans-69" x="75.195312"/>
      <use xlink:href="#DejaVuSans-6e" x="102.978516"/>
      <use xlink:href="#DejaVuSans-66" x="166.357422"/>
     </g>
    </g>
    <g id="line2d_58">
     <path d="M 403.003162 113.564289 
L 409.943162 113.564289 
L 416.883162 113.564289 
" style="fill: none; stroke: #2ca02c; stroke-width: 1.5; stroke-linecap: square"/>
    </g>
    <g id="text_8">
     <!-- IMC -->
     <g transform="translate(422.435162 115.993289) scale(0.0694 -0.0694)">
      <use xlink:href="#DejaVuSans-49"/>
      <use xlink:href="#DejaVuSans-4d" x="29.492188"/>
      <use xlink:href="#DejaVuSans-43" x="115.771484"/>
     </g>
    </g>
   </g>
  </g>
  <g id="axes_2">
   <g id="patch_8">
    <path d="M 52.742045 307.676244 
L 442.6696 307.676244 
L 442.6696 183.463024 
L 52.742045 183.463024 
z
" style="fill: #ffffff"/>
   </g>
   <g id="line2d_59">
    <path d="M 184.234692 307.676244 
L 184.234692 183.463024 
" clip-path="url(#p1f7294308c)" style="fill: none; stroke-dasharray: 1.5,2.475; stroke-dashoffset: 0; stroke: #000000; stroke-width: 1.5"/>
   </g>
   <g id="line2d_60">
    <path d="M 357.514352 307.676244 
L 357.514352 183.463024 
" clip-path="url(#p1f7294308c)" style="fill: none; stroke-dasharray: 1.5,2.475; stroke-dashoffset: 0; stroke: #000000; stroke-width: 1.5"/>
   </g>
   <g id="line2d_61">
    <path d="M 178.391906 307.676244 
L 178.391906 183.463024 
" clip-path="url(#p1f7294308c)" style="fill: none; stroke-dasharray: 1.5,2.475; stroke-dashoffset: 0; stroke: #000000; stroke-width: 1.5"/>
   </g>
   <g id="line2d_62">
    <path d="M 274.308331 307.676244 
L 274.308331 183.463024 
" clip-path="url(#p1f7294308c)" style="fill: none; stroke-dasharray: 1.5,2.475; stroke-dashoffset: 0; stroke: #000000; stroke-width: 1.5"/>
   </g>
   <g id="line2d_63">
    <path d="M 199.708522 307.676244 
L 199.708522 183.463024 
" clip-path="url(#p1f7294308c)" style="fill: none; stroke-dasharray: 1.5,2.475; stroke-dashoffset: 0; stroke: #000000; stroke-width: 1.5"/>
   </g>
   <g id="line2d_64">
    <path d="M 293.831209 307.676244 
L 293.831209 183.463024 
" clip-path="url(#p1f7294308c)" style="fill: none; stroke-dasharray: 1.5,2.475; stroke-dashoffset: 0; stroke: #000000; stroke-width: 1.5"/>
   </g>
   <g id="line2d_65">
    <path d="M 52.742045 247.842881 
L 442.6696 247.842881 
" clip-path="url(#p1f7294308c)" style="fill: none; stroke-dasharray: 1.5,2.475; stroke-dashoffset: 0; stroke: #000000; stroke-width: 1.5"/>
   </g>
   <g id="line2d_66">
    <path d="M 184.234692 228.926396 
L 184.234692 247.842881 
" clip-path="url(#p1f7294308c)" style="fill: none; stroke: #000000; stroke-width: 1.5; stroke-linecap: square"/>
   </g>
   <g id="line2d_67">
    <path d="M 52.742045 247.842881 
L 442.6696 247.842881 
" clip-path="url(#p1f7294308c)" style="fill: none; stroke-dasharray: 1.5,2.475; stroke-dashoffset: 0; stroke: #000000; stroke-width: 1.5"/>
   </g>
   <g id="line2d_68">
    <path d="M 178.391906 228.375809 
L 178.391906 247.842881 
" clip-path="url(#p1f7294308c)" style="fill: none; stroke: #000000; stroke-width: 1.5; stroke-linecap: square"/>
   </g>
   <g id="line2d_69">
    <path d="M 52.742045 247.842881 
L 442.6696 247.842881 
" clip-path="url(#p1f7294308c)" style="fill: none; stroke-dasharray: 1.5,2.475; stroke-dashoffset: 0; stroke: #000000; stroke-width: 1.5"/>
   </g>
   <g id="line2d_70">
    <path d="M 199.708522 232.564256 
L 199.708522 247.842881 
" clip-path="url(#p1f7294308c)" style="fill: none; stroke: #000000; stroke-width: 1.5; stroke-linecap: square"/>
   </g>
   <g id="matplotlib.axis_3">
    <g id="xtick_38">
     <g id="line2d_71">
      <g>
       <use xlink:href="#m0e3991d0c8" x="52.742045" y="307.676244" style="stroke: #000000; stroke-width: 0.8"/>
      </g>
     </g>
     <g id="text_9">
      <!-- $\mathdefault{10^{0}}$ -->
      <g transform="translate(45.411645 321.005742) scale(0.0833 -0.0833)">
       <use xlink:href="#DejaVuSans-31" transform="translate(0 0.765625)"/>
       <use xlink:href="#DejaVuSans-30" transform="translate(63.623047 0.765625)"/>
       <use xlink:href="#DejaVuSans-30" transform="translate(128.203125 39.046875) scale(0.7)"/>
      </g>
     </g>
    </g>
    <g id="xtick_39">
     <g id="line2d_72">
      <g>
       <use xlink:href="#m0e3991d0c8" x="150.223934" y="307.676244" style="stroke: #000000; stroke-width: 0.8"/>
      </g>
     </g>
     <g id="text_10">
      <!-- $\mathdefault{10^{1}}$ -->
      <g transform="translate(142.893534 321.005742) scale(0.0833 -0.0833)">
       <use xlink:href="#DejaVuSans-31" transform="translate(0 0.684375)"/>
       <use xlink:href="#DejaVuSans-30" transform="translate(63.623047 0.684375)"/>
       <use xlink:href="#DejaVuSans-31" transform="translate(128.203125 38.965625) scale(0.7)"/>
      </g>
     </g>
    </g>
    <g id="xtick_40">
     <g id="line2d_73">
      <g>
       <use xlink:href="#m0e3991d0c8" x="247.705823" y="307.676244" style="stroke: #000000; stroke-width: 0.8"/>
      </g>
     </g>
     <g id="text_11">
      <!-- $\mathdefault{10^{2}}$ -->
      <g transform="translate(240.375423 321.005742) scale(0.0833 -0.0833)">
       <use xlink:href="#DejaVuSans-31" transform="translate(0 0.765625)"/>
       <use xlink:href="#DejaVuSans-30" transform="translate(63.623047 0.765625)"/>
       <use xlink:href="#DejaVuSans-32" transform="translate(128.203125 39.046875) scale(0.7)"/>
      </g>
     </g>
    </g>
    <g id="xtick_41">
     <g id="line2d_74">
      <g>
       <use xlink:href="#m0e3991d0c8" x="345.187711" y="307.676244" style="stroke: #000000; stroke-width: 0.8"/>
      </g>
     </g>
     <g id="text_12">
      <!-- $\mathdefault{10^{3}}$ -->
      <g transform="translate(337.857311 321.005742) scale(0.0833 -0.0833)">
       <use xlink:href="#DejaVuSans-31" transform="translate(0 0.765625)"/>
       <use xlink:href="#DejaVuSans-30" transform="translate(63.623047 0.765625)"/>
       <use xlink:href="#DejaVuSans-33" transform="translate(128.203125 39.046875) scale(0.7)"/>
      </g>
     </g>
    </g>
    <g id="xtick_42">
     <g id="line2d_75">
      <g>
       <use xlink:href="#m0e3991d0c8" x="442.6696" y="307.676244" style="stroke: #000000; stroke-width: 0.8"/>
      </g>
     </g>
     <g id="text_13">
      <!-- $\mathdefault{10^{4}}$ -->
      <g transform="translate(435.3392 321.005742) scale(0.0833 -0.0833)">
       <use xlink:href="#DejaVuSans-31" transform="translate(0 0.684375)"/>
       <use xlink:href="#DejaVuSans-30" transform="translate(63.623047 0.684375)"/>
       <use xlink:href="#DejaVuSans-34" transform="translate(128.203125 38.965625) scale(0.7)"/>
      </g>
     </g>
    </g>
    <g id="xtick_43">
     <g id="line2d_76">
      <g>
       <use xlink:href="#m7ae1bda800" x="82.087018" y="307.676244" style="stroke: #000000; stroke-width: 0.6"/>
      </g>
     </g>
    </g>
    <g id="xtick_44">
     <g id="line2d_77">
      <g>
       <use xlink:href="#m7ae1bda800" x="99.252726" y="307.676244" style="stroke: #000000; stroke-width: 0.6"/>
      </g>
     </g>
    </g>
    <g id="xtick_45">
     <g id="line2d_78">
      <g>
       <use xlink:href="#m7ae1bda800" x="111.43199" y="307.676244" style="stroke: #000000; stroke-width: 0.6"/>
      </g>
     </g>
    </g>
    <g id="xtick_46">
     <g id="line2d_79">
      <g>
       <use xlink:href="#m7ae1bda800" x="120.878961" y="307.676244" style="stroke: #000000; stroke-width: 0.6"/>
      </g>
     </g>
    </g>
    <g id="xtick_47">
     <g id="line2d_80">
      <g>
       <use xlink:href="#m7ae1bda800" x="128.597699" y="307.676244" style="stroke: #000000; stroke-width: 0.6"/>
      </g>
     </g>
    </g>
    <g id="xtick_48">
     <g id="line2d_81">
      <g>
       <use xlink:href="#m7ae1bda800" x="135.123798" y="307.676244" style="stroke: #000000; stroke-width: 0.6"/>
      </g>
     </g>
    </g>
    <g id="xtick_49">
     <g id="line2d_82">
      <g>
       <use xlink:href="#m7ae1bda800" x="140.776963" y="307.676244" style="stroke: #000000; stroke-width: 0.6"/>
      </g>
     </g>
    </g>
    <g id="xtick_50">
     <g id="line2d_83">
      <g>
       <use xlink:href="#m7ae1bda800" x="145.763407" y="307.676244" style="stroke: #000000; stroke-width: 0.6"/>
      </g>
     </g>
    </g>
    <g id="xtick_51">
     <g id="line2d_84">
      <g>
       <use xlink:href="#m7ae1bda800" x="179.568907" y="307.676244" style="stroke: #000000; stroke-width: 0.6"/>
      </g>
     </g>
    </g>
    <g id="xtick_52">
     <g id="line2d_85">
      <g>
       <use xlink:href="#m7ae1bda800" x="196.734615" y="307.676244" style="stroke: #000000; stroke-width: 0.6"/>
      </g>
     </g>
    </g>
    <g id="xtick_53">
     <g id="line2d_86">
      <g>
       <use xlink:href="#m7ae1bda800" x="208.913879" y="307.676244" style="stroke: #000000; stroke-width: 0.6"/>
      </g>
     </g>
    </g>
    <g id="xtick_54">
     <g id="line2d_87">
      <g>
       <use xlink:href="#m7ae1bda800" x="218.36085" y="307.676244" style="stroke: #000000; stroke-width: 0.6"/>
      </g>
     </g>
    </g>
    <g id="xtick_55">
     <g id="line2d_88">
      <g>
       <use xlink:href="#m7ae1bda800" x="226.079588" y="307.676244" style="stroke: #000000; stroke-width: 0.6"/>
      </g>
     </g>
    </g>
    <g id="xtick_56">
     <g id="line2d_89">
      <g>
       <use xlink:href="#m7ae1bda800" x="232.605687" y="307.676244" style="stroke: #000000; stroke-width: 0.6"/>
      </g>
     </g>
    </g>
    <g id="xtick_57">
     <g id="line2d_90">
      <g>
       <use xlink:href="#m7ae1bda800" x="238.258852" y="307.676244" style="stroke: #000000; stroke-width: 0.6"/>
      </g>
     </g>
    </g>
    <g id="xtick_58">
     <g id="line2d_91">
      <g>
       <use xlink:href="#m7ae1bda800" x="243.245296" y="307.676244" style="stroke: #000000; stroke-width: 0.6"/>
      </g>
     </g>
    </g>
    <g id="xtick_59">
     <g id="line2d_92">
      <g>
       <use xlink:href="#m7ae1bda800" x="277.050795" y="307.676244" style="stroke: #000000; stroke-width: 0.6"/>
      </g>
     </g>
    </g>
    <g id="xtick_60">
     <g id="line2d_93">
      <g>
       <use xlink:href="#m7ae1bda800" x="294.216504" y="307.676244" style="stroke: #000000; stroke-width: 0.6"/>
      </g>
     </g>
    </g>
    <g id="xtick_61">
     <g id="line2d_94">
      <g>
       <use xlink:href="#m7ae1bda800" x="306.395768" y="307.676244" style="stroke: #000000; stroke-width: 0.6"/>
      </g>
     </g>
    </g>
    <g id="xtick_62">
     <g id="line2d_95">
      <g>
       <use xlink:href="#m7ae1bda800" x="315.842739" y="307.676244" style="stroke: #000000; stroke-width: 0.6"/>
      </g>
     </g>
    </g>
    <g id="xtick_63">
     <g id="line2d_96">
      <g>
       <use xlink:href="#m7ae1bda800" x="323.561476" y="307.676244" style="stroke: #000000; stroke-width: 0.6"/>
      </g>
     </g>
    </g>
    <g id="xtick_64">
     <g id="line2d_97">
      <g>
       <use xlink:href="#m7ae1bda800" x="330.087576" y="307.676244" style="stroke: #000000; stroke-width: 0.6"/>
      </g>
     </g>
    </g>
    <g id="xtick_65">
     <g id="line2d_98">
      <g>
       <use xlink:href="#m7ae1bda800" x="335.74074" y="307.676244" style="stroke: #000000; stroke-width: 0.6"/>
      </g>
     </g>
    </g>
    <g id="xtick_66">
     <g id="line2d_99">
      <g>
       <use xlink:href="#m7ae1bda800" x="340.727185" y="307.676244" style="stroke: #000000; stroke-width: 0.6"/>
      </g>
     </g>
    </g>
    <g id="xtick_67">
     <g id="line2d_100">
      <g>
       <use xlink:href="#m7ae1bda800" x="374.532684" y="307.676244" style="stroke: #000000; stroke-width: 0.6"/>
      </g>
     </g>
    </g>
    <g id="xtick_68">
     <g id="line2d_101">
      <g>
       <use xlink:href="#m7ae1bda800" x="391.698392" y="307.676244" style="stroke: #000000; stroke-width: 0.6"/>
      </g>
     </g>
    </g>
    <g id="xtick_69">
     <g id="line2d_102">
      <g>
       <use xlink:href="#m7ae1bda800" x="403.877656" y="307.676244" style="stroke: #000000; stroke-width: 0.6"/>
      </g>
     </g>
    </g>
    <g id="xtick_70">
     <g id="line2d_103">
      <g>
       <use xlink:href="#m7ae1bda800" x="413.324627" y="307.676244" style="stroke: #000000; stroke-width: 0.6"/>
      </g>
     </g>
    </g>
    <g id="xtick_71">
     <g id="line2d_104">
      <g>
       <use xlink:href="#m7ae1bda800" x="421.043365" y="307.676244" style="stroke: #000000; stroke-width: 0.6"/>
      </g>
     </g>
    </g>
    <g id="xtick_72">
     <g id="line2d_105">
      <g>
       <use xlink:href="#m7ae1bda800" x="427.569464" y="307.676244" style="stroke: #000000; stroke-width: 0.6"/>
      </g>
     </g>
    </g>
    <g id="xtick_73">
     <g id="line2d_106">
      <g>
       <use xlink:href="#m7ae1bda800" x="433.222629" y="307.676244" style="stroke: #000000; stroke-width: 0.6"/>
      </g>
     </g>
    </g>
    <g id="xtick_74">
     <g id="line2d_107">
      <g>
       <use xlink:href="#m7ae1bda800" x="438.209073" y="307.676244" style="stroke: #000000; stroke-width: 0.6"/>
      </g>
     </g>
    </g>
    <g id="text_14">
     <!-- Frequency [Hz] -->
     <g transform="translate(216.297818 333.06762) scale(0.0833 -0.0833)">
      <defs>
       <path id="DejaVuSans-46" d="M 628 4666 
L 3309 4666 
L 3309 4134 
L 1259 4134 
L 1259 2759 
L 3109 2759 
L 3109 2228 
L 1259 2228 
L 1259 0 
L 628 0 
L 628 4666 
z
" transform="scale(0.015625)"/>
       <path id="DejaVuSans-72" d="M 2631 2963 
Q 2534 3019 2420 3045 
Q 2306 3072 2169 3072 
Q 1681 3072 1420 2755 
Q 1159 2438 1159 1844 
L 1159 0 
L 581 0 
L 581 3500 
L 1159 3500 
L 1159 2956 
Q 1341 3275 1631 3429 
Q 1922 3584 2338 3584 
Q 2397 3584 2469 3576 
Q 2541 3569 2628 3553 
L 2631 2963 
z
" transform="scale(0.015625)"/>
       <path id="DejaVuSans-71" d="M 947 1747 
Q 947 1113 1208 752 
Q 1469 391 1925 391 
Q 2381 391 2643 752 
Q 2906 1113 2906 1747 
Q 2906 2381 2643 2742 
Q 2381 3103 1925 3103 
Q 1469 3103 1208 2742 
Q 947 2381 947 1747 
z
M 2906 525 
Q 2725 213 2448 61 
Q 2172 -91 1784 -91 
Q 1150 -91 751 415 
Q 353 922 353 1747 
Q 353 2572 751 3078 
Q 1150 3584 1784 3584 
Q 2172 3584 2448 3432 
Q 2725 3281 2906 2969 
L 2906 3500 
L 3481 3500 
L 3481 -1331 
L 2906 -1331 
L 2906 525 
z
" transform="scale(0.015625)"/>
       <path id="DejaVuSans-63" d="M 3122 3366 
L 3122 2828 
Q 2878 2963 2633 3030 
Q 2388 3097 2138 3097 
Q 1578 3097 1268 2742 
Q 959 2388 959 1747 
Q 959 1106 1268 751 
Q 1578 397 2138 397 
Q 2388 397 2633 464 
Q 2878 531 3122 666 
L 3122 134 
Q 2881 22 2623 -34 
Q 2366 -91 2075 -91 
Q 1284 -91 818 406 
Q 353 903 353 1747 
Q 353 2603 823 3093 
Q 1294 3584 2113 3584 
Q 2378 3584 2631 3529 
Q 2884 3475 3122 3366 
z
" transform="scale(0.015625)"/>
       <path id="DejaVuSans-79" d="M 2059 -325 
Q 1816 -950 1584 -1140 
Q 1353 -1331 966 -1331 
L 506 -1331 
L 506 -850 
L 844 -850 
Q 1081 -850 1212 -737 
Q 1344 -625 1503 -206 
L 1606 56 
L 191 3500 
L 800 3500 
L 1894 763 
L 2988 3500 
L 3597 3500 
L 2059 -325 
z
" transform="scale(0.015625)"/>
       <path id="DejaVuSans-5b" d="M 550 4863 
L 1875 4863 
L 1875 4416 
L 1125 4416 
L 1125 -397 
L 1875 -397 
L 1875 -844 
L 550 -844 
L 550 4863 
z
" transform="scale(0.015625)"/>
       <path id="DejaVuSans-5d" d="M 1947 4863 
L 1947 -844 
L 622 -844 
L 622 -397 
L 1369 -397 
L 1369 4416 
L 622 4416 
L 622 4863 
L 1947 4863 
z
" transform="scale(0.015625)"/>
      </defs>
      <use xlink:href="#DejaVuSans-46"/>
      <use xlink:href="#DejaVuSans-72" x="50.269531"/>
      <use xlink:href="#DejaVuSans-65" x="89.132812"/>
      <use xlink:href="#DejaVuSans-71" x="150.65625"/>
      <use xlink:href="#DejaVuSans-75" x="214.132812"/>
      <use xlink:href="#DejaVuSans-65" x="277.511719"/>
      <use xlink:href="#DejaVuSans-6e" x="339.035156"/>
      <use xlink:href="#DejaVuSans-63" x="402.414062"/>
      <use xlink:href="#DejaVuSans-79" x="457.394531"/>
      <use xlink:href="#DejaVuSans-20" x="516.574219"/>
      <use xlink:href="#DejaVuSans-5b" x="548.361328"/>
      <use xlink:href="#DejaVuSans-48" x="587.375"/>
      <use xlink:href="#DejaVuSans-7a" x="662.570312"/>
      <use xlink:href="#DejaVuSans-5d" x="715.060547"/>
     </g>
    </g>
   </g>
   <g id="matplotlib.axis_4">
    <g id="ytick_4">
     <g id="line2d_108">
      <g>
       <use xlink:href="#m7cbff6a4a0" x="52.742045" y="290.762786" style="stroke: #000000; stroke-width: 0.8"/>
      </g>
     </g>
     <g id="text_15">
      <!-- 360 -->
      <g transform="translate(22.861878 293.927535) scale(0.0833 -0.0833)">
       <use xlink:href="#DejaVuSans-2212"/>
       <use xlink:href="#DejaVuSans-33" x="83.789062"/>
       <use xlink:href="#DejaVuSans-36" x="147.412109"/>
       <use xlink:href="#DejaVuSans-30" x="211.035156"/>
      </g>
     </g>
    </g>
    <g id="ytick_5">
     <g id="line2d_109">
      <g>
       <use xlink:href="#m7cbff6a4a0" x="52.742045" y="269.302833" style="stroke: #000000; stroke-width: 0.8"/>
      </g>
     </g>
     <g id="text_16">
      <!-- 270 -->
      <g transform="translate(22.861878 272.467583) scale(0.0833 -0.0833)">
       <use xlink:href="#DejaVuSans-2212"/>
       <use xlink:href="#DejaVuSans-32" x="83.789062"/>
       <use xlink:href="#DejaVuSans-37" x="147.412109"/>
       <use xlink:href="#DejaVuSans-30" x="211.035156"/>
      </g>
     </g>
    </g>
    <g id="ytick_6">
     <g id="line2d_110">
      <g>
       <use xlink:href="#m7cbff6a4a0" x="52.742045" y="247.842881" style="stroke: #000000; stroke-width: 0.8"/>
      </g>
     </g>
     <g id="text_17">
      <!-- 180 -->
      <g transform="translate(22.861878 251.00763) scale(0.0833 -0.0833)">
       <use xlink:href="#DejaVuSans-2212"/>
       <use xlink:href="#DejaVuSans-31" x="83.789062"/>
       <use xlink:href="#DejaVuSans-38" x="147.412109"/>
       <use xlink:href="#DejaVuSans-30" x="211.035156"/>
      </g>
     </g>
    </g>
    <g id="ytick_7">
     <g id="line2d_111">
      <g>
       <use xlink:href="#m7cbff6a4a0" x="52.742045" y="226.382928" style="stroke: #000000; stroke-width: 0.8"/>
      </g>
     </g>
     <g id="text_18">
      <!-- 90 -->
      <g transform="translate(28.161841 229.547678) scale(0.0833 -0.0833)">
       <use xlink:href="#DejaVuSans-2212"/>
       <use xlink:href="#DejaVuSans-39" x="83.789062"/>
       <use xlink:href="#DejaVuSans-30" x="147.412109"/>
      </g>
     </g>
    </g>
    <g id="ytick_8">
     <g id="line2d_112">
      <g>
       <use xlink:href="#m7cbff6a4a0" x="52.742045" y="204.922976" style="stroke: #000000; stroke-width: 0.8"/>
      </g>
     </g>
     <g id="text_19">
      <!-- 0 -->
      <g transform="translate(40.442083 208.087725) scale(0.0833 -0.0833)">
       <use xlink:href="#DejaVuSans-30"/>
      </g>
     </g>
    </g>
    <g id="ytick_9">
     <g id="line2d_113">
      <g>
       <use xlink:href="#m7cbff6a4a0" x="52.742045" y="183.463024" style="stroke: #000000; stroke-width: 0.8"/>
      </g>
     </g>
     <g id="text_20">
      <!-- 90 -->
      <g transform="translate(35.14212 186.627773) scale(0.0833 -0.0833)">
       <use xlink:href="#DejaVuSans-39"/>
       <use xlink:href="#DejaVuSans-30" x="63.623047"/>
      </g>
     </g>
    </g>
    <g id="ytick_10">
     <g id="line2d_114">
      <defs>
       <path id="m7935ba87ab" d="M 0 0 
L -2 0 
" style="stroke: #000000; stroke-width: 0.6"/>
      </defs>
      <g>
       <use xlink:href="#m7935ba87ab" x="52.742045" y="305.069421" style="stroke: #000000; stroke-width: 0.6"/>
      </g>
     </g>
    </g>
    <g id="ytick_11">
     <g id="line2d_115">
      <g>
       <use xlink:href="#m7935ba87ab" x="52.742045" y="297.916103" style="stroke: #000000; stroke-width: 0.6"/>
      </g>
     </g>
    </g>
    <g id="ytick_12">
     <g id="line2d_116">
      <g>
       <use xlink:href="#m7935ba87ab" x="52.742045" y="283.609468" style="stroke: #000000; stroke-width: 0.6"/>
      </g>
     </g>
    </g>
    <g id="ytick_13">
     <g id="line2d_117">
      <g>
       <use xlink:href="#m7935ba87ab" x="52.742045" y="276.456151" style="stroke: #000000; stroke-width: 0.6"/>
      </g>
     </g>
    </g>
    <g id="ytick_14">
     <g id="line2d_118">
      <g>
       <use xlink:href="#m7935ba87ab" x="52.742045" y="262.149516" style="stroke: #000000; stroke-width: 0.6"/>
      </g>
     </g>
    </g>
    <g id="ytick_15">
     <g id="line2d_119">
      <g>
       <use xlink:href="#m7935ba87ab" x="52.742045" y="254.996198" style="stroke: #000000; stroke-width: 0.6"/>
      </g>
     </g>
    </g>
    <g id="ytick_16">
     <g id="line2d_120">
      <g>
       <use xlink:href="#m7935ba87ab" x="52.742045" y="240.689563" style="stroke: #000000; stroke-width: 0.6"/>
      </g>
     </g>
    </g>
    <g id="ytick_17">
     <g id="line2d_121">
      <g>
       <use xlink:href="#m7935ba87ab" x="52.742045" y="233.536246" style="stroke: #000000; stroke-width: 0.6"/>
      </g>
     </g>
    </g>
    <g id="ytick_18">
     <g id="line2d_122">
      <g>
       <use xlink:href="#m7935ba87ab" x="52.742045" y="219.229611" style="stroke: #000000; stroke-width: 0.6"/>
      </g>
     </g>
    </g>
    <g id="ytick_19">
     <g id="line2d_123">
      <g>
       <use xlink:href="#m7935ba87ab" x="52.742045" y="212.076293" style="stroke: #000000; stroke-width: 0.6"/>
      </g>
     </g>
    </g>
    <g id="ytick_20">
     <g id="line2d_124">
      <g>
       <use xlink:href="#m7935ba87ab" x="52.742045" y="197.769658" style="stroke: #000000; stroke-width: 0.6"/>
      </g>
     </g>
    </g>
    <g id="ytick_21">
     <g id="line2d_125">
      <g>
       <use xlink:href="#m7935ba87ab" x="52.742045" y="190.616341" style="stroke: #000000; stroke-width: 0.6"/>
      </g>
     </g>
    </g>
    <g id="text_21">
     <!-- Phase [deg] -->
     <g transform="translate(17.129498 270.430128) rotate(-90) scale(0.0833 -0.0833)">
      <defs>
       <path id="DejaVuSans-68" d="M 3513 2113 
L 3513 0 
L 2938 0 
L 2938 2094 
Q 2938 2591 2744 2837 
Q 2550 3084 2163 3084 
Q 1697 3084 1428 2787 
Q 1159 2491 1159 1978 
L 1159 0 
L 581 0 
L 581 4863 
L 1159 4863 
L 1159 2956 
Q 1366 3272 1645 3428 
Q 1925 3584 2291 3584 
Q 2894 3584 3203 3211 
Q 3513 2838 3513 2113 
z
" transform="scale(0.015625)"/>
       <path id="DejaVuSans-73" d="M 2834 3397 
L 2834 2853 
Q 2591 2978 2328 3040 
Q 2066 3103 1784 3103 
Q 1356 3103 1142 2972 
Q 928 2841 928 2578 
Q 928 2378 1081 2264 
Q 1234 2150 1697 2047 
L 1894 2003 
Q 2506 1872 2764 1633 
Q 3022 1394 3022 966 
Q 3022 478 2636 193 
Q 2250 -91 1575 -91 
Q 1294 -91 989 -36 
Q 684 19 347 128 
L 347 722 
Q 666 556 975 473 
Q 1284 391 1588 391 
Q 1994 391 2212 530 
Q 2431 669 2431 922 
Q 2431 1156 2273 1281 
Q 2116 1406 1581 1522 
L 1381 1569 
Q 847 1681 609 1914 
Q 372 2147 372 2553 
Q 372 3047 722 3315 
Q 1072 3584 1716 3584 
Q 2034 3584 2315 3537 
Q 2597 3491 2834 3397 
z
" transform="scale(0.015625)"/>
      </defs>
      <use xlink:href="#DejaVuSans-50"/>
      <use xlink:href="#DejaVuSans-68" x="60.302734"/>
      <use xlink:href="#DejaVuSans-61" x="123.681641"/>
      <use xlink:href="#DejaVuSans-73" x="184.960938"/>
      <use xlink:href="#DejaVuSans-65" x="237.060547"/>
      <use xlink:href="#DejaVuSans-20" x="298.583984"/>
      <use xlink:href="#DejaVuSans-5b" x="330.371094"/>
      <use xlink:href="#DejaVuSans-64" x="369.384766"/>
      <use xlink:href="#DejaVuSans-65" x="432.861328"/>
      <use xlink:href="#DejaVuSans-67" x="494.384766"/>
      <use xlink:href="#DejaVuSans-5d" x="557.861328"/>
     </g>
    </g>
   </g>
   <g id="line2d_126">
    <path d="M -1 235.100512 
L 19.82052 237.886543 
L 29.968784 239.007225 
L 38.946095 239.779584 
L 47.533089 240.293587 
L 55.729764 240.564169 
L 63.926439 240.613436 
L 72.123115 240.440445 
L 80.31979 240.049103 
L 88.906783 239.416156 
L 98.274412 238.491964 
L 108.812995 237.220876 
L 125.986981 234.883626 
L 142.770649 232.68305 
L 154.870503 231.327453 
L 166.58004 230.239194 
L 180.241165 229.203326 
L 195.463562 228.036998 
L 199.757059 227.476687 
L 202.489284 226.888169 
L 204.050555 226.370112 
L 205.221509 225.819011 
L 206.392463 225.02774 
L 207.173098 224.280804 
L 207.953734 223.246763 
L 208.73437 221.749344 
L 209.515006 219.477505 
L 210.295641 215.942893 
L 211.076277 210.793463 
L 212.247231 202.341954 
L 213.027867 198.426269 
L 213.808502 195.932799 
L 214.589138 194.349335 
L 215.369774 193.321242 
L 216.150409 192.647833 
L 216.931045 192.218455 
L 217.711681 191.972578 
L 218.882635 191.886303 
L 219.66327 192.008448 
L 220.443906 192.290768 
L 221.224542 192.772334 
L 222.005178 193.52742 
L 222.785813 194.691646 
L 223.566449 196.511926 
L 224.347085 199.414341 
L 225.127721 203.914756 
L 226.688992 215.165906 
L 227.469628 218.949194 
L 228.250264 221.366877 
L 229.030899 222.939575 
L 229.811535 224.010489 
L 230.592171 224.773633 
L 231.763124 225.569126 
L 233.324396 226.256126 
L 235.275985 226.797727 
L 238.00821 227.26421 
L 241.911389 227.664241 
L 248.546793 228.080041 
L 279.772223 229.797439 
L 290.310805 230.68351 
L 299.678434 231.688232 
L 308.265427 232.832809 
L 316.071785 234.098877 
L 323.097507 235.458102 
L 329.73291 236.96967 
L 335.587678 238.525336 
L 340.661811 240.084825 
L 345.345625 241.756881 
L 349.248804 243.388235 
L 352.761665 245.108174 
L 356.274526 247.095471 
L 360.95834 250.019284 
L 361.738976 250.684422 
L 362.519612 251.652007 
L 363.300247 253.230051 
L 364.080883 255.785007 
L 364.861519 259.303412 
L 364.861519 259.303412 
" clip-path="url(#p1f7294308c)" style="fill: none; stroke: #1f77b4; stroke-width: 1.5; stroke-linecap: square"/>
   </g>
   <g id="line2d_127">
    <path d="M -1 225.351217 
L 20.210837 225.788461 
L 49.874996 226.163291 
L 138.086835 227.144948 
L 159.554318 227.679226 
L 177.899258 228.354826 
L 195.85388 229.02201 
L 199.366741 228.940574 
L 201.708648 228.676837 
L 203.26992 228.294059 
L 204.440873 227.808118 
L 205.611827 227.049735 
L 206.782781 225.91146 
L 207.953734 224.371536 
L 209.124688 222.504266 
L 209.905324 220.821076 
L 210.685959 218.239888 
L 211.856913 213.590188 
L 212.247231 212.88879 
L 212.637549 213.049651 
L 213.027867 214.160258 
L 213.808502 218.66374 
L 214.589138 223.538599 
L 215.369774 226.755325 
L 216.150409 228.627452 
L 216.931045 229.761964 
L 217.711681 230.503604 
L 218.882635 231.234119 
L 220.443906 231.863307 
L 222.785813 232.503821 
L 227.07931 233.388001 
L 239.179164 235.807135 
L 245.814568 237.384335 
L 252.059654 239.10326 
L 257.524104 240.829678 
L 262.598236 242.650391 
L 267.672369 244.714457 
L 272.356183 246.867833 
L 276.64968 249.076219 
L 280.943176 251.524698 
L 285.626991 254.466413 
L 291.091441 258.192816 
L 304.752567 267.682943 
L 309.046063 270.330128 
L 313.33956 272.718927 
L 317.633056 274.844804 
L 321.926553 276.720604 
L 326.22005 278.364923 
L 330.903864 279.91481 
L 335.587678 281.225594 
L 340.271493 282.307403 
L 345.345625 283.237404 
L 356.274526 285.067478 
L 357.835797 285.621272 
L 359.006751 286.23899 
L 360.177704 287.162416 
L 360.95834 288.056434 
L 361.738976 289.306443 
L 362.519612 291.103821 
L 363.300247 293.729559 
L 364.080883 297.462941 
L 364.861519 302.162112 
L 364.861519 302.162112 
" clip-path="url(#p1f7294308c)" style="fill: none; stroke: #ff7f0e; stroke-width: 1.5; stroke-linecap: square"/>
   </g>
   <g id="line2d_128">
    <path d="M -1 226.440242 
L 61.584532 226.634248 
L 95.932505 226.948398 
L 120.132213 227.383407 
L 138.867471 227.936977 
L 154.089868 228.60091 
L 167.360675 229.398067 
L 179.070212 230.3194 
L 189.999112 231.401552 
L 200.537695 232.672629 
L 211.076277 234.171634 
L 222.785813 236.071985 
L 239.9598 239.120148 
L 260.646647 242.739835 
L 276.259362 245.226145 
L 319.584646 251.944785 
L 328.952275 253.742007 
L 336.758632 255.457936 
L 343.784354 257.221695 
L 350.419758 259.121815 
L 356.274526 261.022735 
L 361.738976 263.016237 
L 364.861519 264.261107 
L 364.861519 264.261107 
" clip-path="url(#p1f7294308c)" style="fill: none; stroke: #2ca02c; stroke-width: 1.5; stroke-linecap: square"/>
   </g>
   <g id="patch_9">
    <path d="M 52.742045 307.676244 
L 52.742045 183.463024 
" style="fill: none; stroke: #000000; stroke-width: 0.8; stroke-linejoin: miter; stroke-linecap: square"/>
   </g>
   <g id="patch_10">
    <path d="M 442.6696 307.676244 
L 442.6696 183.463024 
" style="fill: none; stroke: #000000; stroke-width: 0.8; stroke-linejoin: miter; stroke-linecap: square"/>
   </g>
   <g id="patch_11">
    <path d="M 52.742045 307.676244 
L 442.6696 307.676244 
" style="fill: none; stroke: #000000; stroke-width: 0.8; stroke-linejoin: miter; stroke-linecap: square"/>
   </g>
   <g id="patch_12">
    <path d="M 52.742045 183.463024 
L 442.6696 183.463024 
" style="fill: none; stroke: #000000; stroke-width: 0.8; stroke-linejoin: miter; stroke-linecap: square"/>
   </g>
  </g>
 </g>
 <defs>
  <clipPath id="p6592b5334c">
   <rect x="52.742045" y="41.785054" width="389.927555" height="124.21322"/>
  </clipPath>
  <clipPath id="p1f7294308c">
   <rect x="52.742045" y="183.463024" width="389.927555" height="124.21322"/>
  </clipPath>
 </defs>
</svg>
