<?xml version="1.0" encoding="utf-8" standalone="no"?>
<!DOCTYPE svg PUBLIC "-//W3C//DTD SVG 1.1//EN"
  "http://www.w3.org/Graphics/SVG/1.1/DTD/svg11.dtd">
<svg xmlns:xlink="http://www.w3.org/1999/xlink" width="460.8pt" height="345.6pt" viewBox="0 0 460.8 345.6" xmlns="http://www.w3.org/2000/svg" version="1.1">
 <metadata>
  <rdf:RDF xmlns:dc="http://purl.org/dc/elements/1.1/" xmlns:cc="http://creativecommons.org/ns#" xmlns:rdf="http://www.w3.org/1999/02/22-rdf-syntax-ns#">
   <cc:Work>
    <dc:type rdf:resource="http://purl.org/dc/dcmitype/StillImage"/>
    <dc:date>2024-12-16T21:16:48.190118</dc:date>
    <dc:format>image/svg+xml</dc:format>
    <dc:creator>
     <cc:Agent>
      <dc:title>Matplotlib v3.9.2, https://matplotlib.org/</dc:title>
     </cc:Agent>
    </dc:creator>
   </cc:Work>
  </rdf:RDF>
 </metadata>
 <defs>
  <style type="text/css">*{stroke-linejoin: round; stroke-linecap: butt}</style>
 </defs>
 <g id="figure_1">
  <g id="patch_1">
   <path d="M 0 345.6 
L 460.8 345.6 
L 460.8 0 
L 0 0 
z
" style="fill: #ffffff"/>
  </g>
  <g id="axes_1">
   <g id="patch_2">
    <path d="M 57.6 162.432 
L 414.72 162.432 
L 414.72 41.472 
L 57.6 41.472 
z
" style="fill: #ffffff"/>
   </g>
   <g id="matplotlib.axis_1">
    <g id="xtick_1">
     <g id="line2d_1">
      <defs>
       <path id="m5549bfc10f" d="M 0 0 
L 0 3.5 
" style="stroke: #000000; stroke-width: 0.8"/>
      </defs>
      <g>
       <use xlink:href="#m5549bfc10f" x="116.342406" y="162.432" style="stroke: #000000; stroke-width: 0.8"/>
      </g>
     </g>
     <g id="text_1">
      <!-- $\mathdefault{10^{1}}$ -->
      <g transform="translate(107.542406 177.030437) scale(0.1 -0.1)">
       <defs>
        <path id="DejaVuSans-31" d="M 794 531 
L 1825 531 
L 1825 4091 
L 703 3866 
L 703 4441 
L 1819 4666 
L 2450 4666 
L 2450 531 
L 3481 531 
L 3481 0 
L 794 0 
L 794 531 
z
" transform="scale(0.015625)"/>
        <path id="DejaVuSans-30" d="M 2034 4250 
Q 1547 4250 1301 3770 
Q 1056 3291 1056 2328 
Q 1056 1369 1301 889 
Q 1547 409 2034 409 
Q 2525 409 2770 889 
Q 3016 1369 3016 2328 
Q 3016 3291 2770 3770 
Q 2525 4250 2034 4250 
z
M 2034 4750 
Q 2819 4750 3233 4129 
Q 3647 3509 3647 2328 
Q 3647 1150 3233 529 
Q 2819 -91 2034 -91 
Q 1250 -91 836 529 
Q 422 1150 422 2328 
Q 422 3509 836 4129 
Q 1250 4750 2034 4750 
z
" transform="scale(0.015625)"/>
       </defs>
       <use xlink:href="#DejaVuSans-31" transform="translate(0 0.684375)"/>
       <use xlink:href="#DejaVuSans-30" transform="translate(63.623047 0.684375)"/>
       <use xlink:href="#DejaVuSans-31" transform="translate(128.203125 38.965625) scale(0.7)"/>
      </g>
     </g>
    </g>
    <g id="xtick_2">
     <g id="line2d_2">
      <g>
       <use xlink:href="#m5549bfc10f" x="199.320336" y="162.432" style="stroke: #000000; stroke-width: 0.8"/>
      </g>
     </g>
     <g id="text_2">
      <!-- $\mathdefault{10^{2}}$ -->
      <g transform="translate(190.520336 177.030437) scale(0.1 -0.1)">
       <defs>
        <path id="DejaVuSans-32" d="M 1228 531 
L 3431 531 
L 3431 0 
L 469 0 
L 469 531 
Q 828 903 1448 1529 
Q 2069 2156 2228 2338 
Q 2531 2678 2651 2914 
Q 2772 3150 2772 3378 
Q 2772 3750 2511 3984 
Q 2250 4219 1831 4219 
Q 1534 4219 1204 4116 
Q 875 4013 500 3803 
L 500 4441 
Q 881 4594 1212 4672 
Q 1544 4750 1819 4750 
Q 2544 4750 2975 4387 
Q 3406 4025 3406 3419 
Q 3406 3131 3298 2873 
Q 3191 2616 2906 2266 
Q 2828 2175 2409 1742 
Q 1991 1309 1228 531 
z
" transform="scale(0.015625)"/>
       </defs>
       <use xlink:href="#DejaVuSans-31" transform="translate(0 0.765625)"/>
       <use xlink:href="#DejaVuSans-30" transform="translate(63.623047 0.765625)"/>
       <use xlink:href="#DejaVuSans-32" transform="translate(128.203125 39.046875) scale(0.7)"/>
      </g>
     </g>
    </g>
    <g id="xtick_3">
     <g id="line2d_3">
      <g>
       <use xlink:href="#m5549bfc10f" x="282.298267" y="162.432" style="stroke: #000000; stroke-width: 0.8"/>
      </g>
     </g>
     <g id="text_3">
      <!-- $\mathdefault{10^{3}}$ -->
      <g transform="translate(273.498267 177.030437) scale(0.1 -0.1)">
       <defs>
        <path id="DejaVuSans-33" d="M 2597 2516 
Q 3050 2419 3304 2112 
Q 3559 1806 3559 1356 
Q 3559 666 3084 287 
Q 2609 -91 1734 -91 
Q 1441 -91 1130 -33 
Q 819 25 488 141 
L 488 750 
Q 750 597 1062 519 
Q 1375 441 1716 441 
Q 2309 441 2620 675 
Q 2931 909 2931 1356 
Q 2931 1769 2642 2001 
Q 2353 2234 1838 2234 
L 1294 2234 
L 1294 2753 
L 1863 2753 
Q 2328 2753 2575 2939 
Q 2822 3125 2822 3475 
Q 2822 3834 2567 4026 
Q 2313 4219 1838 4219 
Q 1578 4219 1281 4162 
Q 984 4106 628 3988 
L 628 4550 
Q 988 4650 1302 4700 
Q 1616 4750 1894 4750 
Q 2613 4750 3031 4423 
Q 3450 4097 3450 3541 
Q 3450 3153 3228 2886 
Q 3006 2619 2597 2516 
z
" transform="scale(0.015625)"/>
       </defs>
       <use xlink:href="#DejaVuSans-31" transform="translate(0 0.765625)"/>
       <use xlink:href="#DejaVuSans-30" transform="translate(63.623047 0.765625)"/>
       <use xlink:href="#DejaVuSans-33" transform="translate(128.203125 39.046875) scale(0.7)"/>
      </g>
     </g>
    </g>
    <g id="xtick_4">
     <g id="line2d_4">
      <g>
       <use xlink:href="#m5549bfc10f" x="365.276197" y="162.432" style="stroke: #000000; stroke-width: 0.8"/>
      </g>
     </g>
     <g id="text_4">
      <!-- $\mathdefault{10^{4}}$ -->
      <g transform="translate(356.476197 177.030437) scale(0.1 -0.1)">
       <defs>
        <path id="DejaVuSans-34" d="M 2419 4116 
L 825 1625 
L 2419 1625 
L 2419 4116 
z
M 2253 4666 
L 3047 4666 
L 3047 1625 
L 3713 1625 
L 3713 1100 
L 3047 1100 
L 3047 0 
L 2419 0 
L 2419 1100 
L 313 1100 
L 313 1709 
L 2253 4666 
z
" transform="scale(0.015625)"/>
       </defs>
       <use xlink:href="#DejaVuSans-31" transform="translate(0 0.684375)"/>
       <use xlink:href="#DejaVuSans-30" transform="translate(63.623047 0.684375)"/>
       <use xlink:href="#DejaVuSans-34" transform="translate(128.203125 38.965625) scale(0.7)"/>
      </g>
     </g>
    </g>
    <g id="xtick_5">
     <g id="line2d_5">
      <defs>
       <path id="m8c9b430bd0" d="M 0 0 
L 0 2 
" style="stroke: #000000; stroke-width: 0.6"/>
      </defs>
      <g>
       <use xlink:href="#m8c9b430bd0" x="58.343322" y="162.432" style="stroke: #000000; stroke-width: 0.6"/>
      </g>
     </g>
    </g>
    <g id="xtick_6">
     <g id="line2d_6">
      <g>
       <use xlink:href="#m8c9b430bd0" x="72.95501" y="162.432" style="stroke: #000000; stroke-width: 0.6"/>
      </g>
     </g>
    </g>
    <g id="xtick_7">
     <g id="line2d_7">
      <g>
       <use xlink:href="#m8c9b430bd0" x="83.322168" y="162.432" style="stroke: #000000; stroke-width: 0.6"/>
      </g>
     </g>
    </g>
    <g id="xtick_8">
     <g id="line2d_8">
      <g>
       <use xlink:href="#m8c9b430bd0" x="91.36356" y="162.432" style="stroke: #000000; stroke-width: 0.6"/>
      </g>
     </g>
    </g>
    <g id="xtick_9">
     <g id="line2d_9">
      <g>
       <use xlink:href="#m8c9b430bd0" x="97.933856" y="162.432" style="stroke: #000000; stroke-width: 0.6"/>
      </g>
     </g>
    </g>
    <g id="xtick_10">
     <g id="line2d_10">
      <g>
       <use xlink:href="#m8c9b430bd0" x="103.488962" y="162.432" style="stroke: #000000; stroke-width: 0.6"/>
      </g>
     </g>
    </g>
    <g id="xtick_11">
     <g id="line2d_11">
      <g>
       <use xlink:href="#m8c9b430bd0" x="108.301014" y="162.432" style="stroke: #000000; stroke-width: 0.6"/>
      </g>
     </g>
    </g>
    <g id="xtick_12">
     <g id="line2d_12">
      <g>
       <use xlink:href="#m8c9b430bd0" x="112.545544" y="162.432" style="stroke: #000000; stroke-width: 0.6"/>
      </g>
     </g>
    </g>
    <g id="xtick_13">
     <g id="line2d_13">
      <g>
       <use xlink:href="#m8c9b430bd0" x="141.321252" y="162.432" style="stroke: #000000; stroke-width: 0.6"/>
      </g>
     </g>
    </g>
    <g id="xtick_14">
     <g id="line2d_14">
      <g>
       <use xlink:href="#m8c9b430bd0" x="155.93294" y="162.432" style="stroke: #000000; stroke-width: 0.6"/>
      </g>
     </g>
    </g>
    <g id="xtick_15">
     <g id="line2d_15">
      <g>
       <use xlink:href="#m8c9b430bd0" x="166.300098" y="162.432" style="stroke: #000000; stroke-width: 0.6"/>
      </g>
     </g>
    </g>
    <g id="xtick_16">
     <g id="line2d_16">
      <g>
       <use xlink:href="#m8c9b430bd0" x="174.34149" y="162.432" style="stroke: #000000; stroke-width: 0.6"/>
      </g>
     </g>
    </g>
    <g id="xtick_17">
     <g id="line2d_17">
      <g>
       <use xlink:href="#m8c9b430bd0" x="180.911786" y="162.432" style="stroke: #000000; stroke-width: 0.6"/>
      </g>
     </g>
    </g>
    <g id="xtick_18">
     <g id="line2d_18">
      <g>
       <use xlink:href="#m8c9b430bd0" x="186.466892" y="162.432" style="stroke: #000000; stroke-width: 0.6"/>
      </g>
     </g>
    </g>
    <g id="xtick_19">
     <g id="line2d_19">
      <g>
       <use xlink:href="#m8c9b430bd0" x="191.278944" y="162.432" style="stroke: #000000; stroke-width: 0.6"/>
      </g>
     </g>
    </g>
    <g id="xtick_20">
     <g id="line2d_20">
      <g>
       <use xlink:href="#m8c9b430bd0" x="195.523475" y="162.432" style="stroke: #000000; stroke-width: 0.6"/>
      </g>
     </g>
    </g>
    <g id="xtick_21">
     <g id="line2d_21">
      <g>
       <use xlink:href="#m8c9b430bd0" x="224.299183" y="162.432" style="stroke: #000000; stroke-width: 0.6"/>
      </g>
     </g>
    </g>
    <g id="xtick_22">
     <g id="line2d_22">
      <g>
       <use xlink:href="#m8c9b430bd0" x="238.910871" y="162.432" style="stroke: #000000; stroke-width: 0.6"/>
      </g>
     </g>
    </g>
    <g id="xtick_23">
     <g id="line2d_23">
      <g>
       <use xlink:href="#m8c9b430bd0" x="249.278029" y="162.432" style="stroke: #000000; stroke-width: 0.6"/>
      </g>
     </g>
    </g>
    <g id="xtick_24">
     <g id="line2d_24">
      <g>
       <use xlink:href="#m8c9b430bd0" x="257.319421" y="162.432" style="stroke: #000000; stroke-width: 0.6"/>
      </g>
     </g>
    </g>
    <g id="xtick_25">
     <g id="line2d_25">
      <g>
       <use xlink:href="#m8c9b430bd0" x="263.889717" y="162.432" style="stroke: #000000; stroke-width: 0.6"/>
      </g>
     </g>
    </g>
    <g id="xtick_26">
     <g id="line2d_26">
      <g>
       <use xlink:href="#m8c9b430bd0" x="269.444823" y="162.432" style="stroke: #000000; stroke-width: 0.6"/>
      </g>
     </g>
    </g>
    <g id="xtick_27">
     <g id="line2d_27">
      <g>
       <use xlink:href="#m8c9b430bd0" x="274.256875" y="162.432" style="stroke: #000000; stroke-width: 0.6"/>
      </g>
     </g>
    </g>
    <g id="xtick_28">
     <g id="line2d_28">
      <g>
       <use xlink:href="#m8c9b430bd0" x="278.501405" y="162.432" style="stroke: #000000; stroke-width: 0.6"/>
      </g>
     </g>
    </g>
    <g id="xtick_29">
     <g id="line2d_29">
      <g>
       <use xlink:href="#m8c9b430bd0" x="307.277113" y="162.432" style="stroke: #000000; stroke-width: 0.6"/>
      </g>
     </g>
    </g>
    <g id="xtick_30">
     <g id="line2d_30">
      <g>
       <use xlink:href="#m8c9b430bd0" x="321.888801" y="162.432" style="stroke: #000000; stroke-width: 0.6"/>
      </g>
     </g>
    </g>
    <g id="xtick_31">
     <g id="line2d_31">
      <g>
       <use xlink:href="#m8c9b430bd0" x="332.255959" y="162.432" style="stroke: #000000; stroke-width: 0.6"/>
      </g>
     </g>
    </g>
    <g id="xtick_32">
     <g id="line2d_32">
      <g>
       <use xlink:href="#m8c9b430bd0" x="340.297351" y="162.432" style="stroke: #000000; stroke-width: 0.6"/>
      </g>
     </g>
    </g>
    <g id="xtick_33">
     <g id="line2d_33">
      <g>
       <use xlink:href="#m8c9b430bd0" x="346.867647" y="162.432" style="stroke: #000000; stroke-width: 0.6"/>
      </g>
     </g>
    </g>
    <g id="xtick_34">
     <g id="line2d_34">
      <g>
       <use xlink:href="#m8c9b430bd0" x="352.422753" y="162.432" style="stroke: #000000; stroke-width: 0.6"/>
      </g>
     </g>
    </g>
    <g id="xtick_35">
     <g id="line2d_35">
      <g>
       <use xlink:href="#m8c9b430bd0" x="357.234805" y="162.432" style="stroke: #000000; stroke-width: 0.6"/>
      </g>
     </g>
    </g>
    <g id="xtick_36">
     <g id="line2d_36">
      <g>
       <use xlink:href="#m8c9b430bd0" x="361.479336" y="162.432" style="stroke: #000000; stroke-width: 0.6"/>
      </g>
     </g>
    </g>
    <g id="xtick_37">
     <g id="line2d_37">
      <g>
       <use xlink:href="#m8c9b430bd0" x="390.255044" y="162.432" style="stroke: #000000; stroke-width: 0.6"/>
      </g>
     </g>
    </g>
    <g id="xtick_38">
     <g id="line2d_38">
      <g>
       <use xlink:href="#m8c9b430bd0" x="404.866732" y="162.432" style="stroke: #000000; stroke-width: 0.6"/>
      </g>
     </g>
    </g>
   </g>
   <g id="matplotlib.axis_2">
    <g id="ytick_1">
     <g id="line2d_39">
      <defs>
       <path id="m8d76025890" d="M 0 0 
L -3.5 0 
" style="stroke: #000000; stroke-width: 0.8"/>
      </defs>
      <g>
       <use xlink:href="#m8d76025890" x="57.6" y="141.823525" style="stroke: #000000; stroke-width: 0.8"/>
      </g>
     </g>
     <g id="text_5">
      <!-- −60 -->
      <g transform="translate(29.495313 145.622744) scale(0.1 -0.1)">
       <defs>
        <path id="DejaVuSans-2212" d="M 678 2272 
L 4684 2272 
L 4684 1741 
L 678 1741 
L 678 2272 
z
" transform="scale(0.015625)"/>
        <path id="DejaVuSans-36" d="M 2113 2584 
Q 1688 2584 1439 2293 
Q 1191 2003 1191 1497 
Q 1191 994 1439 701 
Q 1688 409 2113 409 
Q 2538 409 2786 701 
Q 3034 994 3034 1497 
Q 3034 2003 2786 2293 
Q 2538 2584 2113 2584 
z
M 3366 4563 
L 3366 3988 
Q 3128 4100 2886 4159 
Q 2644 4219 2406 4219 
Q 1781 4219 1451 3797 
Q 1122 3375 1075 2522 
Q 1259 2794 1537 2939 
Q 1816 3084 2150 3084 
Q 2853 3084 3261 2657 
Q 3669 2231 3669 1497 
Q 3669 778 3244 343 
Q 2819 -91 2113 -91 
Q 1303 -91 875 529 
Q 447 1150 447 2328 
Q 447 3434 972 4092 
Q 1497 4750 2381 4750 
Q 2619 4750 2861 4703 
Q 3103 4656 3366 4563 
z
" transform="scale(0.015625)"/>
       </defs>
       <use xlink:href="#DejaVuSans-2212"/>
       <use xlink:href="#DejaVuSans-36" x="83.789062"/>
       <use xlink:href="#DejaVuSans-30" x="147.412109"/>
      </g>
     </g>
    </g>
    <g id="ytick_2">
     <g id="line2d_40">
      <g>
       <use xlink:href="#m8d76025890" x="57.6" y="113.03716" style="stroke: #000000; stroke-width: 0.8"/>
      </g>
     </g>
     <g id="text_6">
      <!-- −40 -->
      <g transform="translate(29.495313 116.836379) scale(0.1 -0.1)">
       <use xlink:href="#DejaVuSans-2212"/>
       <use xlink:href="#DejaVuSans-34" x="83.789062"/>
       <use xlink:href="#DejaVuSans-30" x="147.412109"/>
      </g>
     </g>
    </g>
    <g id="ytick_3">
     <g id="line2d_41">
      <g>
       <use xlink:href="#m8d76025890" x="57.6" y="84.250795" style="stroke: #000000; stroke-width: 0.8"/>
      </g>
     </g>
     <g id="text_7">
      <!-- −20 -->
      <g transform="translate(29.495313 88.050013) scale(0.1 -0.1)">
       <use xlink:href="#DejaVuSans-2212"/>
       <use xlink:href="#DejaVuSans-32" x="83.789062"/>
       <use xlink:href="#DejaVuSans-30" x="147.412109"/>
      </g>
     </g>
    </g>
    <g id="ytick_4">
     <g id="line2d_42">
      <g>
       <use xlink:href="#m8d76025890" x="57.6" y="55.464429" style="stroke: #000000; stroke-width: 0.8"/>
      </g>
     </g>
     <g id="text_8">
      <!-- 0 -->
      <g transform="translate(44.2375 59.263648) scale(0.1 -0.1)">
       <use xlink:href="#DejaVuSans-30"/>
      </g>
     </g>
    </g>
   </g>
   <g id="line2d_43">
    <path d="M 73.832727 94.416858 
L 98.811573 77.135246 
L 113.423262 75.438414 
L 123.790419 67.364062 
L 131.831812 74.642013 
L 138.402108 75.132775 
L 143.957214 94.503332 
L 148.769265 78.984342 
L 153.139831 66.032349 
L 157.262334 78.867018 
L 161.163245 77.023586 
L 164.865034 77.081805 
L 168.386938 83.67443 
L 171.745549 78.857773 
L 174.955272 79.699075 
L 178.028697 82.128315 
L 180.976886 81.816358 
L 183.809611 82.893594 
L 186.535549 84.266158 
L 189.162436 85.391265 
L 191.697197 86.134541 
L 194.14606 86.111761 
L 196.514643 88.231922 
L 198.80803 89.265472 
L 201.03084 89.967759 
L 203.187278 90.78451 
L 205.281186 91.707508 
L 207.316082 92.464221 
L 211.221498 94.35079 
L 214.926429 96.267842 
L 218.450431 98.322233 
L 220.149936 99.434508 
L 221.810334 100.686685 
L 225.020727 103.5575 
L 226.573899 105.279531 
L 228.094338 107.251576 
L 229.583394 109.990324 
L 231.042336 113.476797 
L 232.472357 118.485108 
L 233.874579 123.903604 
L 235.250062 121.747206 
L 236.599807 114.453629 
L 239.225808 102.164126 
L 240.503804 97.11879 
L 241.759549 92.65734 
L 242.993803 88.862902 
L 244.20729 85.5286 
L 245.400696 78.651156 
L 246.574674 73.309507 
L 247.729847 76.394243 
L 248.866808 79.024855 
L 249.98612 82.764906 
L 251.088325 85.912967 
L 253.243444 89.819142 
L 255.336018 92.488625 
L 257.369574 94.717301 
L 259.347349 96.097911 
L 260.316257 97.032339 
L 261.272318 97.455527 
L 262.215868 97.721227 
L 266.756833 100.612839 
L 271.853472 103.259656 
L 275.841651 105.117379 
L 278.13278 106.085526 
L 281.078571 107.352399 
L 282.507524 107.946315 
L 295.426394 113.355635 
L 297.179025 114.162078 
L 298.642342 114.989339 
L 299.201064 115.061517 
L 301.871682 116.271602 
L 302.382852 116.69141 
L 303.38394 116.885909 
L 303.874245 116.5602 
L 304.357969 116.399375 
L 304.835285 115.978715 
L 305.306362 116.17419 
L 305.77136 115.745444 
L 306.230434 115.475963 
L 306.683734 115.355826 
L 307.131403 115.629237 
L 308.010394 115.731072 
L 308.868455 116.265472 
L 310.118413 116.705839 
L 310.928265 117.212678 
L 312.109907 117.751385 
L 312.495331 117.964362 
L 312.876677 118.035993 
L 314.725126 118.909955 
L 320.073717 120.975715 
L 320.383048 120.999292 
L 320.993857 121.299168 
L 321.295422 121.26124 
L 321.594485 121.515972 
L 321.891086 121.529654 
L 322.477065 121.98843 
L 323.053667 122.293985 
L 323.338544 122.288127 
L 324.17991 122.608024 
L 324.730102 122.709314 
L 325.539953 122.339691 
L 326.069916 122.011124 
L 326.592199 121.962775 
L 327.10702 121.989913 
L 327.865718 122.06773 
L 328.115109 122.33206 
L 328.608773 122.432047 
L 329.095765 122.692378 
L 329.336815 122.597989 
L 329.814131 122.959887 
L 330.285208 122.978156 
L 330.750206 123.131109 
L 330.980474 123.040026 
L 331.20928 123.110356 
L 332.110249 122.800945 
L 333.205678 121.179191 
L 333.847301 119.97831 
L 334.26879 119.699463 
L 334.891921 119.776459 
L 335.301435 120.273821 
L 335.907111 121.308827 
L 336.305312 121.998783 
L 337.088753 123.006078 
L 337.28198 122.835031 
L 337.474177 123.446929 
L 337.665355 123.43141 
L 338.232876 123.827285 
L 338.791598 124.260662 
L 340.062551 124.684158 
L 340.240511 124.904381 
L 340.417597 124.903416 
L 340.593817 125.041736 
L 340.769179 124.938983 
L 341.290203 125.65457 
L 341.462217 126.106099 
L 341.633413 126.144322 
L 341.973386 126.715912 
L 342.310182 126.573404 
L 342.643859 125.782631 
L 342.974475 125.563294 
L 343.464779 125.904873 
L 343.626743 126.319467 
L 343.787982 126.418242 
L 344.267415 127.119125 
L 344.425819 127.013916 
L 345.052563 127.494821 
L 345.207561 127.44025 
L 345.361894 127.639133 
L 345.51557 127.620005 
L 345.668593 127.799308 
L 345.820969 127.724223 
L 345.972703 127.836195 
L 346.123801 127.762268 
L 346.42411 128.200522 
L 346.721937 128.189615 
L 346.869933 128.349085 
L 347.017323 128.193173 
L 347.455911 128.432581 
L 347.600928 128.339904 
L 347.745365 128.887322 
L 347.889225 128.931958 
L 348.032513 128.787822 
L 348.175233 129.047744 
L 348.31739 128.911461 
L 348.458989 129.184236 
L 348.600034 129.188235 
L 348.740529 129.030352 
L 348.880478 129.288221 
L 349.019886 129.206722 
L 349.434902 129.318138 
L 349.980925 133.559481 
L 350.116148 133.351315 
L 350.250866 132.308315 
L 350.385081 132.147277 
L 350.652022 130.635681 
L 350.917 130.342722 
L 351.048762 130.553365 
L 351.180044 130.415653 
L 351.829374 131.792007 
L 351.957848 132.221229 
L 352.085866 131.947797 
L 352.21343 131.406348 
L 352.969476 125.467099 
L 353.218007 126.524384 
L 353.587619 127.883631 
L 353.831937 128.513811 
L 353.953478 128.706138 
L 354.195337 128.150496 
L 354.315661 128.100701 
L 354.555109 127.240035 
L 354.674239 127.119407 
L 355.029285 125.127656 
L 355.264054 119.88183 
L 355.497303 124.861458 
L 356.073905 128.782538 
L 356.188126 128.956042 
L 356.415489 129.606295 
L 356.528635 130.003849 
L 356.641426 129.867955 
L 356.753866 130.061015 
L 357.089095 129.934986 
L 357.200148 130.243072 
L 357.421234 131.71997 
L 357.53127 131.953842 
L 357.75034 132.901523 
L 357.859378 132.598721 
L 357.968086 132.709436 
L 358.076468 132.503832 
L 358.292258 133.078542 
L 358.39967 133.014657 
L 358.506764 132.625958 
L 358.72 132.775565 
L 359.037508 132.514209 
L 359.142725 132.647246 
L 359.456546 132.28546 
L 359.560548 132.447993 
L 359.664251 132.234748 
L 359.973582 132.625673 
L 360.178338 132.174503 
L 360.280281 132.48201 
L 360.483306 132.155141 
L 360.584391 132.411458 
L 360.98592 131.009603 
L 361.085607 129.039083 
L 361.185019 121.925409 
L 361.383025 139.132905 
L 361.579948 138.663686 
L 361.970595 140.874349 
L 362.067599 140.841228 
L 362.164342 141.816445 
L 362.357053 139.103978 
L 362.548739 134.081989 
L 362.929079 123.636681 
L 363.492166 115.651988 
L 363.862728 116.156279 
L 363.954776 116.18769 
L 364.138171 115.586254 
L 364.320636 113.966082 
L 364.502182 110.593735 
L 364.682819 105.641674 
L 364.772798 107.864643 
L 365.219357 134.01575 
L 365.396443 132.952806 
L 365.835387 128.051822 
L 366.09621 126.523504 
L 366.182733 126.391571 
L 366.269049 125.840784 
L 366.355158 125.98857 
L 366.61226 125.137563 
L 366.697554 125.276001 
L 366.782647 125.148341 
L 366.867539 125.291357 
L 367.539575 123.83132 
L 367.788392 122.801782 
L 368.280931 121.693574 
L 368.927349 117.519326 
L 369.562376 112.038939 
L 369.7194 111.895569 
L 369.797656 112.186967 
L 370.723707 120.73666 
L 370.951549 121.29984 
L 371.027177 121.446745 
L 371.102647 121.312353 
L 371.253115 121.638022 
L 371.328113 121.709587 
L 371.552177 122.922388 
L 371.848779 123.997173 
L 372.069638 125.62614 
L 372.507338 127.659153 
L 372.579774 127.707301 
L 372.652065 127.550508 
L 372.868071 128.491653 
L 372.939786 128.892402 
L 373.011359 128.672445 
L 373.08279 129.05657 
L 373.154079 128.96515 
L 373.225228 128.921954 
L 373.296237 128.616002 
L 373.367105 129.49818 
L 373.437835 128.598128 
L 373.508427 128.812858 
L 373.719375 129.513003 
L 373.789417 128.965934 
L 373.859324 129.402508 
L 373.998732 128.932513 
L 374.068234 129.680195 
L 374.137602 129.237913 
L 374.206837 129.157028 
L 374.27594 128.659098 
L 374.34491 129.065135 
L 374.413748 128.422956 
L 374.482455 128.543433 
L 374.551031 128.581403 
L 374.619478 127.835026 
L 374.687794 128.41746 
L 374.755981 127.902048 
L 374.891969 128.990271 
L 375.094994 129.903539 
L 375.162416 129.472745 
L 375.296882 130.093204 
L 375.363927 129.802482 
L 375.430848 129.934671 
L 375.697296 130.502237 
L 375.829784 130.573501 
L 375.895846 131.029807 
L 375.961788 129.836253 
L 376.093309 130.93805 
L 376.15889 129.894542 
L 376.224352 131.440055 
L 376.289696 130.287933 
L 376.354921 131.380125 
L 376.420028 131.337996 
L 376.485018 131.117041 
L 376.549891 131.713118 
L 376.614647 131.69706 
L 376.679287 131.552883 
L 376.743812 132.533523 
L 376.808221 131.461432 
L 376.936694 133.916723 
L 377.00076 129.924356 
L 377.064712 130.097708 
L 377.12855 129.907123 
L 377.192276 130.45727 
L 377.255889 129.718173 
L 377.31939 130.421477 
L 377.38278 130.298271 
L 377.446058 129.811355 
L 377.509225 129.944536 
L 377.572281 130.658903 
L 377.635228 130.405006 
L 377.760792 128.860163 
L 378.010615 129.67347 
L 378.13488 129.427031 
L 378.258719 130.205709 
L 378.320478 130.137367 
L 378.443681 130.223371 
L 378.688831 131.54207 
L 378.749859 131.40229 
L 378.871605 132.973491 
L 378.932324 132.099507 
L 378.992941 132.243012 
L 379.053457 132.131245 
L 379.113871 131.816855 
L 379.174183 131.928939 
L 379.234395 132.651341 
L 379.474242 130.821825 
L 379.533955 131.872138 
L 379.59357 131.078558 
L 379.771823 130.523647 
L 379.831046 131.552929 
L 379.949199 129.807919 
L 380.008131 130.036024 
L 380.066967 130.350609 
L 380.359713 128.744691 
L 380.417978 128.473745 
L 380.476149 129.084819 
L 380.534226 128.74455 
L 380.59221 128.998278 
L 380.6501 128.742082 
L 380.707898 128.877493 
L 380.765603 129.016995 
L 380.880737 127.92147 
L 380.938166 128.879893 
L 381.109907 127.82563 
L 381.166973 127.184146 
L 381.223948 128.378321 
L 381.280833 127.666861 
L 381.507481 130.341308 
L 381.563921 132.085675 
L 381.620272 131.726494 
L 381.676536 131.739401 
L 382.12351 137.92583 
L 382.289707 132.73575 
L 382.344936 132.563117 
L 382.510116 136.342326 
L 382.565009 133.359029 
L 382.619818 136.166442 
L 382.674543 135.54256 
L 382.838224 138.859545 
L 382.946932 136.033505 
L 383.001164 140.849017 
L 383.055314 139.878374 
L 383.109383 140.355402 
L 383.217277 136.391506 
L 383.271104 138.05482 
L 383.32485 137.326344 
L 383.378516 135.717812 
L 383.432103 137.07065 
L 383.48561 139.085165 
L 383.539037 137.176033 
L 383.645655 134.529135 
L 383.698846 136.724852 
L 383.751959 133.092367 
L 383.804993 133.682727 
L 383.85795 133.76663 
L 383.910828 131.736106 
L 383.96363 132.440271 
L 384.016354 132.336105 
L 384.174064 129.831185 
L 384.226482 130.787414 
L 384.278823 128.366889 
L 384.383278 128.662595 
L 384.435392 128.841495 
L 384.48743 129.500166 
L 384.539394 128.238458 
L 384.591283 129.413598 
L 384.694837 127.846306 
L 384.798095 129.588487 
L 384.849613 129.301789 
L 384.952429 128.86849 
L 385.054952 129.544064 
L 385.106104 129.193494 
L 385.157184 128.966006 
L 385.208192 129.443274 
L 385.259127 128.904618 
L 385.309991 128.508625 
L 385.462152 130.209847 
L 385.51273 129.951055 
L 385.613674 130.540726 
L 385.66404 129.334166 
L 385.714335 132.010968 
L 385.814717 131.821219 
L 385.864803 131.297097 
L 385.914819 131.872565 
L 385.964766 132.015364 
L 386.361871 141.098393 
L 386.558794 156.933818 
L 386.705783 142.398861 
L 386.949441 134.47216 
L 386.997976 136.249549 
L 387.191463 129.540437 
L 387.239673 131.206769 
L 387.287818 130.116491 
L 387.335899 128.637134 
L 387.383916 130.746857 
L 387.43187 128.814143 
L 387.479759 129.086459 
L 387.575348 131.701419 
L 387.623047 129.857199 
L 387.670683 130.981703 
L 387.765767 133.715422 
L 387.813215 132.897328 
L 388.002386 127.946963 
L 388.049524 127.616839 
L 388.143615 127.802488 
L 388.190568 124.995091 
L 388.331063 126.784496 
L 388.424423 126.150014 
L 388.61042 129.556786 
L 388.65677 127.418261 
L 388.74929 128.264762 
L 388.887628 130.224186 
L 388.933623 129.789095 
L 388.979559 131.104055 
L 389.025436 130.153805 
L 389.071256 128.97412 
L 389.117017 131.33838 
L 389.16272 131.013561 
L 389.253952 128.582716 
L 389.299482 128.912106 
L 389.435727 129.989429 
L 389.481028 130.265288 
L 389.526272 128.530603 
L 389.61659 129.126188 
L 389.661665 129.129996 
L 389.751644 128.067265 
L 389.79655 129.891808 
L 389.8414 127.620289 
L 389.930933 129.275388 
L 390.064816 127.087148 
L 390.153796 126.860934 
L 390.198203 129.066499 
L 390.331099 125.847686 
L 390.375289 128.936445 
L 390.463507 128.17902 
L 390.507535 127.934636 
L 390.639297 129.490988 
L 390.770579 127.589654 
L 390.814233 129.078901 
L 390.901384 128.672612 
L 390.94488 127.646043 
L 390.988325 128.493539 
L 391.118343 131.129463 
L 391.161579 130.316584 
L 391.204763 129.787513 
L 391.247895 131.067075 
L 391.376982 127.15582 
L 391.505609 130.967985 
L 391.633778 127.302156 
L 391.6764 127.399126 
L 391.718972 128.418821 
L 391.761493 126.876585 
L 391.803964 127.843478 
L 391.846385 126.038441 
L 391.931078 126.981288 
L 391.97335 126.996513 
L 392.015573 125.126399 
L 392.057746 127.452794 
L 392.18397 128.290243 
L 392.225946 130.518016 
L 392.267874 126.01515 
L 392.351583 127.295574 
L 392.393365 131.380976 
L 392.435099 131.251038 
L 392.56001 128.310204 
L 392.68449 130.029589 
L 392.767238 129.133856 
L 392.808541 131.917071 
L 392.891005 130.02261 
L 392.932167 128.398263 
L 392.973281 130.495793 
L 393.014349 130.946017 
L 393.178153 127.798614 
L 393.300519 131.503698 
L 393.341216 128.971329 
L 393.422472 129.580256 
L 393.463031 132.276934 
L 393.503544 130.237195 
L 393.665145 127.112808 
L 393.826024 130.464354 
L 393.866132 129.053172 
L 393.946214 130.074084 
L 393.986188 130.666624 
L 394.026118 130.176556 
L 394.066004 128.817962 
L 394.185397 132.819893 
L 394.304396 130.44074 
L 394.264774 133.169306 
L 394.343976 131.226546 
L 394.383511 131.624819 
L 394.423004 135.660914 
L 394.501859 132.615117 
L 394.698246 129.16905 
L 394.815566 132.784734 
L 394.854588 132.243032 
L 394.893568 132.794025 
L 394.932506 134.334298 
L 394.971401 129.961788 
L 395.010255 131.854709 
L 395.049067 134.848898 
L 395.087837 130.38955 
L 395.165253 128.582592 
L 395.203898 129.011798 
L 395.242502 130.319393 
L 395.281065 128.890788 
L 395.358067 129.578955 
L 395.396506 126.698058 
L 395.434904 129.809215 
L 395.473262 127.994154 
L 395.511579 128.334173 
L 395.549855 127.416064 
L 395.626285 127.774025 
L 395.664439 128.604047 
L 395.702553 125.455395 
L 395.740627 127.157955 
L 395.778661 130.111745 
L 395.854608 129.003474 
L 396.006023 126.242246 
L 396.081493 125.631478 
L 396.156805 127.959739 
L 396.269479 124.894141 
L 396.306959 125.074571 
L 396.381802 125.660453 
L 396.45649 125.44933 
L 396.493776 125.217214 
L 396.531023 124.256334 
L 396.568232 125.092778 
L 396.605403 128.012 
L 396.642535 125.099868 
L 396.679629 125.058267 
L 396.864529 127.774211 
L 396.901395 125.300759 
L 396.975015 126.814969 
L 397.048485 126.13121 
L 397.085163 126.418436 
L 397.267999 129.660811 
L 397.340874 131.011015 
L 397.413603 125.619192 
L 397.486185 128.355715 
L 397.522421 126.117478 
L 397.55862 125.770094 
L 397.594784 123.792299 
L 397.703057 123.843907 
L 397.739076 125.656366 
L 397.918632 113.624517 
L 398.097298 118.943481 
L 398.132925 118.2137 
L 398.381334 120.259357 
L 398.487273 119.358865 
L 398.451994 120.881832 
L 398.487273 119.358865 
" clip-path="url(#pe8d703f44f)" style="fill: none; stroke: #1f77b4; stroke-width: 1.5; stroke-linecap: square"/>
   </g>
   <g id="line2d_44">
    <path d="M 73.832727 46.970182 
L 98.811573 53.936931 
L 113.423262 58.637047 
L 138.402108 67.089784 
L 164.865034 76.308671 
L 183.809611 83.121532 
L 194.14606 87.026412 
L 203.187278 90.689817 
L 209.295195 93.418299 
L 213.097732 95.298846 
L 216.709937 97.294241 
L 220.149936 99.493608 
L 221.810334 100.712898 
L 223.433384 102.04736 
L 225.020727 103.53721 
L 226.573899 105.24143 
L 228.094338 107.250361 
L 229.583394 109.708816 
L 231.042336 112.855016 
L 232.472357 117.025574 
L 233.874579 121.783232 
L 235.250062 121.221501 
L 237.924757 108.806801 
L 240.503804 99.058749 
L 242.993803 89.908035 
L 244.20729 84.75996 
L 245.400696 78.947617 
L 246.574674 74.056342 
L 247.729847 74.943856 
L 248.866808 78.926418 
L 249.98612 82.414133 
L 251.088325 85.120992 
L 252.173935 87.259502 
L 253.243444 89.0036 
L 255.336018 91.725083 
L 257.369574 93.807543 
L 259.347349 95.497998 
L 262.215868 97.570411 
L 264.974618 99.284092 
L 268.496054 101.213771 
L 272.668953 103.255782 
L 278.13278 105.676359 
L 285.283163 108.580348 
L 294.233843 111.966526 
L 305.77136 116.079674 
L 317.163332 119.910961 
L 326.332004 122.769338 
L 332.98924 124.621446 
L 338.044694 125.803365 
L 341.973386 126.498785 
L 345.052563 126.832259 
L 347.600928 126.902848 
L 349.845193 126.749421 
L 351.829374 126.38466 
L 353.464835 125.869064 
L 355.029285 125.137698 
L 356.415489 124.237787 
L 357.640972 123.188058 
L 358.826147 121.880803 
L 359.973582 120.261071 
L 360.98592 118.457978 
L 362.067599 116.037979 
L 363.211722 112.854644 
L 364.592614 109.002795 
L 364.952087 108.493057 
L 365.219357 108.395029 
L 365.484661 108.563316 
L 365.835387 109.171685 
L 366.355158 110.677029 
L 369.7194 121.843663 
L 371.027177 124.937433 
L 372.434757 127.674892 
L 373.929095 130.090548 
L 375.564318 132.309099 
L 377.38278 134.391475 
L 379.354518 136.311152 
L 381.620272 138.198537 
L 384.174064 140.030198 
L 387.143188 141.880955 
L 390.68311 143.818247 
L 395.010255 145.923865 
L 398.487273 147.476872 
L 398.487273 147.476872 
" clip-path="url(#pe8d703f44f)" style="fill: none; stroke: #ff7f0e; stroke-width: 1.5; stroke-linecap: square"/>
   </g>
   <g id="patch_3">
    <path d="M 57.6 162.432 
L 57.6 41.472 
" style="fill: none; stroke: #000000; stroke-width: 0.8; stroke-linejoin: miter; stroke-linecap: square"/>
   </g>
   <g id="patch_4">
    <path d="M 414.72 162.432 
L 414.72 41.472 
" style="fill: none; stroke: #000000; stroke-width: 0.8; stroke-linejoin: miter; stroke-linecap: square"/>
   </g>
   <g id="patch_5">
    <path d="M 57.6 162.432 
L 414.72 162.432 
" style="fill: none; stroke: #000000; stroke-width: 0.8; stroke-linejoin: miter; stroke-linecap: square"/>
   </g>
   <g id="patch_6">
    <path d="M 57.6 41.472 
L 414.72 41.472 
" style="fill: none; stroke: #000000; stroke-width: 0.8; stroke-linejoin: miter; stroke-linecap: square"/>
   </g>
   <g id="text_9">
    <!-- Magnitude -->
    <g transform="translate(204.372187 35.472) scale(0.12 -0.12)">
     <defs>
      <path id="DejaVuSans-4d" d="M 628 4666 
L 1569 4666 
L 2759 1491 
L 3956 4666 
L 4897 4666 
L 4897 0 
L 4281 0 
L 4281 4097 
L 3078 897 
L 2444 897 
L 1241 4097 
L 1241 0 
L 628 0 
L 628 4666 
z
" transform="scale(0.015625)"/>
      <path id="DejaVuSans-61" d="M 2194 1759 
Q 1497 1759 1228 1600 
Q 959 1441 959 1056 
Q 959 750 1161 570 
Q 1363 391 1709 391 
Q 2188 391 2477 730 
Q 2766 1069 2766 1631 
L 2766 1759 
L 2194 1759 
z
M 3341 1997 
L 3341 0 
L 2766 0 
L 2766 531 
Q 2569 213 2275 61 
Q 1981 -91 1556 -91 
Q 1019 -91 701 211 
Q 384 513 384 1019 
Q 384 1609 779 1909 
Q 1175 2209 1959 2209 
L 2766 2209 
L 2766 2266 
Q 2766 2663 2505 2880 
Q 2244 3097 1772 3097 
Q 1472 3097 1187 3025 
Q 903 2953 641 2809 
L 641 3341 
Q 956 3463 1253 3523 
Q 1550 3584 1831 3584 
Q 2591 3584 2966 3190 
Q 3341 2797 3341 1997 
z
" transform="scale(0.015625)"/>
      <path id="DejaVuSans-67" d="M 2906 1791 
Q 2906 2416 2648 2759 
Q 2391 3103 1925 3103 
Q 1463 3103 1205 2759 
Q 947 2416 947 1791 
Q 947 1169 1205 825 
Q 1463 481 1925 481 
Q 2391 481 2648 825 
Q 2906 1169 2906 1791 
z
M 3481 434 
Q 3481 -459 3084 -895 
Q 2688 -1331 1869 -1331 
Q 1566 -1331 1297 -1286 
Q 1028 -1241 775 -1147 
L 775 -588 
Q 1028 -725 1275 -790 
Q 1522 -856 1778 -856 
Q 2344 -856 2625 -561 
Q 2906 -266 2906 331 
L 2906 616 
Q 2728 306 2450 153 
Q 2172 0 1784 0 
Q 1141 0 747 490 
Q 353 981 353 1791 
Q 353 2603 747 3093 
Q 1141 3584 1784 3584 
Q 2172 3584 2450 3431 
Q 2728 3278 2906 2969 
L 2906 3500 
L 3481 3500 
L 3481 434 
z
" transform="scale(0.015625)"/>
      <path id="DejaVuSans-6e" d="M 3513 2113 
L 3513 0 
L 2938 0 
L 2938 2094 
Q 2938 2591 2744 2837 
Q 2550 3084 2163 3084 
Q 1697 3084 1428 2787 
Q 1159 2491 1159 1978 
L 1159 0 
L 581 0 
L 581 3500 
L 1159 3500 
L 1159 2956 
Q 1366 3272 1645 3428 
Q 1925 3584 2291 3584 
Q 2894 3584 3203 3211 
Q 3513 2838 3513 2113 
z
" transform="scale(0.015625)"/>
      <path id="DejaVuSans-69" d="M 603 3500 
L 1178 3500 
L 1178 0 
L 603 0 
L 603 3500 
z
M 603 4863 
L 1178 4863 
L 1178 4134 
L 603 4134 
L 603 4863 
z
" transform="scale(0.015625)"/>
      <path id="DejaVuSans-74" d="M 1172 4494 
L 1172 3500 
L 2356 3500 
L 2356 3053 
L 1172 3053 
L 1172 1153 
Q 1172 725 1289 603 
Q 1406 481 1766 481 
L 2356 481 
L 2356 0 
L 1766 0 
Q 1100 0 847 248 
Q 594 497 594 1153 
L 594 3053 
L 172 3053 
L 172 3500 
L 594 3500 
L 594 4494 
L 1172 4494 
z
" transform="scale(0.015625)"/>
      <path id="DejaVuSans-75" d="M 544 1381 
L 544 3500 
L 1119 3500 
L 1119 1403 
Q 1119 906 1312 657 
Q 1506 409 1894 409 
Q 2359 409 2629 706 
Q 2900 1003 2900 1516 
L 2900 3500 
L 3475 3500 
L 3475 0 
L 2900 0 
L 2900 538 
Q 2691 219 2414 64 
Q 2138 -91 1772 -91 
Q 1169 -91 856 284 
Q 544 659 544 1381 
z
M 1991 3584 
L 1991 3584 
z
" transform="scale(0.015625)"/>
      <path id="DejaVuSans-64" d="M 2906 2969 
L 2906 4863 
L 3481 4863 
L 3481 0 
L 2906 0 
L 2906 525 
Q 2725 213 2448 61 
Q 2172 -91 1784 -91 
Q 1150 -91 751 415 
Q 353 922 353 1747 
Q 353 2572 751 3078 
Q 1150 3584 1784 3584 
Q 2172 3584 2448 3432 
Q 2725 3281 2906 2969 
z
M 947 1747 
Q 947 1113 1208 752 
Q 1469 391 1925 391 
Q 2381 391 2643 752 
Q 2906 1113 2906 1747 
Q 2906 2381 2643 2742 
Q 2381 3103 1925 3103 
Q 1469 3103 1208 2742 
Q 947 2381 947 1747 
z
" transform="scale(0.015625)"/>
      <path id="DejaVuSans-65" d="M 3597 1894 
L 3597 1613 
L 953 1613 
Q 991 1019 1311 708 
Q 1631 397 2203 397 
Q 2534 397 2845 478 
Q 3156 559 3463 722 
L 3463 178 
Q 3153 47 2828 -22 
Q 2503 -91 2169 -91 
Q 1331 -91 842 396 
Q 353 884 353 1716 
Q 353 2575 817 3079 
Q 1281 3584 2069 3584 
Q 2775 3584 3186 3129 
Q 3597 2675 3597 1894 
z
M 3022 2063 
Q 3016 2534 2758 2815 
Q 2500 3097 2075 3097 
Q 1594 3097 1305 2825 
Q 1016 2553 972 2059 
L 3022 2063 
z
" transform="scale(0.015625)"/>
     </defs>
     <use xlink:href="#DejaVuSans-4d"/>
     <use xlink:href="#DejaVuSans-61" x="86.279297"/>
     <use xlink:href="#DejaVuSans-67" x="147.558594"/>
     <use xlink:href="#DejaVuSans-6e" x="211.035156"/>
     <use xlink:href="#DejaVuSans-69" x="274.414062"/>
     <use xlink:href="#DejaVuSans-74" x="302.197266"/>
     <use xlink:href="#DejaVuSans-75" x="341.40625"/>
     <use xlink:href="#DejaVuSans-64" x="404.785156"/>
     <use xlink:href="#DejaVuSans-65" x="468.261719"/>
    </g>
   </g>
  </g>
  <g id="axes_2">
   <g id="patch_7">
    <path d="M 57.6 307.584 
L 414.72 307.584 
L 414.72 186.624 
L 57.6 186.624 
z
" style="fill: #ffffff"/>
   </g>
   <g id="matplotlib.axis_3">
    <g id="xtick_39">
     <g id="line2d_45">
      <g>
       <use xlink:href="#m5549bfc10f" x="116.342406" y="307.584" style="stroke: #000000; stroke-width: 0.8"/>
      </g>
     </g>
     <g id="text_10">
      <!-- $\mathdefault{10^{1}}$ -->
      <g transform="translate(107.542406 322.182437) scale(0.1 -0.1)">
       <use xlink:href="#DejaVuSans-31" transform="translate(0 0.684375)"/>
       <use xlink:href="#DejaVuSans-30" transform="translate(63.623047 0.684375)"/>
       <use xlink:href="#DejaVuSans-31" transform="translate(128.203125 38.965625) scale(0.7)"/>
      </g>
     </g>
    </g>
    <g id="xtick_40">
     <g id="line2d_46">
      <g>
       <use xlink:href="#m5549bfc10f" x="199.320336" y="307.584" style="stroke: #000000; stroke-width: 0.8"/>
      </g>
     </g>
     <g id="text_11">
      <!-- $\mathdefault{10^{2}}$ -->
      <g transform="translate(190.520336 322.182437) scale(0.1 -0.1)">
       <use xlink:href="#DejaVuSans-31" transform="translate(0 0.765625)"/>
       <use xlink:href="#DejaVuSans-30" transform="translate(63.623047 0.765625)"/>
       <use xlink:href="#DejaVuSans-32" transform="translate(128.203125 39.046875) scale(0.7)"/>
      </g>
     </g>
    </g>
    <g id="xtick_41">
     <g id="line2d_47">
      <g>
       <use xlink:href="#m5549bfc10f" x="282.298267" y="307.584" style="stroke: #000000; stroke-width: 0.8"/>
      </g>
     </g>
     <g id="text_12">
      <!-- $\mathdefault{10^{3}}$ -->
      <g transform="translate(273.498267 322.182437) scale(0.1 -0.1)">
       <use xlink:href="#DejaVuSans-31" transform="translate(0 0.765625)"/>
       <use xlink:href="#DejaVuSans-30" transform="translate(63.623047 0.765625)"/>
       <use xlink:href="#DejaVuSans-33" transform="translate(128.203125 39.046875) scale(0.7)"/>
      </g>
     </g>
    </g>
    <g id="xtick_42">
     <g id="line2d_48">
      <g>
       <use xlink:href="#m5549bfc10f" x="365.276197" y="307.584" style="stroke: #000000; stroke-width: 0.8"/>
      </g>
     </g>
     <g id="text_13">
      <!-- $\mathdefault{10^{4}}$ -->
      <g transform="translate(356.476197 322.182437) scale(0.1 -0.1)">
       <use xlink:href="#DejaVuSans-31" transform="translate(0 0.684375)"/>
       <use xlink:href="#DejaVuSans-30" transform="translate(63.623047 0.684375)"/>
       <use xlink:href="#DejaVuSans-34" transform="translate(128.203125 38.965625) scale(0.7)"/>
      </g>
     </g>
    </g>
    <g id="xtick_43">
     <g id="line2d_49">
      <g>
       <use xlink:href="#m8c9b430bd0" x="58.343322" y="307.584" style="stroke: #000000; stroke-width: 0.6"/>
      </g>
     </g>
    </g>
    <g id="xtick_44">
     <g id="line2d_50">
      <g>
       <use xlink:href="#m8c9b430bd0" x="72.95501" y="307.584" style="stroke: #000000; stroke-width: 0.6"/>
      </g>
     </g>
    </g>
    <g id="xtick_45">
     <g id="line2d_51">
      <g>
       <use xlink:href="#m8c9b430bd0" x="83.322168" y="307.584" style="stroke: #000000; stroke-width: 0.6"/>
      </g>
     </g>
    </g>
    <g id="xtick_46">
     <g id="line2d_52">
      <g>
       <use xlink:href="#m8c9b430bd0" x="91.36356" y="307.584" style="stroke: #000000; stroke-width: 0.6"/>
      </g>
     </g>
    </g>
    <g id="xtick_47">
     <g id="line2d_53">
      <g>
       <use xlink:href="#m8c9b430bd0" x="97.933856" y="307.584" style="stroke: #000000; stroke-width: 0.6"/>
      </g>
     </g>
    </g>
    <g id="xtick_48">
     <g id="line2d_54">
      <g>
       <use xlink:href="#m8c9b430bd0" x="103.488962" y="307.584" style="stroke: #000000; stroke-width: 0.6"/>
      </g>
     </g>
    </g>
    <g id="xtick_49">
     <g id="line2d_55">
      <g>
       <use xlink:href="#m8c9b430bd0" x="108.301014" y="307.584" style="stroke: #000000; stroke-width: 0.6"/>
      </g>
     </g>
    </g>
    <g id="xtick_50">
     <g id="line2d_56">
      <g>
       <use xlink:href="#m8c9b430bd0" x="112.545544" y="307.584" style="stroke: #000000; stroke-width: 0.6"/>
      </g>
     </g>
    </g>
    <g id="xtick_51">
     <g id="line2d_57">
      <g>
       <use xlink:href="#m8c9b430bd0" x="141.321252" y="307.584" style="stroke: #000000; stroke-width: 0.6"/>
      </g>
     </g>
    </g>
    <g id="xtick_52">
     <g id="line2d_58">
      <g>
       <use xlink:href="#m8c9b430bd0" x="155.93294" y="307.584" style="stroke: #000000; stroke-width: 0.6"/>
      </g>
     </g>
    </g>
    <g id="xtick_53">
     <g id="line2d_59">
      <g>
       <use xlink:href="#m8c9b430bd0" x="166.300098" y="307.584" style="stroke: #000000; stroke-width: 0.6"/>
      </g>
     </g>
    </g>
    <g id="xtick_54">
     <g id="line2d_60">
      <g>
       <use xlink:href="#m8c9b430bd0" x="174.34149" y="307.584" style="stroke: #000000; stroke-width: 0.6"/>
      </g>
     </g>
    </g>
    <g id="xtick_55">
     <g id="line2d_61">
      <g>
       <use xlink:href="#m8c9b430bd0" x="180.911786" y="307.584" style="stroke: #000000; stroke-width: 0.6"/>
      </g>
     </g>
    </g>
    <g id="xtick_56">
     <g id="line2d_62">
      <g>
       <use xlink:href="#m8c9b430bd0" x="186.466892" y="307.584" style="stroke: #000000; stroke-width: 0.6"/>
      </g>
     </g>
    </g>
    <g id="xtick_57">
     <g id="line2d_63">
      <g>
       <use xlink:href="#m8c9b430bd0" x="191.278944" y="307.584" style="stroke: #000000; stroke-width: 0.6"/>
      </g>
     </g>
    </g>
    <g id="xtick_58">
     <g id="line2d_64">
      <g>
       <use xlink:href="#m8c9b430bd0" x="195.523475" y="307.584" style="stroke: #000000; stroke-width: 0.6"/>
      </g>
     </g>
    </g>
    <g id="xtick_59">
     <g id="line2d_65">
      <g>
       <use xlink:href="#m8c9b430bd0" x="224.299183" y="307.584" style="stroke: #000000; stroke-width: 0.6"/>
      </g>
     </g>
    </g>
    <g id="xtick_60">
     <g id="line2d_66">
      <g>
       <use xlink:href="#m8c9b430bd0" x="238.910871" y="307.584" style="stroke: #000000; stroke-width: 0.6"/>
      </g>
     </g>
    </g>
    <g id="xtick_61">
     <g id="line2d_67">
      <g>
       <use xlink:href="#m8c9b430bd0" x="249.278029" y="307.584" style="stroke: #000000; stroke-width: 0.6"/>
      </g>
     </g>
    </g>
    <g id="xtick_62">
     <g id="line2d_68">
      <g>
       <use xlink:href="#m8c9b430bd0" x="257.319421" y="307.584" style="stroke: #000000; stroke-width: 0.6"/>
      </g>
     </g>
    </g>
    <g id="xtick_63">
     <g id="line2d_69">
      <g>
       <use xlink:href="#m8c9b430bd0" x="263.889717" y="307.584" style="stroke: #000000; stroke-width: 0.6"/>
      </g>
     </g>
    </g>
    <g id="xtick_64">
     <g id="line2d_70">
      <g>
       <use xlink:href="#m8c9b430bd0" x="269.444823" y="307.584" style="stroke: #000000; stroke-width: 0.6"/>
      </g>
     </g>
    </g>
    <g id="xtick_65">
     <g id="line2d_71">
      <g>
       <use xlink:href="#m8c9b430bd0" x="274.256875" y="307.584" style="stroke: #000000; stroke-width: 0.6"/>
      </g>
     </g>
    </g>
    <g id="xtick_66">
     <g id="line2d_72">
      <g>
       <use xlink:href="#m8c9b430bd0" x="278.501405" y="307.584" style="stroke: #000000; stroke-width: 0.6"/>
      </g>
     </g>
    </g>
    <g id="xtick_67">
     <g id="line2d_73">
      <g>
       <use xlink:href="#m8c9b430bd0" x="307.277113" y="307.584" style="stroke: #000000; stroke-width: 0.6"/>
      </g>
     </g>
    </g>
    <g id="xtick_68">
     <g id="line2d_74">
      <g>
       <use xlink:href="#m8c9b430bd0" x="321.888801" y="307.584" style="stroke: #000000; stroke-width: 0.6"/>
      </g>
     </g>
    </g>
    <g id="xtick_69">
     <g id="line2d_75">
      <g>
       <use xlink:href="#m8c9b430bd0" x="332.255959" y="307.584" style="stroke: #000000; stroke-width: 0.6"/>
      </g>
     </g>
    </g>
    <g id="xtick_70">
     <g id="line2d_76">
      <g>
       <use xlink:href="#m8c9b430bd0" x="340.297351" y="307.584" style="stroke: #000000; stroke-width: 0.6"/>
      </g>
     </g>
    </g>
    <g id="xtick_71">
     <g id="line2d_77">
      <g>
       <use xlink:href="#m8c9b430bd0" x="346.867647" y="307.584" style="stroke: #000000; stroke-width: 0.6"/>
      </g>
     </g>
    </g>
    <g id="xtick_72">
     <g id="line2d_78">
      <g>
       <use xlink:href="#m8c9b430bd0" x="352.422753" y="307.584" style="stroke: #000000; stroke-width: 0.6"/>
      </g>
     </g>
    </g>
    <g id="xtick_73">
     <g id="line2d_79">
      <g>
       <use xlink:href="#m8c9b430bd0" x="357.234805" y="307.584" style="stroke: #000000; stroke-width: 0.6"/>
      </g>
     </g>
    </g>
    <g id="xtick_74">
     <g id="line2d_80">
      <g>
       <use xlink:href="#m8c9b430bd0" x="361.479336" y="307.584" style="stroke: #000000; stroke-width: 0.6"/>
      </g>
     </g>
    </g>
    <g id="xtick_75">
     <g id="line2d_81">
      <g>
       <use xlink:href="#m8c9b430bd0" x="390.255044" y="307.584" style="stroke: #000000; stroke-width: 0.6"/>
      </g>
     </g>
    </g>
    <g id="xtick_76">
     <g id="line2d_82">
      <g>
       <use xlink:href="#m8c9b430bd0" x="404.866732" y="307.584" style="stroke: #000000; stroke-width: 0.6"/>
      </g>
     </g>
    </g>
    <g id="text_14">
     <!-- Frequency [rad/s] -->
     <g transform="translate(192.256875 335.860562) scale(0.1 -0.1)">
      <defs>
       <path id="DejaVuSans-46" d="M 628 4666 
L 3309 4666 
L 3309 4134 
L 1259 4134 
L 1259 2759 
L 3109 2759 
L 3109 2228 
L 1259 2228 
L 1259 0 
L 628 0 
L 628 4666 
z
" transform="scale(0.015625)"/>
       <path id="DejaVuSans-72" d="M 2631 2963 
Q 2534 3019 2420 3045 
Q 2306 3072 2169 3072 
Q 1681 3072 1420 2755 
Q 1159 2438 1159 1844 
L 1159 0 
L 581 0 
L 581 3500 
L 1159 3500 
L 1159 2956 
Q 1341 3275 1631 3429 
Q 1922 3584 2338 3584 
Q 2397 3584 2469 3576 
Q 2541 3569 2628 3553 
L 2631 2963 
z
" transform="scale(0.015625)"/>
       <path id="DejaVuSans-71" d="M 947 1747 
Q 947 1113 1208 752 
Q 1469 391 1925 391 
Q 2381 391 2643 752 
Q 2906 1113 2906 1747 
Q 2906 2381 2643 2742 
Q 2381 3103 1925 3103 
Q 1469 3103 1208 2742 
Q 947 2381 947 1747 
z
M 2906 525 
Q 2725 213 2448 61 
Q 2172 -91 1784 -91 
Q 1150 -91 751 415 
Q 353 922 353 1747 
Q 353 2572 751 3078 
Q 1150 3584 1784 3584 
Q 2172 3584 2448 3432 
Q 2725 3281 2906 2969 
L 2906 3500 
L 3481 3500 
L 3481 -1331 
L 2906 -1331 
L 2906 525 
z
" transform="scale(0.015625)"/>
       <path id="DejaVuSans-63" d="M 3122 3366 
L 3122 2828 
Q 2878 2963 2633 3030 
Q 2388 3097 2138 3097 
Q 1578 3097 1268 2742 
Q 959 2388 959 1747 
Q 959 1106 1268 751 
Q 1578 397 2138 397 
Q 2388 397 2633 464 
Q 2878 531 3122 666 
L 3122 134 
Q 2881 22 2623 -34 
Q 2366 -91 2075 -91 
Q 1284 -91 818 406 
Q 353 903 353 1747 
Q 353 2603 823 3093 
Q 1294 3584 2113 3584 
Q 2378 3584 2631 3529 
Q 2884 3475 3122 3366 
z
" transform="scale(0.015625)"/>
       <path id="DejaVuSans-79" d="M 2059 -325 
Q 1816 -950 1584 -1140 
Q 1353 -1331 966 -1331 
L 506 -1331 
L 506 -850 
L 844 -850 
Q 1081 -850 1212 -737 
Q 1344 -625 1503 -206 
L 1606 56 
L 191 3500 
L 800 3500 
L 1894 763 
L 2988 3500 
L 3597 3500 
L 2059 -325 
z
" transform="scale(0.015625)"/>
       <path id="DejaVuSans-20" transform="scale(0.015625)"/>
       <path id="DejaVuSans-5b" d="M 550 4863 
L 1875 4863 
L 1875 4416 
L 1125 4416 
L 1125 -397 
L 1875 -397 
L 1875 -844 
L 550 -844 
L 550 4863 
z
" transform="scale(0.015625)"/>
       <path id="DejaVuSans-2f" d="M 1625 4666 
L 2156 4666 
L 531 -594 
L 0 -594 
L 1625 4666 
z
" transform="scale(0.015625)"/>
       <path id="DejaVuSans-73" d="M 2834 3397 
L 2834 2853 
Q 2591 2978 2328 3040 
Q 2066 3103 1784 3103 
Q 1356 3103 1142 2972 
Q 928 2841 928 2578 
Q 928 2378 1081 2264 
Q 1234 2150 1697 2047 
L 1894 2003 
Q 2506 1872 2764 1633 
Q 3022 1394 3022 966 
Q 3022 478 2636 193 
Q 2250 -91 1575 -91 
Q 1294 -91 989 -36 
Q 684 19 347 128 
L 347 722 
Q 666 556 975 473 
Q 1284 391 1588 391 
Q 1994 391 2212 530 
Q 2431 669 2431 922 
Q 2431 1156 2273 1281 
Q 2116 1406 1581 1522 
L 1381 1569 
Q 847 1681 609 1914 
Q 372 2147 372 2553 
Q 372 3047 722 3315 
Q 1072 3584 1716 3584 
Q 2034 3584 2315 3537 
Q 2597 3491 2834 3397 
z
" transform="scale(0.015625)"/>
       <path id="DejaVuSans-5d" d="M 1947 4863 
L 1947 -844 
L 622 -844 
L 622 -397 
L 1369 -397 
L 1369 4416 
L 622 4416 
L 622 4863 
L 1947 4863 
z
" transform="scale(0.015625)"/>
      </defs>
      <use xlink:href="#DejaVuSans-46"/>
      <use xlink:href="#DejaVuSans-72" x="50.269531"/>
      <use xlink:href="#DejaVuSans-65" x="89.132812"/>
      <use xlink:href="#DejaVuSans-71" x="150.65625"/>
      <use xlink:href="#DejaVuSans-75" x="214.132812"/>
      <use xlink:href="#DejaVuSans-65" x="277.511719"/>
      <use xlink:href="#DejaVuSans-6e" x="339.035156"/>
      <use xlink:href="#DejaVuSans-63" x="402.414062"/>
      <use xlink:href="#DejaVuSans-79" x="457.394531"/>
      <use xlink:href="#DejaVuSans-20" x="516.574219"/>
      <use xlink:href="#DejaVuSans-5b" x="548.361328"/>
      <use xlink:href="#DejaVuSans-72" x="587.375"/>
      <use xlink:href="#DejaVuSans-61" x="628.488281"/>
      <use xlink:href="#DejaVuSans-64" x="689.767578"/>
      <use xlink:href="#DejaVuSans-2f" x="753.244141"/>
      <use xlink:href="#DejaVuSans-73" x="786.935547"/>
      <use xlink:href="#DejaVuSans-5d" x="839.035156"/>
     </g>
    </g>
   </g>
   <g id="matplotlib.axis_4">
    <g id="ytick_5">
     <g id="line2d_83">
      <g>
       <use xlink:href="#m8d76025890" x="57.6" y="277.660556" style="stroke: #000000; stroke-width: 0.8"/>
      </g>
     </g>
     <g id="text_15">
      <!-- −100 -->
      <g transform="translate(23.132812 281.459775) scale(0.1 -0.1)">
       <use xlink:href="#DejaVuSans-2212"/>
       <use xlink:href="#DejaVuSans-31" x="83.789062"/>
       <use xlink:href="#DejaVuSans-30" x="147.412109"/>
       <use xlink:href="#DejaVuSans-30" x="211.035156"/>
      </g>
     </g>
    </g>
    <g id="ytick_6">
     <g id="line2d_84">
      <g>
       <use xlink:href="#m8d76025890" x="57.6" y="247.103841" style="stroke: #000000; stroke-width: 0.8"/>
      </g>
     </g>
     <g id="text_16">
      <!-- 0 -->
      <g transform="translate(44.2375 250.90306) scale(0.1 -0.1)">
       <use xlink:href="#DejaVuSans-30"/>
      </g>
     </g>
    </g>
    <g id="ytick_7">
     <g id="line2d_85">
      <g>
       <use xlink:href="#m8d76025890" x="57.6" y="216.547126" style="stroke: #000000; stroke-width: 0.8"/>
      </g>
     </g>
     <g id="text_17">
      <!-- 100 -->
      <g transform="translate(31.5125 220.346345) scale(0.1 -0.1)">
       <use xlink:href="#DejaVuSans-31"/>
       <use xlink:href="#DejaVuSans-30" x="63.623047"/>
       <use xlink:href="#DejaVuSans-30" x="127.246094"/>
      </g>
     </g>
    </g>
   </g>
   <g id="line2d_86">
    <path d="M 73.832727 284.186069 
L 98.811573 256.024659 
L 113.423262 277.091558 
L 123.790419 272.673025 
L 131.831812 268.893509 
L 138.402108 276.541 
L 143.957214 292.113254 
L 148.769265 265.839342 
L 153.139831 289.944889 
L 157.262334 268.536616 
L 161.163245 271.798943 
L 164.865034 272.750146 
L 168.386938 279.281156 
L 171.745549 274.769204 
L 174.955272 274.669729 
L 178.028697 273.576861 
L 180.976886 273.679625 
L 183.809611 274.502649 
L 186.535549 273.089999 
L 189.162436 273.640522 
L 191.697197 273.435918 
L 194.14606 274.757357 
L 196.514643 273.745784 
L 201.03084 273.399031 
L 203.187278 273.923261 
L 205.281186 273.801251 
L 207.316082 274.088866 
L 213.097732 273.992197 
L 214.926429 273.712805 
L 216.709937 273.910539 
L 221.810334 273.670594 
L 225.020727 273.282509 
L 226.573899 273.065047 
L 229.583394 271.722048 
L 231.042336 270.18566 
L 232.472357 266.957712 
L 233.874579 256.432164 
L 235.250062 239.974404 
L 236.599807 231.226923 
L 237.924757 228.085639 
L 239.225808 227.020035 
L 240.503804 226.764751 
L 241.759549 229.314099 
L 242.993803 231.395465 
L 244.20729 234.384921 
L 245.400696 236.970813 
L 246.574674 245.414817 
L 247.729847 258.736596 
L 248.866808 267.431859 
L 251.088325 271.35039 
L 252.173935 272.237246 
L 253.243444 272.74434 
L 254.297322 273.092014 
L 255.336018 273.313856 
L 256.359965 273.299128 
L 257.369574 273.038342 
L 259.347349 273.590421 
L 260.316257 273.562865 
L 261.272318 273.218107 
L 262.215868 273.304663 
L 263.147229 273.821506 
L 264.066713 274.084967 
L 266.756833 274.34941 
L 270.194305 274.389081 
L 271.028662 274.479577 
L 272.668953 274.457112 
L 278.13278 274.597048 
L 278.880589 274.576387 
L 279.620721 274.677924 
L 281.078571 274.629539 
L 283.908701 274.638753 
L 285.283163 274.603966 
L 286.631908 274.614169 
L 295.426394 274.580726 
L 297.179025 274.355133 
L 297.753893 274.365305 
L 299.751256 273.77229 
L 300.293174 273.603021 
L 300.827063 273.556956 
L 301.353158 273.641266 
L 301.871682 273.55072 
L 302.382852 272.989352 
L 302.886872 272.190215 
L 303.38394 271.759239 
L 303.874245 271.571345 
L 304.357969 271.100813 
L 304.835285 271.056688 
L 305.306362 271.330889 
L 305.77136 271.221695 
L 307.131403 272.572318 
L 307.573578 272.942629 
L 308.010394 273.15214 
L 308.441978 273.693471 
L 308.868455 273.508261 
L 310.118413 274.035954 
L 310.928265 274.211679 
L 314.725126 274.476796 
L 320.993857 274.146725 
L 321.594485 273.901052 
L 321.891086 274.13288 
L 323.338544 273.726676 
L 323.901632 273.473283 
L 324.730102 272.536193 
L 325.27202 271.98283 
L 325.539953 272.070203 
L 325.805909 271.992567 
L 326.850528 272.666713 
L 327.361698 272.809112 
L 327.614589 273.041385 
L 327.865718 273.074856 
L 328.115109 273.291008 
L 328.362786 273.33843 
L 328.608773 273.239508 
L 328.853091 273.293614 
L 329.095765 273.171118 
L 329.576263 273.160823 
L 330.050439 273.036269 
L 330.285208 272.813089 
L 330.518457 272.800139 
L 330.750206 272.608126 
L 330.980474 272.576764 
L 331.436643 272.052027 
L 331.66258 271.980589 
L 332.110249 271.395544 
L 332.771494 270.836377 
L 333.205678 271.058747 
L 333.634694 271.767119 
L 335.50446 277.554594 
L 335.706348 278.045571 
L 336.106761 278.263609 
L 336.502775 278.5208 
L 336.699161 278.470172 
L 337.088753 278.689939 
L 337.28198 278.558862 
L 337.474177 278.799031 
L 337.665355 278.57181 
L 338.420081 278.540797 
L 338.791598 278.465454 
L 338.97593 278.400054 
L 339.159325 278.495445 
L 339.523336 278.523813 
L 339.703973 278.581822 
L 340.062551 278.983794 
L 340.417597 278.779229 
L 340.769179 279.111768 
L 340.943692 279.170859 
L 341.117364 279.428037 
L 341.290203 279.484075 
L 341.462217 279.415006 
L 341.633413 279.532997 
L 342.477407 277.625151 
L 342.643859 277.803863 
L 343.138652 279.061552 
L 343.302085 279.143887 
L 343.787982 279.965419 
L 343.948503 279.688762 
L 344.108312 279.77857 
L 344.267415 279.50988 
L 344.58353 279.544229 
L 344.740554 279.472179 
L 344.896896 279.258122 
L 345.207561 279.3836 
L 345.361894 279.097683 
L 345.51557 279.438023 
L 345.668593 279.271448 
L 345.820969 278.925842 
L 346.123801 279.240129 
L 346.274268 278.94435 
L 346.573331 279.250537 
L 346.721937 279.470455 
L 347.017323 279.11067 
L 347.310307 279.418005 
L 347.455911 279.117123 
L 347.745365 279.271576 
L 347.889225 279.531429 
L 348.032513 279.356579 
L 348.175233 279.54211 
L 348.458989 279.345906 
L 348.600034 279.591544 
L 348.880478 279.170594 
L 349.019886 279.67337 
L 349.158756 279.457668 
L 349.708948 282.010889 
L 350.116148 277.069129 
L 350.250866 275.180791 
L 350.385081 275.223988 
L 350.518799 274.764189 
L 350.784755 275.173867 
L 350.917 275.834506 
L 351.31085 275.890736 
L 351.441182 276.055755 
L 351.700441 275.622508 
L 351.829374 274.987197 
L 352.467212 269.100843 
L 352.719219 271.062093 
L 353.218007 277.142786 
L 353.341632 276.998861 
L 353.464835 277.328741 
L 353.709985 277.177045 
L 353.953478 275.683535 
L 354.074611 275.81126 
L 354.315661 274.690967 
L 354.555109 274.537333 
L 354.674239 274.282783 
L 354.792977 274.997857 
L 355.029285 273.456925 
L 355.146861 273.762779 
L 355.380867 283.822427 
L 355.497303 284.096855 
L 355.729052 283.681642 
L 355.95932 283.961707 
L 356.528635 282.142731 
L 356.641426 282.125688 
L 356.753866 281.62422 
L 356.865956 282.231682 
L 356.977698 282.095559 
L 357.310861 283.582054 
L 357.421234 282.266296 
L 357.53127 282.614371 
L 357.859378 280.228278 
L 357.968086 279.879898 
L 358.076468 280.322518 
L 358.292258 278.794499 
L 358.39967 278.758546 
L 358.506764 278.556948 
L 358.931982 277.083953 
L 359.037508 277.302631 
L 359.247636 276.83275 
L 359.352242 277.033908 
L 359.456546 277.312213 
L 359.664251 276.68745 
L 359.767657 276.729801 
L 359.973582 276.34274 
L 360.178338 276.157073 
L 360.483306 275.470684 
L 360.584391 275.609735 
L 361.085607 273.210908 
L 361.185019 276.829805 
L 361.284158 294.96852 
L 361.481621 279.499044 
L 362.164342 263.247981 
L 362.357053 255.991817 
L 362.548739 250.845983 
L 362.644201 249.982976 
L 362.739411 250.395813 
L 363.398927 261.582214 
L 363.862728 270.282835 
L 364.411524 273.959866 
L 364.592614 279.35068 
L 364.772798 298.125757 
L 364.862554 194.58022 
L 364.952087 195.59502 
L 365.041397 193.24803 
L 365.130487 298.509445 
L 365.219357 292.219 
L 365.484661 280.854037 
L 365.835387 277.336558 
L 365.922538 277.587255 
L 366.09621 277.001372 
L 366.182733 277.042393 
L 366.269049 277.290482 
L 366.355158 277.896999 
L 366.441063 277.679373 
L 366.526763 277.884945 
L 366.697554 277.569624 
L 366.782647 277.744694 
L 366.867539 277.25112 
L 366.952232 277.58887 
L 367.205124 277.070373 
L 367.372737 277.308521 
L 367.539575 276.540986 
L 367.705644 276.908107 
L 367.953321 276.457809 
L 368.117498 277.200436 
L 368.280931 276.687273 
L 368.524698 277.040485 
L 368.686299 276.449112 
L 368.927349 277.264043 
L 369.007342 277.222183 
L 369.404665 281.325493 
L 369.95366 294.476653 
L 370.263656 297.26501 
L 370.34074 297.228264 
L 370.494416 297.720248 
L 370.571009 297.139239 
L 370.647439 297.250487 
L 370.723707 297.173529 
L 370.799815 297.418971 
L 370.875762 297.221838 
L 370.951549 297.549022 
L 371.027177 297.523314 
L 371.177959 297.707128 
L 371.402956 298.856988 
L 371.477644 298.986198 
L 371.552177 299.925308 
L 371.626557 299.653702 
L 371.700783 299.507975 
L 372.069638 300.982806 
L 372.142959 300.92865 
L 372.362028 299.887955 
L 372.434757 299.835055 
L 372.507338 299.525295 
L 372.579774 298.124203 
L 372.652065 298.263497 
L 372.724211 298.941247 
L 373.225228 296.479056 
L 373.296237 297.341961 
L 373.508427 296.374736 
L 373.57888 296.824574 
L 373.649196 295.646922 
L 373.719375 296.137336 
L 373.859324 295.423928 
L 373.929095 295.606711 
L 373.998732 295.086459 
L 374.068234 295.499256 
L 374.137602 294.14994 
L 374.206837 294.628061 
L 374.27594 294.831574 
L 374.34491 295.836068 
L 374.482455 294.865562 
L 374.824039 297.335563 
L 374.891969 297.301385 
L 374.959771 297.153756 
L 375.027446 297.217741 
L 375.094994 297.131866 
L 375.162416 297.272678 
L 375.229712 296.077065 
L 375.296882 297.088603 
L 375.363927 296.730212 
L 375.430848 297.259316 
L 375.564318 296.384453 
L 375.630868 297.132699 
L 375.763601 295.891588 
L 375.829784 296.473918 
L 375.895846 296.444645 
L 375.961788 295.529312 
L 376.027608 295.853802 
L 376.093309 296.143552 
L 376.15889 295.958855 
L 376.224352 296.120858 
L 376.289696 296.800493 
L 376.354921 296.121514 
L 376.420028 296.308093 
L 376.614647 295.219039 
L 376.743812 296.580025 
L 377.00076 291.903026 
L 377.192276 294.163656 
L 377.255889 294.273671 
L 377.31939 293.791283 
L 377.38278 294.371746 
L 377.446058 293.680512 
L 377.572281 294.740858 
L 377.698065 293.944858 
L 378.13488 296.828195 
L 378.196853 296.150019 
L 378.258719 296.569263 
L 378.443681 297.179257 
L 378.505125 296.309368 
L 378.566465 297.966895 
L 378.6277 297.822072 
L 378.688831 296.563646 
L 378.749859 297.921317 
L 378.810783 296.84334 
L 378.871605 295.658819 
L 378.932324 296.6551 
L 378.992941 296.143061 
L 379.053457 293.569728 
L 379.113871 295.646711 
L 379.174183 296.223017 
L 379.234395 294.610489 
L 379.294507 295.066388 
L 379.354518 294.949073 
L 379.41443 294.556972 
L 379.474242 293.377498 
L 379.533955 293.545444 
L 379.59357 294.037227 
L 379.653085 293.65419 
L 379.771823 292.871771 
L 379.831046 293.206081 
L 379.949199 294.347006 
L 380.008131 293.519753 
L 380.184351 295.276245 
L 380.2429 293.215035 
L 380.359713 296.11436 
L 380.417978 295.49905 
L 380.59221 296.872381 
L 380.6501 295.904333 
L 380.765603 297.723818 
L 380.823216 296.361668 
L 380.880737 297.323743 
L 381.109907 299.246981 
L 381.166973 299.348709 
L 381.223948 300.53168 
L 381.280833 193.271287 
L 381.337629 193.416271 
L 381.394335 193.776258 
L 381.450952 195.409316 
L 381.507481 194.625186 
L 381.563921 195.094703 
L 381.620272 194.938701 
L 381.732712 193.126371 
L 381.7888 193.290569 
L 381.844802 194.769418 
L 381.900716 193.796441 
L 382.012285 192.157653 
L 382.067941 194.376344 
L 382.12351 299.176811 
L 382.178994 296.482066 
L 382.234393 294.275099 
L 382.40008 301.222651 
L 382.565009 299.224946 
L 382.619818 192.122182 
L 382.674543 298.30984 
L 382.783746 301.886198 
L 382.892619 298.466795 
L 382.946932 298.699591 
L 383.109383 291.38472 
L 383.16337 294.515686 
L 383.217277 292.566894 
L 383.271104 292.55283 
L 383.48561 293.435763 
L 383.751959 288.478088 
L 383.96363 289.490633 
L 384.016354 288.86443 
L 384.069001 289.269767 
L 384.121571 290.813023 
L 384.174064 289.708818 
L 384.226482 289.669975 
L 384.383278 292.469553 
L 384.435392 292.620821 
L 384.48743 291.602996 
L 384.539394 292.660652 
L 384.746503 295.983834 
L 384.849613 294.354816 
L 384.901057 298.041944 
L 385.003727 297.718082 
L 385.054952 298.291794 
L 385.106104 297.893412 
L 385.157184 296.246786 
L 385.208192 297.759284 
L 385.360783 299.862254 
L 385.411503 299.901287 
L 385.462152 300.271653 
L 385.51273 302.005123 
L 385.563237 301.309416 
L 385.66404 301.807452 
L 385.714335 301.221357 
L 385.864803 193.924825 
L 386.114194 198.567357 
L 386.163866 196.925167 
L 386.411203 207.270136 
L 386.460467 205.532288 
L 386.509664 200.269134 
L 386.607857 278.634241 
L 386.656853 278.496982 
L 386.705783 284.416254 
L 386.754647 279.53478 
L 386.803444 274.756147 
L 386.900841 283.380561 
L 386.949441 280.293421 
L 386.997976 281.017371 
L 387.046445 278.936375 
L 387.094849 281.297628 
L 387.143188 285.118673 
L 387.239673 284.318951 
L 387.43187 288.872274 
L 387.479759 289.019831 
L 387.575348 286.507164 
L 387.718257 291.578173 
L 387.765767 291.74042 
L 387.955186 283.843099 
L 388.002386 285.117565 
L 388.331063 295.325857 
L 388.377773 293.484361 
L 388.424423 294.999789 
L 388.471012 295.695863 
L 388.517541 294.599782 
L 388.564011 294.745294 
L 388.61042 296.428746 
L 388.70306 295.844592 
L 388.74929 294.543581 
L 388.795462 294.844764 
L 388.933623 296.946543 
L 388.979559 293.315426 
L 389.025436 298.882545 
L 389.071256 296.544926 
L 389.16272 296.094871 
L 389.208365 293.037969 
L 389.253952 295.861104 
L 389.299482 296.682537 
L 389.435727 292.087523 
L 389.481028 291.933483 
L 389.61659 295.504634 
L 389.661665 293.462013 
L 389.706683 296.064283 
L 389.751644 295.534478 
L 389.79655 293.460043 
L 389.8414 296.177094 
L 389.975616 295.147308 
L 390.064816 294.927005 
L 390.153796 296.864861 
L 390.198203 294.365319 
L 390.242556 296.858196 
L 390.286855 296.927247 
L 390.419425 295.449853 
L 390.463507 296.856744 
L 390.551509 296.583458 
L 390.595429 296.565925 
L 390.639297 295.712657 
L 390.68311 299.647539 
L 390.726871 297.974073 
L 390.770579 296.851804 
L 390.814233 298.40627 
L 390.857835 298.15857 
L 391.031716 295.326173 
L 391.118343 299.445738 
L 391.161579 298.61361 
L 391.204763 298.014729 
L 391.247895 294.467566 
L 391.334004 295.986025 
L 391.419909 297.454744 
L 391.462784 296.70185 
L 391.505609 295.896123 
L 391.548383 296.728058 
L 391.591106 296.814912 
L 391.633778 296.09108 
L 391.6764 296.252138 
L 391.718972 297.021112 
L 391.761493 295.630891 
L 391.803964 297.835695 
L 391.846385 297.369227 
L 391.888757 300.256306 
L 391.931078 297.996264 
L 392.141944 300.170276 
L 392.225946 298.825852 
L 392.267874 299.760569 
L 392.309753 193.10979 
L 392.351583 301.224046 
L 392.393365 302.025289 
L 392.518421 297.6359 
L 392.601551 299.355367 
L 392.643044 193.222604 
L 392.68449 298.897966 
L 392.725888 299.201312 
L 392.767238 301.789403 
L 392.849797 300.333291 
L 392.932167 295.903404 
L 392.973281 298.991708 
L 393.014349 299.356522 
L 393.05537 301.394613 
L 393.096344 298.943071 
L 393.137272 299.487814 
L 393.300519 296.274019 
L 393.341216 300.707838 
L 393.381867 297.354986 
L 393.422472 193.015137 
L 393.463031 299.443452 
L 393.503544 301.260985 
L 393.544013 299.858639 
L 393.584435 298.133404 
L 393.624813 301.685377 
L 393.665145 300.085123 
L 393.705432 192.564691 
L 393.745674 301.657871 
L 393.906195 295.139371 
L 393.986188 300.842483 
L 394.026118 299.165942 
L 394.066004 299.074536 
L 394.105846 295.67156 
L 394.145644 297.287833 
L 394.225107 295.962537 
L 394.264774 301.137128 
L 394.304396 296.526387 
L 394.343976 299.00861 
L 394.383511 301.323803 
L 394.462453 300.72197 
L 394.501859 300.65686 
L 394.61982 294.743553 
L 394.659054 297.908696 
L 394.698246 295.208384 
L 394.737395 293.372312 
L 394.776502 295.615897 
L 394.815566 296.918023 
L 394.854588 292.024464 
L 394.932506 295.733951 
L 394.971401 297.15385 
L 395.087837 289.995021 
L 395.126566 294.839362 
L 395.203898 294.631279 
L 395.242502 292.87237 
L 395.281065 293.413549 
L 395.319586 295.847212 
L 395.358067 292.862048 
L 395.396506 290.53474 
L 395.434904 294.340205 
L 395.473262 293.201092 
L 395.511579 295.853622 
L 395.58809 294.175065 
L 395.664439 292.450844 
L 395.702553 293.51918 
L 395.740627 295.563431 
L 395.816654 290.254076 
L 395.854608 293.604312 
L 395.892521 292.693689 
L 395.930395 293.963615 
L 395.968229 296.271879 
L 396.043778 294.879714 
L 396.081493 294.386044 
L 396.231961 297.37198 
L 396.381802 293.883465 
L 396.45649 299.262515 
L 396.531023 296.676297 
L 396.605403 298.154972 
L 396.642535 297.078753 
L 396.679629 297.02503 
L 396.716685 296.623618 
L 396.753703 297.190766 
L 396.790683 302.085818 
L 396.827625 296.93255 
L 396.864529 297.446191 
L 396.901395 299.646006 
L 396.938224 295.373087 
L 396.975015 298.748614 
L 397.011768 292.443797 
L 397.085163 296.399627 
L 397.121805 297.120406 
L 397.267999 292.938712 
L 397.304455 297.353367 
L 397.377257 296.482712 
L 397.413603 295.749678 
L 397.449912 289.855582 
L 397.522421 293.241908 
L 397.55862 292.957565 
L 397.775059 283.861679 
L 397.846917 284.915407 
L 398.061636 300.03422 
L 398.097298 299.49559 
L 398.168517 301.531363 
L 398.239596 301.051378 
L 398.275083 301.035181 
L 398.310534 192.192175 
L 398.345952 301.767555 
L 398.381334 301.473853 
L 398.416681 301.476411 
L 398.451994 300.202094 
L 398.487273 192.616777 
L 398.487273 192.616777 
" clip-path="url(#p5bab064f12)" style="fill: none; stroke: #1f77b4; stroke-width: 1.5; stroke-linecap: square"/>
   </g>
   <g id="line2d_87">
    <path d="M 73.832727 264.111628 
L 98.811573 268.828762 
L 113.423262 270.659812 
L 123.790419 271.607348 
L 138.402108 272.563083 
L 153.139831 273.194882 
L 168.386938 273.599894 
L 186.535549 273.838732 
L 203.187278 273.832589 
L 213.097732 273.641796 
L 218.450431 273.380308 
L 221.810334 273.073095 
L 225.020727 272.54067 
L 226.573899 272.11177 
L 228.094338 271.479304 
L 229.583394 270.479118 
L 231.042336 268.728625 
L 232.472357 265.167652 
L 233.874579 256.625547 
L 235.250062 241.814469 
L 236.599807 232.876404 
L 237.924757 229.328115 
L 239.225808 227.844151 
L 240.503804 227.342572 
L 241.759549 227.526893 
L 242.993803 228.453871 
L 244.20729 230.576934 
L 245.400696 235.261002 
L 246.574674 245.342271 
L 247.729847 257.727298 
L 248.866808 264.582151 
L 249.98612 267.800978 
L 251.088325 269.511471 
L 252.173935 270.532877 
L 253.243444 271.195487 
L 254.297322 271.651235 
L 256.359965 272.220366 
L 259.347349 272.655783 
L 263.147229 272.908941 
L 268.496054 273.01665 
L 276.613479 272.93346 
L 287.296934 272.58039 
L 297.753893 272.013073 
L 307.131403 271.286935 
L 315.083705 270.459128 
L 322.185267 269.496993 
L 328.115109 268.476079 
L 333.420824 267.338561 
L 338.044694 266.122679 
L 342.310182 264.767549 
L 346.274268 263.269503 
L 350.250866 261.523691 
L 357.75034 258.138491 
L 359.037508 257.843579 
L 359.973582 257.825703 
L 360.785715 258.034434 
L 361.481621 258.472472 
L 362.067599 259.121097 
L 362.644201 260.128094 
L 363.211722 261.640621 
L 363.770444 263.855473 
L 364.320636 266.975505 
L 365.041397 272.54544 
L 366.355158 282.986712 
L 367.036727 286.432092 
L 367.622705 288.360604 
L 368.199307 289.607167 
L 368.847178 290.488176 
L 369.483607 290.994563 
L 370.186407 291.277868 
L 371.027177 291.364754 
L 372.069638 291.230272 
L 373.437835 290.815578 
L 375.564318 289.910812 
L 385.563237 285.383964 
L 389.526272 283.961295 
L 393.745674 282.687664 
L 398.381334 281.525729 
L 398.487273 281.501674 
L 398.487273 281.501674 
" clip-path="url(#p5bab064f12)" style="fill: none; stroke: #ff7f0e; stroke-width: 1.5; stroke-linecap: square"/>
   </g>
   <g id="patch_8">
    <path d="M 57.6 307.584 
L 57.6 186.624 
" style="fill: none; stroke: #000000; stroke-width: 0.8; stroke-linejoin: miter; stroke-linecap: square"/>
   </g>
   <g id="patch_9">
    <path d="M 414.72 307.584 
L 414.72 186.624 
" style="fill: none; stroke: #000000; stroke-width: 0.8; stroke-linejoin: miter; stroke-linecap: square"/>
   </g>
   <g id="patch_10">
    <path d="M 57.6 307.584 
L 414.72 307.584 
" style="fill: none; stroke: #000000; stroke-width: 0.8; stroke-linejoin: miter; stroke-linecap: square"/>
   </g>
   <g id="patch_11">
    <path d="M 57.6 186.624 
L 414.72 186.624 
" style="fill: none; stroke: #000000; stroke-width: 0.8; stroke-linejoin: miter; stroke-linecap: square"/>
   </g>
  </g>
 </g>
 <defs>
  <clipPath id="pe8d703f44f">
   <rect x="57.6" y="41.472" width="357.12" height="120.96"/>
  </clipPath>
  <clipPath id="p5bab064f12">
   <rect x="57.6" y="186.624" width="357.12" height="120.96"/>
  </clipPath>
 </defs>
</svg>
